{"glyphs":{"0":{"ha":1596,"x_min":149,"x_max":1499,"o":"m 1499 949 l 1499 0 l 149 0 l 149 949 l 1499 949 m 1479 929 l 168 929 l 168 19 l 1479 19 l 1479 929 m 797 796 q 782 806 783 800 q 786 817 781 813 q 802 826 792 822 q 824 829 813 829 q 847 824 836 829 q 857 803 857 818 q 871 793 869 800 q 869 778 872 786 q 862 762 867 769 q 858 747 857 754 q 878 744 863 742 q 907 747 893 746 q 928 746 921 749 q 926 728 936 743 q 910 736 924 738 q 888 736 897 735 q 890 731 892 732 q 883 721 881 724 q 877 728 876 724 q 882 736 878 733 q 875 738 878 736 q 864 713 869 724 q 856 686 858 703 q 876 685 869 689 q 882 675 882 681 q 877 665 882 669 q 865 660 872 660 q 847 675 856 660 q 828 667 840 672 q 806 663 817 663 q 793 682 788 663 q 808 674 797 674 q 828 678 818 674 q 846 685 839 682 q 847 691 847 688 q 849 697 847 694 q 835 689 842 688 q 829 701 829 690 q 817 691 825 690 q 813 703 810 692 q 801 688 806 696 q 788 686 796 679 q 788 697 786 690 q 793 708 790 703 q 798 717 796 714 q 800 721 800 721 q 805 717 806 721 q 801 707 804 713 q 796 696 799 701 q 794 689 793 690 q 807 703 797 690 q 821 724 817 717 q 825 719 825 722 q 824 711 825 715 q 820 703 822 707 q 819 697 818 699 q 828 706 822 697 q 839 719 835 714 q 849 725 843 725 q 857 718 854 725 q 863 731 860 725 q 868 739 865 736 q 851 751 851 743 q 857 769 851 760 q 865 785 863 778 q 857 794 868 793 q 847 760 854 776 q 833 749 840 743 q 846 769 840 756 q 851 796 851 783 q 824 795 839 796 q 797 796 810 794 m 896 797 q 880 807 882 796 q 881 824 878 818 q 891 815 883 818 q 909 812 899 813 q 931 813 919 811 q 950 814 942 814 q 993 809 976 819 q 1015 783 1010 799 q 1012 753 1019 768 q 983 732 1004 738 q 960 744 968 732 q 957 771 953 757 q 950 758 954 765 q 940 749 946 751 q 933 760 931 749 q 927 764 928 757 q 926 775 926 771 q 921 769 925 775 q 912 758 917 763 q 903 751 907 753 q 900 758 900 750 q 890 756 894 751 q 889 768 886 761 q 884 760 888 765 q 878 753 881 756 q 872 750 875 750 q 867 757 868 750 q 875 776 868 764 q 889 788 882 788 q 897 782 893 788 q 899 773 904 779 q 896 760 894 767 q 902 767 899 761 q 910 778 906 772 q 917 790 914 785 q 921 794 919 794 q 924 788 925 793 q 921 778 924 783 q 914 769 918 774 q 910 763 910 765 q 919 774 914 768 q 927 782 924 779 q 933 781 931 785 q 933 765 935 778 q 944 778 939 769 q 956 788 949 788 q 964 785 956 788 q 968 780 968 785 q 966 769 968 775 q 963 756 964 763 q 965 746 961 750 q 982 740 972 738 q 997 751 992 743 q 1003 794 1017 783 q 965 804 990 804 q 928 801 947 804 q 896 797 908 799 m 663 710 q 635 724 642 713 q 634 747 629 735 q 653 765 639 758 q 683 764 667 772 q 698 783 690 774 q 713 803 706 793 q 683 797 700 804 q 672 774 667 790 q 661 777 665 772 q 660 788 657 782 q 685 807 665 803 q 719 804 706 811 q 713 774 724 789 q 704 742 703 758 q 727 778 717 760 q 747 817 738 797 q 748 798 754 813 q 733 765 742 783 q 722 729 725 746 q 732 704 718 713 q 717 708 722 703 q 712 721 713 713 q 713 738 711 729 q 718 753 715 747 q 709 741 714 749 q 697 740 704 733 q 692 751 694 746 q 683 758 690 756 q 671 744 678 753 q 657 742 664 735 q 658 746 653 746 q 669 749 664 743 q 679 760 675 756 q 651 752 665 763 q 642 726 636 742 q 655 719 647 719 q 670 719 663 718 q 686 719 678 719 q 700 715 694 719 q 709 701 708 711 q 699 689 710 690 q 688 706 703 703 q 663 710 672 708 m 850 804 q 828 817 846 817 q 806 813 817 817 q 793 804 794 808 q 803 803 796 803 q 819 803 811 803 q 837 805 828 804 q 850 804 846 806 m 714 797 q 703 783 711 793 q 688 763 696 772 q 692 758 690 760 q 696 756 694 757 q 706 780 699 765 q 714 797 713 794 m 735 719 q 728 734 724 722 q 738 757 733 746 q 743 769 740 764 q 749 782 746 775 q 754 794 751 788 q 758 785 763 793 q 753 774 754 778 q 771 789 764 789 q 774 782 775 789 q 771 767 774 775 q 763 753 768 760 q 751 746 757 746 q 743 751 747 746 q 735 719 735 726 m 739 689 q 728 675 726 679 q 738 672 731 671 q 749 678 744 672 q 744 697 753 685 q 738 715 738 706 q 744 731 739 724 q 756 742 749 738 q 771 747 764 747 q 782 724 786 747 q 785 725 783 725 q 788 726 786 725 q 794 740 790 732 q 804 757 799 747 q 795 758 797 753 q 796 768 793 763 q 791 760 794 765 q 784 753 788 756 q 777 750 781 750 q 772 757 774 750 q 781 776 775 764 q 794 788 788 788 q 803 782 799 788 q 805 773 810 779 q 801 760 800 767 q 808 767 804 761 q 815 778 811 772 q 821 790 818 785 q 824 794 824 794 q 828 788 831 792 q 824 776 826 783 q 839 789 835 789 q 842 782 843 789 q 839 767 842 775 q 831 753 836 760 q 819 746 825 746 q 810 753 814 746 q 805 742 807 747 q 800 732 803 738 q 819 739 810 735 q 836 743 829 743 q 847 729 849 743 q 824 732 838 736 q 794 722 810 728 q 781 692 788 708 q 782 667 775 675 q 770 674 772 668 q 770 689 768 681 q 776 705 772 697 q 783 717 781 713 q 772 709 778 714 q 761 704 767 704 q 754 715 756 704 q 775 726 769 714 q 772 739 781 739 q 758 731 769 739 q 750 710 747 721 q 757 690 753 699 q 759 673 761 681 q 738 661 757 665 q 725 666 729 661 q 721 677 721 671 q 724 688 721 683 q 732 693 728 693 q 740 689 736 693 l 739 689 m 768 783 q 760 774 767 783 q 746 756 753 765 q 751 752 747 750 q 759 760 756 754 q 765 774 763 767 q 768 783 768 781 m 813 758 l 813 757 q 817 751 814 751 q 829 765 822 751 q 836 783 836 778 q 826 775 833 783 q 813 758 819 767 m 792 768 q 797 776 794 772 q 800 782 799 779 q 794 781 797 785 q 787 772 790 778 q 781 760 783 767 q 779 753 779 754 q 785 759 781 753 q 792 768 789 765 m 885 768 q 894 781 893 779 q 888 781 892 785 q 881 772 885 778 q 876 760 878 767 q 874 753 874 754 q 879 759 875 753 q 885 768 883 765 m 951 768 q 956 776 954 772 q 961 781 958 779 q 955 781 958 785 q 948 772 951 778 q 942 760 944 767 q 940 753 940 754 q 945 759 942 753 q 951 768 949 765 m 864 696 q 869 715 863 704 q 875 724 876 725 q 879 715 882 724 q 874 704 878 713 q 871 694 871 696 q 882 708 875 694 q 892 721 889 721 q 896 717 892 721 q 889 692 882 692 q 897 699 892 692 q 899 715 901 707 l 894 722 q 913 718 903 718 q 935 724 925 718 q 943 743 946 731 q 953 737 951 744 q 951 724 956 729 q 931 713 949 715 q 903 715 914 710 q 900 698 906 708 q 889 688 894 688 q 881 697 882 688 q 872 690 876 692 q 864 696 867 689 m 836 692 q 854 713 849 700 q 851 720 854 721 q 843 714 847 719 q 837 701 839 708 q 836 692 835 694 m 868 681 q 856 678 864 681 q 863 667 857 668 q 872 668 868 665 q 876 675 876 671 q 868 681 876 679 m 1085 525 q 1071 518 1079 518 q 1058 525 1063 518 q 1053 541 1053 532 q 1057 557 1053 550 q 1069 567 1061 564 q 1085 564 1076 569 q 1085 572 1085 567 q 1085 580 1086 576 q 1083 586 1085 583 q 1075 588 1081 589 l 1075 590 l 1093 592 l 1094 590 l 1094 529 q 1096 525 1093 526 q 1101 524 1099 524 l 1101 521 l 1086 519 l 1085 521 l 1085 525 m 557 528 q 558 538 557 529 q 558 558 558 547 q 558 577 558 568 q 554 586 557 586 l 551 588 l 549 588 l 549 590 l 565 592 l 565 528 q 572 524 565 524 l 572 519 l 550 519 l 550 524 q 557 528 557 524 m 1117 578 q 1111 584 1111 578 q 1117 590 1111 590 q 1123 584 1124 590 q 1117 578 1122 578 m 979 579 l 979 565 l 992 565 l 992 561 l 979 561 l 979 536 q 982 526 978 529 q 993 525 986 522 l 993 522 q 977 519 982 517 q 971 530 972 522 q 970 547 969 538 q 971 561 971 556 l 963 561 l 963 565 l 971 565 l 971 579 l 979 579 m 1172 560 q 1176 533 1183 549 q 1156 518 1168 518 q 1140 525 1147 518 q 1135 552 1128 538 q 1157 567 1143 567 q 1172 560 1165 567 m 1292 560 q 1295 533 1303 549 q 1275 518 1288 518 q 1260 525 1267 518 q 1255 552 1247 538 q 1276 567 1263 567 q 1292 560 1285 567 m 507 539 q 518 544 510 543 q 531 549 526 546 q 527 561 532 556 q 515 561 522 567 q 514 551 517 553 q 508 552 511 550 q 506 558 506 554 q 517 565 507 563 q 535 563 532 569 q 539 548 539 557 q 539 531 539 539 q 547 524 539 524 l 547 521 q 537 519 542 518 q 531 525 532 519 q 515 519 525 519 q 505 526 508 518 q 507 539 501 533 m 894 546 q 903 549 903 549 q 900 561 906 556 q 888 561 894 567 q 886 551 889 553 q 881 552 883 550 q 880 558 879 554 q 889 565 881 563 q 908 563 904 569 q 911 548 911 557 q 911 531 911 539 q 919 524 911 524 l 919 521 q 910 519 915 518 q 904 525 904 519 l 903 525 q 889 518 896 518 q 876 531 878 518 q 894 546 875 543 m 651 546 q 660 549 660 549 q 656 561 661 556 q 644 561 651 567 q 643 551 646 553 q 638 552 640 550 q 635 558 635 554 q 646 565 636 563 q 665 563 661 569 q 668 548 668 557 q 667 531 668 539 q 675 524 667 524 l 675 521 q 666 519 671 518 q 660 525 661 519 q 646 518 653 518 q 633 531 635 518 q 651 546 632 543 m 775 556 q 781 565 776 563 q 793 567 786 567 q 805 563 800 567 q 808 551 810 560 q 808 534 811 544 q 817 524 806 524 l 817 521 q 806 519 811 518 q 800 525 801 519 q 785 518 790 518 q 773 531 774 518 q 800 549 772 543 q 797 561 801 556 q 785 561 792 567 q 783 551 788 554 q 775 556 778 549 m 1232 519 q 1217 525 1222 519 q 1210 538 1211 531 q 1213 553 1210 546 q 1224 565 1215 561 q 1241 565 1231 569 q 1246 551 1251 561 q 1238 551 1240 546 q 1238 561 1235 556 q 1223 558 1226 567 q 1222 538 1219 549 q 1231 523 1224 528 q 1247 532 1238 518 l 1250 531 q 1232 519 1242 518 m 954 542 q 956 526 961 535 q 942 519 951 518 q 935 519 939 518 q 929 522 932 521 l 928 519 l 925 519 l 924 536 l 928 536 q 940 522 928 525 q 950 533 953 519 q 938 540 946 540 q 926 547 929 540 q 931 564 921 558 q 950 564 942 569 l 951 567 l 956 567 l 956 553 l 953 553 q 942 563 953 563 q 933 553 931 564 q 943 547 936 549 q 954 542 950 546 m 601 503 l 601 500 l 576 500 l 576 503 q 585 507 585 503 l 585 556 q 576 563 585 563 l 576 565 l 592 567 l 593 565 l 593 560 q 608 567 603 567 q 622 557 618 567 q 624 537 626 547 q 615 521 622 526 q 593 522 607 515 q 593 508 593 515 q 601 503 593 501 m 678 503 q 685 504 685 503 q 686 507 686 507 l 686 556 q 678 563 686 563 l 678 565 l 694 567 l 694 560 q 710 567 704 567 q 724 557 719 567 q 726 537 728 547 q 716 521 724 526 q 694 522 708 515 q 694 508 694 515 q 704 503 694 501 l 704 500 l 678 500 l 678 503 m 835 567 l 836 565 l 836 558 q 854 567 843 568 q 864 551 865 565 q 864 535 865 547 q 871 524 863 522 l 871 519 l 849 519 l 849 524 q 856 528 856 524 q 855 544 854 532 q 853 558 856 556 q 844 560 850 563 q 836 554 839 558 q 835 535 838 549 q 843 524 833 522 l 843 519 l 821 519 l 821 524 q 828 528 828 524 q 827 536 826 531 q 828 548 828 542 q 826 558 828 554 q 819 563 825 563 l 819 565 l 835 567 m 1311 528 q 1311 545 1310 531 q 1308 561 1313 560 q 1306 562 1307 561 q 1304 563 1306 563 l 1304 565 l 1319 567 l 1319 558 q 1335 567 1325 565 q 1347 558 1344 568 q 1365 567 1354 568 q 1375 551 1376 565 q 1375 535 1376 547 q 1382 524 1374 522 l 1382 519 l 1360 519 l 1360 524 q 1367 535 1369 522 q 1367 551 1365 547 q 1360 561 1368 561 q 1347 554 1351 561 l 1347 528 q 1354 524 1347 524 l 1354 519 l 1332 519 l 1332 524 q 1340 535 1342 522 q 1339 551 1338 547 q 1331 561 1340 561 q 1319 554 1322 561 q 1319 547 1319 553 q 1319 536 1319 542 q 1321 526 1319 531 q 1326 524 1322 522 l 1326 519 l 1304 519 l 1304 524 q 1311 528 1311 524 m 735 524 q 740 525 739 524 q 741 540 742 525 q 740 556 740 554 q 733 563 740 563 l 733 565 l 749 567 l 750 565 l 750 558 q 763 567 753 567 q 768 556 772 567 q 761 554 765 551 q 760 561 757 557 q 750 554 753 561 l 750 528 q 758 524 749 524 l 758 519 l 735 519 l 735 524 m 1029 529 q 1031 533 1031 529 q 1031 542 1031 538 q 1031 552 1031 547 q 1031 557 1031 557 q 1022 563 1031 563 l 1022 565 l 1039 567 l 1039 529 q 1046 524 1039 524 l 1046 521 l 1032 519 l 1031 521 l 1031 526 q 1013 519 1024 518 q 1003 535 1001 521 q 1003 551 1001 539 q 996 563 1006 564 l 996 565 l 1011 567 l 1011 565 q 1011 554 1011 561 q 1012 540 1011 547 q 1014 528 1013 533 q 1019 524 1015 524 q 1029 529 1024 524 m 1113 528 q 1113 544 1113 531 q 1111 561 1114 558 q 1108 562 1110 561 q 1106 563 1107 563 l 1106 565 l 1121 567 l 1122 565 l 1122 528 q 1128 524 1121 524 l 1128 519 l 1107 519 l 1107 524 q 1113 528 1114 524 m 272 557 q 265 563 269 563 l 265 565 l 286 565 l 286 563 q 281 559 282 563 q 283 551 281 556 q 287 540 285 546 q 289 532 289 535 l 301 564 l 306 564 l 317 532 q 319 541 317 536 q 324 551 322 546 q 325 559 325 556 q 319 563 325 563 l 319 565 l 356 565 l 356 563 q 353 551 347 563 q 360 532 358 539 l 371 564 l 375 564 l 388 532 q 390 541 388 536 q 393 551 392 546 q 394 559 394 556 q 389 563 394 563 l 389 565 l 425 565 l 425 563 q 422 551 417 563 q 429 532 428 539 l 440 564 l 444 564 l 457 532 q 459 541 457 536 q 463 551 461 546 q 464 559 464 556 q 458 563 464 563 l 458 565 l 476 565 l 476 563 q 464 544 465 557 q 457 519 463 531 l 453 519 l 440 553 l 428 519 l 424 519 q 406 561 414 561 q 388 519 400 561 l 383 519 l 371 553 l 358 519 l 354 519 q 336 561 344 561 q 317 519 329 561 l 314 519 l 301 553 l 289 519 l 285 519 q 278 539 282 529 q 272 557 275 549 m 1144 550 q 1144 535 1143 543 q 1150 524 1144 528 q 1168 533 1165 518 q 1167 557 1171 547 q 1153 563 1161 567 q 1144 550 1144 560 m 1264 550 q 1263 535 1263 543 q 1269 524 1264 528 q 1287 533 1283 518 q 1286 557 1290 547 q 1272 563 1281 567 q 1264 550 1264 560 m 1063 551 q 1064 533 1060 543 q 1075 524 1068 524 q 1085 529 1081 524 l 1085 556 q 1073 563 1082 565 q 1063 551 1064 561 m 593 557 q 592 546 593 553 q 593 533 592 539 q 597 524 594 526 q 608 524 600 521 q 617 547 619 531 q 603 563 614 563 q 593 557 599 563 m 694 557 q 694 546 694 553 q 695 533 694 539 q 699 524 696 526 q 710 524 701 521 q 718 547 721 531 q 704 563 715 563 q 694 557 700 563 m 903 546 q 887 533 889 543 q 892 524 885 524 q 903 529 897 524 l 903 546 m 800 546 q 784 533 786 543 q 789 524 782 524 q 800 529 794 524 l 800 546 m 531 529 l 531 546 q 522 542 526 543 q 515 536 518 540 q 518 525 510 528 q 531 529 526 522 m 660 546 q 642 533 644 543 q 649 524 640 524 q 660 529 654 524 l 660 546 m 1194 519 q 1188 526 1188 519 q 1194 532 1188 532 q 1201 526 1201 532 q 1194 519 1201 519 m 488 519 q 481 526 481 519 q 488 532 481 532 q 494 526 494 532 q 488 519 494 519 m 736 401 l 736 408 l 913 408 l 913 401 l 736 401 m 1154 301 q 1165 278 1164 290 q 1160 255 1165 265 q 1144 238 1154 244 q 1122 232 1135 232 q 1094 243 1106 232 q 1084 267 1085 254 q 1089 290 1083 279 q 1104 306 1094 300 q 1126 313 1114 313 q 1154 301 1143 313 m 594 274 q 583 244 597 254 q 553 233 568 233 q 525 243 538 233 q 514 272 513 253 q 525 301 511 292 q 556 311 539 311 q 583 302 571 311 q 594 274 596 293 m 935 281 q 935 297 931 290 q 946 308 939 304 q 962 311 953 311 q 979 308 971 311 l 976 292 l 974 290 l 969 306 q 953 303 963 308 q 950 289 944 299 q 963 280 954 282 q 976 271 971 278 q 983 253 985 261 q 972 239 981 244 q 953 233 964 233 q 933 236 942 232 l 936 256 l 939 257 l 943 240 q 961 241 951 236 q 965 257 971 246 q 949 267 960 265 q 935 281 939 269 m 457 281 q 457 297 453 290 q 468 308 461 304 q 484 311 475 311 q 501 308 493 311 l 499 292 l 496 290 l 492 306 q 475 303 483 308 q 472 289 467 299 q 485 280 476 282 q 499 271 493 278 q 505 253 507 261 q 494 239 503 244 q 475 233 486 233 q 456 236 464 232 l 458 256 l 461 257 l 465 240 q 483 241 474 236 q 488 257 493 246 q 472 267 482 265 q 457 281 461 269 m 243 238 q 250 240 247 239 q 251 246 253 240 l 251 294 q 251 303 251 301 q 243 307 250 306 l 243 310 q 293 306 279 314 q 307 289 307 299 q 295 271 307 279 q 268 267 283 263 l 268 242 q 272 239 268 239 q 278 238 276 239 l 278 235 l 243 235 l 243 238 m 757 238 l 757 235 l 724 235 l 724 238 q 731 246 735 239 q 725 258 726 253 l 703 258 q 697 245 701 253 q 704 238 693 238 l 704 235 l 679 235 l 679 238 q 690 246 689 240 l 717 311 l 722 311 l 746 246 q 757 238 747 240 m 378 238 q 386 242 386 239 q 386 251 386 244 l 386 294 q 385 303 386 301 q 378 307 385 306 l 378 310 q 406 310 390 308 q 432 306 421 313 q 439 287 443 299 q 422 272 435 275 q 435 251 431 263 q 451 238 439 240 l 451 235 q 431 235 438 231 q 422 245 425 239 q 415 258 418 251 q 403 269 411 265 q 402 256 403 264 q 403 242 401 247 q 404 239 401 239 q 410 238 407 239 l 410 235 l 378 235 l 378 238 m 1282 294 l 1282 240 l 1303 240 l 1311 256 l 1314 257 l 1313 235 l 1258 235 l 1258 238 q 1266 242 1265 239 q 1267 251 1267 244 l 1267 294 q 1266 303 1267 301 q 1258 307 1265 306 l 1258 310 l 1290 310 l 1290 307 q 1283 303 1283 306 q 1282 294 1282 301 m 1354 310 l 1378 310 l 1379 307 q 1371 302 1375 307 q 1363 291 1367 297 q 1357 278 1360 285 q 1351 269 1354 272 l 1351 242 q 1354 239 1351 239 q 1358 238 1357 239 l 1360 235 l 1326 235 l 1326 238 q 1331 239 1328 239 q 1335 242 1335 239 l 1335 268 q 1330 278 1333 271 q 1323 291 1326 285 q 1315 302 1319 297 q 1306 307 1310 307 l 1306 310 l 1340 310 l 1342 307 q 1336 297 1331 306 l 1349 275 l 1358 296 q 1354 307 1364 306 l 1354 310 m 1038 240 l 1044 254 l 1047 256 l 1046 235 l 992 235 l 990 238 q 999 242 999 239 q 1000 251 1000 244 l 1000 294 q 999 303 1000 301 q 992 307 999 306 l 990 310 l 1046 310 l 1043 292 l 1040 292 l 1036 304 l 1015 304 l 1015 276 q 1026 276 1022 276 q 1032 285 1031 275 l 1036 285 l 1036 263 l 1032 261 q 1026 271 1031 272 q 1015 271 1022 269 l 1015 240 l 1038 240 m 914 310 l 926 310 l 926 307 q 917 295 917 307 q 917 270 917 283 q 913 245 918 257 q 888 233 908 233 q 860 244 865 233 q 855 269 854 256 q 856 295 856 283 q 847 307 857 307 l 847 310 l 879 310 l 881 307 q 872 303 874 306 q 871 294 871 301 q 872 269 872 286 q 876 244 871 251 q 893 239 886 239 q 904 245 900 239 q 910 260 908 251 q 910 278 911 268 q 910 294 910 288 q 909 303 910 301 q 901 307 908 306 l 901 310 l 914 310 m 1174 307 l 1174 310 l 1194 310 q 1202 301 1196 308 q 1215 284 1208 293 q 1228 267 1222 275 q 1235 260 1235 260 l 1235 294 q 1234 303 1235 301 q 1226 307 1233 306 l 1226 310 l 1250 310 l 1250 307 q 1242 303 1243 306 q 1242 294 1242 301 l 1242 235 l 1235 235 q 1227 245 1235 236 q 1211 265 1219 254 q 1196 284 1203 275 q 1189 293 1189 293 l 1189 251 q 1189 242 1189 244 q 1197 238 1189 239 l 1197 235 l 1174 235 l 1174 238 q 1181 242 1181 239 q 1182 251 1182 244 l 1182 294 q 1181 303 1182 301 q 1174 307 1181 306 m 367 235 l 311 235 l 311 238 q 318 240 315 239 q 319 246 321 240 l 319 294 q 319 303 321 301 q 311 307 318 306 l 311 310 l 367 310 l 364 292 l 360 292 l 357 304 l 336 304 l 336 276 q 347 276 343 276 q 353 285 351 275 l 357 285 q 356 273 356 276 q 357 263 356 269 l 353 261 q 347 271 351 272 q 336 271 343 269 l 336 240 l 358 240 l 364 254 l 368 256 l 367 235 m 815 235 l 761 235 l 761 238 q 769 242 769 239 q 769 251 769 244 l 769 294 q 769 303 769 301 q 761 307 768 306 l 761 310 l 793 310 l 793 307 q 786 303 786 306 q 786 294 786 301 q 785 267 786 288 q 786 240 785 247 l 807 240 l 814 256 l 817 257 l 815 235 m 603 238 q 608 239 604 239 q 611 242 611 239 l 611 294 q 610 303 611 301 q 603 307 610 306 l 603 310 l 624 310 q 631 301 625 308 q 644 284 638 293 q 658 267 651 275 q 664 260 664 260 l 664 294 q 663 303 664 301 q 656 307 663 306 l 656 310 l 679 310 l 681 307 q 672 303 674 306 q 671 294 671 301 l 671 235 l 665 235 q 657 245 664 236 q 642 265 650 254 q 626 284 633 275 q 618 293 618 293 l 618 251 q 619 242 618 244 q 626 238 619 239 l 626 235 l 603 235 l 603 238 m 1393 257 l 1388 308 l 1404 308 l 1397 257 l 1393 257 m 1107 299 q 1102 281 1103 292 q 1103 261 1101 271 q 1111 244 1106 251 q 1125 238 1117 238 q 1142 246 1133 238 q 1147 263 1146 253 q 1146 283 1149 274 q 1138 300 1143 293 q 1125 307 1133 307 q 1107 299 1115 307 m 571 246 q 576 263 575 253 q 575 283 578 274 q 567 300 572 293 q 554 307 563 307 q 536 299 544 307 q 531 281 532 292 q 533 261 531 271 q 540 244 535 251 q 554 238 546 238 q 571 246 563 238 m 268 272 q 283 274 278 268 q 289 288 289 281 q 284 301 289 296 q 268 304 279 307 l 268 272 m 403 275 q 417 278 413 272 q 422 290 422 283 q 417 302 422 297 q 403 304 413 307 l 403 275 m 722 264 q 718 277 721 267 q 714 290 715 288 q 710 277 713 288 q 706 264 707 267 l 722 264 m 1396 250 q 1403 242 1403 250 q 1396 233 1403 233 q 1388 242 1388 233 q 1396 250 1388 250 m 775 129 q 788 132 779 129 l 788 129 q 768 124 778 124 q 747 135 754 124 q 742 158 740 146 q 755 178 744 169 q 786 181 765 186 l 786 179 l 785 165 l 782 165 l 779 176 q 760 173 767 181 q 753 156 754 165 q 758 138 753 146 q 775 129 764 129 m 1146 129 q 1157 132 1149 129 l 1158 129 q 1139 124 1149 124 q 1118 135 1125 124 q 1113 158 1111 146 q 1126 178 1115 169 q 1157 181 1136 186 l 1157 179 l 1154 165 l 1153 165 l 1150 176 q 1131 173 1138 181 q 1124 156 1125 165 q 1129 138 1124 146 q 1146 129 1135 129 m 822 182 q 844 174 838 183 q 850 153 850 164 q 842 132 850 142 q 819 124 835 122 q 799 133 806 124 q 792 153 792 142 q 800 174 792 165 q 822 182 808 183 m 629 182 q 651 174 644 183 q 657 153 657 164 q 649 132 657 142 q 626 124 642 122 q 606 133 613 124 q 599 153 599 142 q 607 174 599 165 q 629 182 615 183 m 451 182 q 474 174 467 183 q 481 153 481 164 q 473 132 481 142 q 450 124 465 122 q 428 133 436 124 q 422 153 421 142 q 430 174 422 165 q 451 182 438 183 m 1243 129 l 1247 125 l 1222 125 l 1222 128 q 1226 133 1229 128 q 1224 143 1224 139 l 1207 143 q 1203 133 1206 139 q 1208 128 1200 128 l 1208 125 l 1190 125 l 1190 128 q 1197 133 1197 128 l 1218 181 l 1222 182 q 1225 172 1222 181 q 1231 153 1228 163 q 1238 137 1235 144 q 1243 129 1242 129 m 718 128 l 718 125 q 703 126 708 124 q 696 134 699 129 q 691 144 693 139 q 682 151 689 149 q 683 137 685 146 q 688 128 681 128 l 688 125 l 664 125 l 664 128 q 671 130 671 128 q 671 138 671 132 l 671 172 q 669 177 672 176 q 664 179 667 178 l 664 181 q 685 181 674 179 q 704 178 697 182 q 710 163 713 172 q 697 153 707 154 q 706 138 703 146 q 718 128 710 131 m 1108 128 l 1111 128 l 1111 125 q 1097 126 1101 124 q 1089 134 1092 129 q 1083 144 1086 139 q 1075 151 1081 149 q 1074 137 1076 146 q 1079 128 1072 128 l 1079 125 l 1057 125 l 1057 128 q 1063 130 1063 128 q 1063 138 1063 132 l 1063 172 q 1062 177 1064 176 q 1057 179 1060 178 l 1057 181 q 1077 181 1065 179 q 1097 178 1089 182 q 1101 163 1104 172 q 1090 153 1099 154 q 1099 138 1096 146 q 1108 128 1101 131 m 514 181 l 532 181 l 533 181 l 531 165 l 528 165 l 525 176 l 514 176 l 514 138 q 515 130 514 131 q 521 128 515 129 l 522 125 l 496 125 l 494 128 q 499 128 496 128 q 503 131 503 129 l 503 176 l 492 176 l 488 165 l 485 165 l 485 181 l 514 181 m 926 179 q 922 178 925 178 q 919 176 919 178 l 919 138 q 919 130 919 132 q 926 128 919 128 l 926 125 l 903 125 l 903 128 q 908 133 907 128 q 908 146 908 139 q 908 160 908 153 q 908 171 907 168 q 904 163 907 169 q 899 148 901 156 q 893 134 896 140 q 889 125 890 128 l 886 125 q 882 134 885 128 q 876 148 879 140 q 871 162 874 156 q 868 169 868 168 q 869 160 869 167 q 868 146 868 153 q 869 133 868 139 q 874 128 869 128 l 874 125 l 857 125 l 857 128 q 863 131 863 129 q 863 138 863 132 l 863 169 q 857 179 864 178 l 857 181 l 875 181 q 878 174 875 179 q 883 161 881 168 q 888 148 886 154 q 890 142 890 142 q 893 148 890 142 q 899 161 896 154 q 904 174 901 168 q 907 181 907 179 l 925 181 l 926 179 m 1189 179 q 1183 177 1186 178 q 1182 172 1181 176 l 1182 138 q 1182 131 1182 133 q 1189 128 1182 128 l 1189 125 l 1164 125 l 1164 128 q 1171 130 1171 128 q 1171 138 1171 132 l 1171 172 q 1169 177 1172 176 q 1164 179 1167 178 l 1164 181 l 1189 181 l 1189 179 m 407 181 l 415 181 l 415 179 q 410 169 408 178 l 410 125 l 404 125 q 399 133 404 126 q 387 147 393 139 q 376 161 381 154 q 371 168 371 168 l 371 138 q 371 130 371 132 q 376 128 371 128 l 376 125 l 360 125 l 360 128 q 365 131 365 129 q 365 138 365 132 l 365 169 q 365 176 365 175 q 360 179 365 178 l 360 181 l 375 181 q 380 174 375 179 q 390 161 385 168 q 399 149 394 154 q 404 143 404 143 l 404 169 q 399 179 404 178 l 397 181 l 407 181 m 1283 129 l 1290 142 l 1290 126 l 1289 125 l 1250 125 l 1250 128 q 1256 131 1256 128 q 1256 138 1256 133 l 1256 169 q 1256 176 1256 174 q 1250 179 1256 178 l 1250 181 l 1274 181 l 1274 179 q 1268 176 1268 178 q 1268 169 1268 174 l 1268 129 l 1283 129 m 575 181 l 594 181 l 592 167 l 590 167 l 588 176 l 572 176 l 572 154 q 581 155 578 156 q 585 161 583 154 l 588 161 l 588 144 l 585 144 q 581 151 583 151 q 572 151 578 150 l 572 131 q 575 128 572 129 q 579 128 578 128 l 579 125 l 554 125 l 554 128 q 561 131 561 129 q 561 138 561 132 l 561 172 q 560 177 563 176 q 554 179 557 178 l 554 181 l 575 181 m 1008 181 l 1049 181 l 1046 167 l 1044 167 l 1042 176 l 1026 176 l 1026 156 q 1035 156 1032 156 q 1039 163 1038 156 l 1042 163 q 1042 146 1040 153 l 1039 144 q 1035 151 1038 151 q 1026 151 1032 151 l 1026 129 l 1042 129 l 1047 140 l 1050 140 l 1049 126 l 1049 125 l 1008 125 l 1008 128 q 1014 130 1014 128 q 1014 138 1014 132 l 1014 172 q 1013 177 1015 176 q 1008 179 1011 178 l 1008 181 m 1001 179 q 997 178 1000 178 q 994 176 994 178 l 994 138 q 994 130 994 132 q 1001 128 994 128 l 1001 125 l 978 125 l 978 128 q 983 133 982 128 q 983 146 983 139 q 983 160 983 153 q 983 171 982 168 q 981 163 983 169 q 974 148 978 156 q 968 134 971 140 q 965 125 965 128 l 961 125 q 958 134 961 128 q 952 148 956 140 q 946 162 949 156 q 943 169 943 168 q 944 160 944 167 q 943 146 943 153 q 944 133 943 139 q 949 128 944 128 l 949 125 l 932 125 l 932 128 q 939 131 939 129 q 939 138 939 132 l 939 169 q 932 179 939 178 l 932 181 l 951 181 q 953 174 951 179 q 958 161 956 168 q 964 148 961 154 q 967 142 967 142 q 969 148 967 142 q 974 161 971 154 q 979 174 976 168 q 982 181 982 179 l 1001 181 l 1001 179 m 464 133 q 467 162 471 144 q 451 179 463 179 q 439 172 446 179 q 436 144 432 161 q 451 128 440 128 q 464 133 458 128 m 640 133 q 643 162 647 144 q 628 179 639 179 q 615 172 622 179 q 613 144 608 161 q 628 128 617 128 q 640 133 635 128 m 833 133 q 836 162 840 144 q 821 179 832 179 q 808 172 815 179 q 806 144 801 161 q 821 128 810 128 q 833 133 828 128 m 694 157 q 697 172 700 164 q 682 176 693 179 l 682 154 q 694 157 692 154 m 1086 157 q 1088 172 1092 164 q 1075 176 1085 179 l 1075 154 q 1086 157 1085 154 m 1222 147 q 1219 156 1221 150 q 1215 165 1217 163 q 1212 156 1214 163 q 1208 147 1210 150 l 1222 147 z "},"1":{"ha":1596,"x_min":149,"x_max":1499,"o":"m 1499 949 l 1499 0 l 149 0 l 149 949 l 1499 949 m 1479 929 l 168 929 l 168 19 l 1479 19 l 1479 929 m 797 796 q 782 806 783 800 q 786 817 781 813 q 802 826 792 822 q 824 829 813 829 q 847 824 836 829 q 857 803 857 818 q 871 793 869 800 q 869 778 872 786 q 862 762 867 769 q 858 747 857 754 q 878 744 863 742 q 907 747 893 746 q 928 746 921 749 q 926 728 936 743 q 910 736 924 738 q 888 736 897 735 q 890 731 892 732 q 883 721 881 724 q 877 728 876 724 q 882 736 878 733 q 875 738 878 736 q 864 713 869 724 q 856 686 858 703 q 876 685 869 689 q 882 675 882 681 q 877 665 882 669 q 865 660 872 660 q 847 675 856 660 q 828 667 840 672 q 806 663 817 663 q 793 682 788 663 q 808 674 797 674 q 828 678 818 674 q 846 685 839 682 q 847 691 847 688 q 849 697 847 694 q 835 689 842 688 q 829 701 829 690 q 817 691 825 690 q 813 703 810 692 q 801 688 806 696 q 788 686 796 679 q 788 697 786 690 q 793 708 790 703 q 798 717 796 714 q 800 721 800 721 q 805 717 806 721 q 801 707 804 713 q 796 696 799 701 q 794 689 793 690 q 807 703 797 690 q 821 724 817 717 q 825 719 825 722 q 824 711 825 715 q 820 703 822 707 q 819 697 818 699 q 828 706 822 697 q 839 719 835 714 q 849 725 843 725 q 857 718 854 725 q 863 731 860 725 q 868 739 865 736 q 851 751 851 743 q 857 769 851 760 q 865 785 863 778 q 857 794 868 793 q 847 760 854 776 q 833 749 840 743 q 846 769 840 756 q 851 796 851 783 q 824 795 839 796 q 797 796 810 794 m 896 797 q 880 807 882 796 q 881 824 878 818 q 891 815 883 818 q 909 812 899 813 q 931 813 919 811 q 950 814 942 814 q 993 809 976 819 q 1015 783 1010 799 q 1012 753 1019 768 q 983 732 1004 738 q 960 744 968 732 q 957 771 953 757 q 950 758 954 765 q 940 749 946 751 q 933 760 931 749 q 927 764 928 757 q 926 775 926 771 q 921 769 925 775 q 912 758 917 763 q 903 751 907 753 q 900 758 900 750 q 890 756 894 751 q 889 768 886 761 q 884 760 888 765 q 878 753 881 756 q 872 750 875 750 q 867 757 868 750 q 875 776 868 764 q 889 788 882 788 q 897 782 893 788 q 899 773 904 779 q 896 760 894 767 q 902 767 899 761 q 910 778 906 772 q 917 790 914 785 q 921 794 919 794 q 924 788 925 793 q 921 778 924 783 q 914 769 918 774 q 910 763 910 765 q 919 774 914 768 q 927 782 924 779 q 933 781 931 785 q 933 765 935 778 q 944 778 939 769 q 956 788 949 788 q 964 785 956 788 q 968 780 968 785 q 966 769 968 775 q 963 756 964 763 q 965 746 961 750 q 982 740 972 738 q 997 751 992 743 q 1003 794 1017 783 q 965 804 990 804 q 928 801 947 804 q 896 797 908 799 m 663 710 q 635 724 642 713 q 634 747 629 735 q 653 765 639 758 q 683 764 667 772 q 698 783 690 774 q 713 803 706 793 q 683 797 700 804 q 672 774 667 790 q 661 777 665 772 q 660 788 657 782 q 685 807 665 803 q 719 804 706 811 q 713 774 724 789 q 704 742 703 758 q 727 778 717 760 q 747 817 738 797 q 748 798 754 813 q 733 765 742 783 q 722 729 725 746 q 732 704 718 713 q 717 708 722 703 q 712 721 713 713 q 713 738 711 729 q 718 753 715 747 q 709 741 714 749 q 697 740 704 733 q 692 751 694 746 q 683 758 690 756 q 671 744 678 753 q 657 742 664 735 q 658 746 653 746 q 669 749 664 743 q 679 760 675 756 q 651 752 665 763 q 642 726 636 742 q 655 719 647 719 q 670 719 663 718 q 686 719 678 719 q 700 715 694 719 q 709 701 708 711 q 699 689 710 690 q 688 706 703 703 q 663 710 672 708 m 850 804 q 828 817 846 817 q 806 813 817 817 q 793 804 794 808 q 803 803 796 803 q 819 803 811 803 q 837 805 828 804 q 850 804 846 806 m 714 797 q 703 783 711 793 q 688 763 696 772 q 692 758 690 760 q 696 756 694 757 q 706 780 699 765 q 714 797 713 794 m 735 719 q 728 734 724 722 q 738 757 733 746 q 743 769 740 764 q 749 782 746 775 q 754 794 751 788 q 758 785 763 793 q 753 774 754 778 q 771 789 764 789 q 774 782 775 789 q 771 767 774 775 q 763 753 768 760 q 751 746 757 746 q 743 751 747 746 q 735 719 735 726 m 739 689 q 728 675 726 679 q 738 672 731 671 q 749 678 744 672 q 744 697 753 685 q 738 715 738 706 q 744 731 739 724 q 756 742 749 738 q 771 747 764 747 q 782 724 786 747 q 785 725 783 725 q 788 726 786 725 q 794 740 790 732 q 804 757 799 747 q 795 758 797 753 q 796 768 793 763 q 791 760 794 765 q 784 753 788 756 q 777 750 781 750 q 772 757 774 750 q 781 776 775 764 q 794 788 788 788 q 803 782 799 788 q 805 773 810 779 q 801 760 800 767 q 808 767 804 761 q 815 778 811 772 q 821 790 818 785 q 824 794 824 794 q 828 788 831 792 q 824 776 826 783 q 839 789 835 789 q 842 782 843 789 q 839 767 842 775 q 831 753 836 760 q 819 746 825 746 q 810 753 814 746 q 805 742 807 747 q 800 732 803 738 q 819 739 810 735 q 836 743 829 743 q 847 729 849 743 q 824 732 838 736 q 794 722 810 728 q 781 692 788 708 q 782 667 775 675 q 770 674 772 668 q 770 689 768 681 q 776 705 772 697 q 783 717 781 713 q 772 709 778 714 q 761 704 767 704 q 754 715 756 704 q 775 726 769 714 q 772 739 781 739 q 758 731 769 739 q 750 710 747 721 q 757 690 753 699 q 759 673 761 681 q 738 661 757 665 q 725 666 729 661 q 721 677 721 671 q 724 688 721 683 q 732 693 728 693 q 740 689 736 693 l 739 689 m 768 783 q 760 774 767 783 q 746 756 753 765 q 751 752 747 750 q 759 760 756 754 q 765 774 763 767 q 768 783 768 781 m 813 758 l 813 757 q 817 751 814 751 q 829 765 822 751 q 836 783 836 778 q 826 775 833 783 q 813 758 819 767 m 792 768 q 797 776 794 772 q 800 782 799 779 q 794 781 797 785 q 787 772 790 778 q 781 760 783 767 q 779 753 779 754 q 785 759 781 753 q 792 768 789 765 m 885 768 q 894 781 893 779 q 888 781 892 785 q 881 772 885 778 q 876 760 878 767 q 874 753 874 754 q 879 759 875 753 q 885 768 883 765 m 951 768 q 956 776 954 772 q 961 781 958 779 q 955 781 958 785 q 948 772 951 778 q 942 760 944 767 q 940 753 940 754 q 945 759 942 753 q 951 768 949 765 m 864 696 q 869 715 863 704 q 875 724 876 725 q 879 715 882 724 q 874 704 878 713 q 871 694 871 696 q 882 708 875 694 q 892 721 889 721 q 896 717 892 721 q 889 692 882 692 q 897 699 892 692 q 899 715 901 707 l 894 722 q 913 718 903 718 q 935 724 925 718 q 943 743 946 731 q 953 737 951 744 q 951 724 956 729 q 931 713 949 715 q 903 715 914 710 q 900 698 906 708 q 889 688 894 688 q 881 697 882 688 q 872 690 876 692 q 864 696 867 689 m 836 692 q 854 713 849 700 q 851 720 854 721 q 843 714 847 719 q 837 701 839 708 q 836 692 835 694 m 868 681 q 856 678 864 681 q 863 667 857 668 q 872 668 868 665 q 876 675 876 671 q 868 681 876 679 m 1085 525 q 1071 518 1079 518 q 1058 525 1063 518 q 1053 541 1053 532 q 1057 557 1053 550 q 1069 567 1061 564 q 1085 564 1076 569 q 1085 572 1085 567 q 1085 580 1086 576 q 1083 586 1085 583 q 1075 588 1081 589 l 1075 590 l 1093 592 l 1094 590 l 1094 529 q 1096 525 1093 526 q 1101 524 1099 524 l 1101 521 l 1086 519 l 1085 521 l 1085 525 m 557 528 q 558 538 557 529 q 558 558 558 547 q 558 577 558 568 q 554 586 557 586 l 551 588 l 549 588 l 549 590 l 565 592 l 565 528 q 572 524 565 524 l 572 519 l 550 519 l 550 524 q 557 528 557 524 m 1117 578 q 1111 584 1111 578 q 1117 590 1111 590 q 1123 584 1124 590 q 1117 578 1122 578 m 979 579 l 979 565 l 992 565 l 992 561 l 979 561 l 979 536 q 982 526 978 529 q 993 525 986 522 l 993 522 q 977 519 982 517 q 971 530 972 522 q 970 547 969 538 q 971 561 971 556 l 963 561 l 963 565 l 971 565 l 971 579 l 979 579 m 1172 560 q 1176 533 1183 549 q 1156 518 1168 518 q 1140 525 1147 518 q 1135 552 1128 538 q 1157 567 1143 567 q 1172 560 1165 567 m 1292 560 q 1295 533 1303 549 q 1275 518 1288 518 q 1260 525 1267 518 q 1255 552 1247 538 q 1276 567 1263 567 q 1292 560 1285 567 m 507 539 q 518 544 510 543 q 531 549 526 546 q 527 561 532 556 q 515 561 522 567 q 514 551 517 553 q 508 552 511 550 q 506 558 506 554 q 517 565 507 563 q 535 563 532 569 q 539 548 539 557 q 539 531 539 539 q 547 524 539 524 l 547 521 q 537 519 542 518 q 531 525 532 519 q 515 519 525 519 q 505 526 508 518 q 507 539 501 533 m 894 546 q 903 549 903 549 q 900 561 906 556 q 888 561 894 567 q 886 551 889 553 q 881 552 883 550 q 880 558 879 554 q 889 565 881 563 q 908 563 904 569 q 911 548 911 557 q 911 531 911 539 q 919 524 911 524 l 919 521 q 910 519 915 518 q 904 525 904 519 l 903 525 q 889 518 896 518 q 876 531 878 518 q 894 546 875 543 m 651 546 q 660 549 660 549 q 656 561 661 556 q 644 561 651 567 q 643 551 646 553 q 638 552 640 550 q 635 558 635 554 q 646 565 636 563 q 665 563 661 569 q 668 548 668 557 q 667 531 668 539 q 675 524 667 524 l 675 521 q 666 519 671 518 q 660 525 661 519 q 646 518 653 518 q 633 531 635 518 q 651 546 632 543 m 775 556 q 781 565 776 563 q 793 567 786 567 q 805 563 800 567 q 808 551 810 560 q 808 534 811 544 q 817 524 806 524 l 817 521 q 806 519 811 518 q 800 525 801 519 q 785 518 790 518 q 773 531 774 518 q 800 549 772 543 q 797 561 801 556 q 785 561 792 567 q 783 551 788 554 q 775 556 778 549 m 1232 519 q 1217 525 1222 519 q 1210 538 1211 531 q 1213 553 1210 546 q 1224 565 1215 561 q 1241 565 1231 569 q 1246 551 1251 561 q 1238 551 1240 546 q 1238 561 1235 556 q 1223 558 1226 567 q 1222 538 1219 549 q 1231 523 1224 528 q 1247 532 1238 518 l 1250 531 q 1232 519 1242 518 m 954 542 q 956 526 961 535 q 942 519 951 518 q 935 519 939 518 q 929 522 932 521 l 928 519 l 925 519 l 924 536 l 928 536 q 940 522 928 525 q 950 533 953 519 q 938 540 946 540 q 926 547 929 540 q 931 564 921 558 q 950 564 942 569 l 951 567 l 956 567 l 956 553 l 953 553 q 942 563 953 563 q 933 553 931 564 q 943 547 936 549 q 954 542 950 546 m 601 503 l 601 500 l 576 500 l 576 503 q 585 507 585 503 l 585 556 q 576 563 585 563 l 576 565 l 592 567 l 593 565 l 593 560 q 608 567 603 567 q 622 557 618 567 q 624 537 626 547 q 615 521 622 526 q 593 522 607 515 q 593 508 593 515 q 601 503 593 501 m 678 503 q 685 504 685 503 q 686 507 686 507 l 686 556 q 678 563 686 563 l 678 565 l 694 567 l 694 560 q 710 567 704 567 q 724 557 719 567 q 726 537 728 547 q 716 521 724 526 q 694 522 708 515 q 694 508 694 515 q 704 503 694 501 l 704 500 l 678 500 l 678 503 m 835 567 l 836 565 l 836 558 q 854 567 843 568 q 864 551 865 565 q 864 535 865 547 q 871 524 863 522 l 871 519 l 849 519 l 849 524 q 856 528 856 524 q 855 544 854 532 q 853 558 856 556 q 844 560 850 563 q 836 554 839 558 q 835 535 838 549 q 843 524 833 522 l 843 519 l 821 519 l 821 524 q 828 528 828 524 q 827 536 826 531 q 828 548 828 542 q 826 558 828 554 q 819 563 825 563 l 819 565 l 835 567 m 1311 528 q 1311 545 1310 531 q 1308 561 1313 560 q 1306 562 1307 561 q 1304 563 1306 563 l 1304 565 l 1319 567 l 1319 558 q 1335 567 1325 565 q 1347 558 1344 568 q 1365 567 1354 568 q 1375 551 1376 565 q 1375 535 1376 547 q 1382 524 1374 522 l 1382 519 l 1360 519 l 1360 524 q 1367 535 1369 522 q 1367 551 1365 547 q 1360 561 1368 561 q 1347 554 1351 561 l 1347 528 q 1354 524 1347 524 l 1354 519 l 1332 519 l 1332 524 q 1340 535 1342 522 q 1339 551 1338 547 q 1331 561 1340 561 q 1319 554 1322 561 q 1319 547 1319 553 q 1319 536 1319 542 q 1321 526 1319 531 q 1326 524 1322 522 l 1326 519 l 1304 519 l 1304 524 q 1311 528 1311 524 m 735 524 q 740 525 739 524 q 741 540 742 525 q 740 556 740 554 q 733 563 740 563 l 733 565 l 749 567 l 750 565 l 750 558 q 763 567 753 567 q 768 556 772 567 q 761 554 765 551 q 760 561 757 557 q 750 554 753 561 l 750 528 q 758 524 749 524 l 758 519 l 735 519 l 735 524 m 1029 529 q 1031 533 1031 529 q 1031 542 1031 538 q 1031 552 1031 547 q 1031 557 1031 557 q 1022 563 1031 563 l 1022 565 l 1039 567 l 1039 529 q 1046 524 1039 524 l 1046 521 l 1032 519 l 1031 521 l 1031 526 q 1013 519 1024 518 q 1003 535 1001 521 q 1003 551 1001 539 q 996 563 1006 564 l 996 565 l 1011 567 l 1011 565 q 1011 554 1011 561 q 1012 540 1011 547 q 1014 528 1013 533 q 1019 524 1015 524 q 1029 529 1024 524 m 1113 528 q 1113 544 1113 531 q 1111 561 1114 558 q 1108 562 1110 561 q 1106 563 1107 563 l 1106 565 l 1121 567 l 1122 565 l 1122 528 q 1128 524 1121 524 l 1128 519 l 1107 519 l 1107 524 q 1113 528 1114 524 m 272 557 q 265 563 269 563 l 265 565 l 286 565 l 286 563 q 281 559 282 563 q 283 551 281 556 q 287 540 285 546 q 289 532 289 535 l 301 564 l 306 564 l 317 532 q 319 541 317 536 q 324 551 322 546 q 325 559 325 556 q 319 563 325 563 l 319 565 l 356 565 l 356 563 q 353 551 347 563 q 360 532 358 539 l 371 564 l 375 564 l 388 532 q 390 541 388 536 q 393 551 392 546 q 394 559 394 556 q 389 563 394 563 l 389 565 l 425 565 l 425 563 q 422 551 417 563 q 429 532 428 539 l 440 564 l 444 564 l 457 532 q 459 541 457 536 q 463 551 461 546 q 464 559 464 556 q 458 563 464 563 l 458 565 l 476 565 l 476 563 q 464 544 465 557 q 457 519 463 531 l 453 519 l 440 553 l 428 519 l 424 519 q 406 561 414 561 q 388 519 400 561 l 383 519 l 371 553 l 358 519 l 354 519 q 336 561 344 561 q 317 519 329 561 l 314 519 l 301 553 l 289 519 l 285 519 q 278 539 282 529 q 272 557 275 549 m 1144 550 q 1144 535 1143 543 q 1150 524 1144 528 q 1168 533 1165 518 q 1167 557 1171 547 q 1153 563 1161 567 q 1144 550 1144 560 m 1264 550 q 1263 535 1263 543 q 1269 524 1264 528 q 1287 533 1283 518 q 1286 557 1290 547 q 1272 563 1281 567 q 1264 550 1264 560 m 1063 551 q 1064 533 1060 543 q 1075 524 1068 524 q 1085 529 1081 524 l 1085 556 q 1073 563 1082 565 q 1063 551 1064 561 m 593 557 q 592 546 593 553 q 593 533 592 539 q 597 524 594 526 q 608 524 600 521 q 617 547 619 531 q 603 563 614 563 q 593 557 599 563 m 694 557 q 694 546 694 553 q 695 533 694 539 q 699 524 696 526 q 710 524 701 521 q 718 547 721 531 q 704 563 715 563 q 694 557 700 563 m 903 546 q 887 533 889 543 q 892 524 885 524 q 903 529 897 524 l 903 546 m 800 546 q 784 533 786 543 q 789 524 782 524 q 800 529 794 524 l 800 546 m 531 529 l 531 546 q 522 542 526 543 q 515 536 518 540 q 518 525 510 528 q 531 529 526 522 m 660 546 q 642 533 644 543 q 649 524 640 524 q 660 529 654 524 l 660 546 m 1194 519 q 1188 526 1188 519 q 1194 532 1188 532 q 1201 526 1201 532 q 1194 519 1201 519 m 488 519 q 481 526 481 519 q 488 532 481 532 q 494 526 494 532 q 488 519 494 519 m 736 401 l 736 408 l 913 408 l 913 401 l 736 401 m 1154 301 q 1165 278 1164 290 q 1160 255 1165 265 q 1144 238 1154 244 q 1122 232 1135 232 q 1094 243 1106 232 q 1084 267 1085 254 q 1089 290 1083 279 q 1104 306 1094 300 q 1126 313 1114 313 q 1154 301 1143 313 m 594 274 q 583 244 597 254 q 553 233 568 233 q 525 243 538 233 q 514 272 513 253 q 525 301 511 292 q 556 311 539 311 q 583 302 571 311 q 594 274 596 293 m 935 281 q 935 297 931 290 q 946 308 939 304 q 962 311 953 311 q 979 308 971 311 l 976 292 l 974 290 l 969 306 q 953 303 963 308 q 950 289 944 299 q 963 280 954 282 q 976 271 971 278 q 983 253 985 261 q 972 239 981 244 q 953 233 964 233 q 933 236 942 232 l 936 256 l 939 257 l 943 240 q 961 241 951 236 q 965 257 971 246 q 949 267 960 265 q 935 281 939 269 m 457 281 q 457 297 453 290 q 468 308 461 304 q 484 311 475 311 q 501 308 493 311 l 499 292 l 496 290 l 492 306 q 475 303 483 308 q 472 289 467 299 q 485 280 476 282 q 499 271 493 278 q 505 253 507 261 q 494 239 503 244 q 475 233 486 233 q 456 236 464 232 l 458 256 l 461 257 l 465 240 q 483 241 474 236 q 488 257 493 246 q 472 267 482 265 q 457 281 461 269 m 243 238 q 250 240 247 239 q 251 246 253 240 l 251 294 q 251 303 251 301 q 243 307 250 306 l 243 310 q 293 306 279 314 q 307 289 307 299 q 295 271 307 279 q 268 267 283 263 l 268 242 q 272 239 268 239 q 278 238 276 239 l 278 235 l 243 235 l 243 238 m 757 238 l 757 235 l 724 235 l 724 238 q 731 246 735 239 q 725 258 726 253 l 703 258 q 697 245 701 253 q 704 238 693 238 l 704 235 l 679 235 l 679 238 q 690 246 689 240 l 717 311 l 722 311 l 746 246 q 757 238 747 240 m 378 238 q 386 242 386 239 q 386 251 386 244 l 386 294 q 385 303 386 301 q 378 307 385 306 l 378 310 q 406 310 390 308 q 432 306 421 313 q 439 287 443 299 q 422 272 435 275 q 435 251 431 263 q 451 238 439 240 l 451 235 q 431 235 438 231 q 422 245 425 239 q 415 258 418 251 q 403 269 411 265 q 402 256 403 264 q 403 242 401 247 q 404 239 401 239 q 410 238 407 239 l 410 235 l 378 235 l 378 238 m 1282 294 l 1282 240 l 1303 240 l 1311 256 l 1314 257 l 1313 235 l 1258 235 l 1258 238 q 1266 242 1265 239 q 1267 251 1267 244 l 1267 294 q 1266 303 1267 301 q 1258 307 1265 306 l 1258 310 l 1290 310 l 1290 307 q 1283 303 1283 306 q 1282 294 1282 301 m 1354 310 l 1378 310 l 1379 307 q 1371 302 1375 307 q 1363 291 1367 297 q 1357 278 1360 285 q 1351 269 1354 272 l 1351 242 q 1354 239 1351 239 q 1358 238 1357 239 l 1360 235 l 1326 235 l 1326 238 q 1331 239 1328 239 q 1335 242 1335 239 l 1335 268 q 1330 278 1333 271 q 1323 291 1326 285 q 1315 302 1319 297 q 1306 307 1310 307 l 1306 310 l 1340 310 l 1342 307 q 1336 297 1331 306 l 1349 275 l 1358 296 q 1354 307 1364 306 l 1354 310 m 1038 240 l 1044 254 l 1047 256 l 1046 235 l 992 235 l 990 238 q 999 242 999 239 q 1000 251 1000 244 l 1000 294 q 999 303 1000 301 q 992 307 999 306 l 990 310 l 1046 310 l 1043 292 l 1040 292 l 1036 304 l 1015 304 l 1015 276 q 1026 276 1022 276 q 1032 285 1031 275 l 1036 285 l 1036 263 l 1032 261 q 1026 271 1031 272 q 1015 271 1022 269 l 1015 240 l 1038 240 m 914 310 l 926 310 l 926 307 q 917 295 917 307 q 917 270 917 283 q 913 245 918 257 q 888 233 908 233 q 860 244 865 233 q 855 269 854 256 q 856 295 856 283 q 847 307 857 307 l 847 310 l 879 310 l 881 307 q 872 303 874 306 q 871 294 871 301 q 872 269 872 286 q 876 244 871 251 q 893 239 886 239 q 904 245 900 239 q 910 260 908 251 q 910 278 911 268 q 910 294 910 288 q 909 303 910 301 q 901 307 908 306 l 901 310 l 914 310 m 1174 307 l 1174 310 l 1194 310 q 1202 301 1196 308 q 1215 284 1208 293 q 1228 267 1222 275 q 1235 260 1235 260 l 1235 294 q 1234 303 1235 301 q 1226 307 1233 306 l 1226 310 l 1250 310 l 1250 307 q 1242 303 1243 306 q 1242 294 1242 301 l 1242 235 l 1235 235 q 1227 245 1235 236 q 1211 265 1219 254 q 1196 284 1203 275 q 1189 293 1189 293 l 1189 251 q 1189 242 1189 244 q 1197 238 1189 239 l 1197 235 l 1174 235 l 1174 238 q 1181 242 1181 239 q 1182 251 1182 244 l 1182 294 q 1181 303 1182 301 q 1174 307 1181 306 m 367 235 l 311 235 l 311 238 q 318 240 315 239 q 319 246 321 240 l 319 294 q 319 303 321 301 q 311 307 318 306 l 311 310 l 367 310 l 364 292 l 360 292 l 357 304 l 336 304 l 336 276 q 347 276 343 276 q 353 285 351 275 l 357 285 q 356 273 356 276 q 357 263 356 269 l 353 261 q 347 271 351 272 q 336 271 343 269 l 336 240 l 358 240 l 364 254 l 368 256 l 367 235 m 815 235 l 761 235 l 761 238 q 769 242 769 239 q 769 251 769 244 l 769 294 q 769 303 769 301 q 761 307 768 306 l 761 310 l 793 310 l 793 307 q 786 303 786 306 q 786 294 786 301 q 785 267 786 288 q 786 240 785 247 l 807 240 l 814 256 l 817 257 l 815 235 m 603 238 q 608 239 604 239 q 611 242 611 239 l 611 294 q 610 303 611 301 q 603 307 610 306 l 603 310 l 624 310 q 631 301 625 308 q 644 284 638 293 q 658 267 651 275 q 664 260 664 260 l 664 294 q 663 303 664 301 q 656 307 663 306 l 656 310 l 679 310 l 681 307 q 672 303 674 306 q 671 294 671 301 l 671 235 l 665 235 q 657 245 664 236 q 642 265 650 254 q 626 284 633 275 q 618 293 618 293 l 618 251 q 619 242 618 244 q 626 238 619 239 l 626 235 l 603 235 l 603 238 m 1393 257 l 1388 308 l 1404 308 l 1397 257 l 1393 257 m 1107 299 q 1102 281 1103 292 q 1103 261 1101 271 q 1111 244 1106 251 q 1125 238 1117 238 q 1142 246 1133 238 q 1147 263 1146 253 q 1146 283 1149 274 q 1138 300 1143 293 q 1125 307 1133 307 q 1107 299 1115 307 m 571 246 q 576 263 575 253 q 575 283 578 274 q 567 300 572 293 q 554 307 563 307 q 536 299 544 307 q 531 281 532 292 q 533 261 531 271 q 540 244 535 251 q 554 238 546 238 q 571 246 563 238 m 268 272 q 283 274 278 268 q 289 288 289 281 q 284 301 289 296 q 268 304 279 307 l 268 272 m 403 275 q 417 278 413 272 q 422 290 422 283 q 417 302 422 297 q 403 304 413 307 l 403 275 m 722 264 q 718 277 721 267 q 714 290 715 288 q 710 277 713 288 q 706 264 707 267 l 722 264 m 1396 250 q 1403 242 1403 250 q 1396 233 1403 233 q 1388 242 1388 233 q 1396 250 1388 250 m 775 129 q 788 132 779 129 l 788 129 q 768 124 778 124 q 747 135 754 124 q 742 158 740 146 q 755 178 744 169 q 786 181 765 186 l 786 179 l 785 165 l 782 165 l 779 176 q 760 173 767 181 q 753 156 754 165 q 758 138 753 146 q 775 129 764 129 m 1146 129 q 1157 132 1149 129 l 1158 129 q 1139 124 1149 124 q 1118 135 1125 124 q 1113 158 1111 146 q 1126 178 1115 169 q 1157 181 1136 186 l 1157 179 l 1154 165 l 1153 165 l 1150 176 q 1131 173 1138 181 q 1124 156 1125 165 q 1129 138 1124 146 q 1146 129 1135 129 m 822 182 q 844 174 838 183 q 850 153 850 164 q 842 132 850 142 q 819 124 835 122 q 799 133 806 124 q 792 153 792 142 q 800 174 792 165 q 822 182 808 183 m 629 182 q 651 174 644 183 q 657 153 657 164 q 649 132 657 142 q 626 124 642 122 q 606 133 613 124 q 599 153 599 142 q 607 174 599 165 q 629 182 615 183 m 451 182 q 474 174 467 183 q 481 153 481 164 q 473 132 481 142 q 450 124 465 122 q 428 133 436 124 q 422 153 421 142 q 430 174 422 165 q 451 182 438 183 m 1243 129 l 1247 125 l 1222 125 l 1222 128 q 1226 133 1229 128 q 1224 143 1224 139 l 1207 143 q 1203 133 1206 139 q 1208 128 1200 128 l 1208 125 l 1190 125 l 1190 128 q 1197 133 1197 128 l 1218 181 l 1222 182 q 1225 172 1222 181 q 1231 153 1228 163 q 1238 137 1235 144 q 1243 129 1242 129 m 718 128 l 718 125 q 703 126 708 124 q 696 134 699 129 q 691 144 693 139 q 682 151 689 149 q 683 137 685 146 q 688 128 681 128 l 688 125 l 664 125 l 664 128 q 671 130 671 128 q 671 138 671 132 l 671 172 q 669 177 672 176 q 664 179 667 178 l 664 181 q 685 181 674 179 q 704 178 697 182 q 710 163 713 172 q 697 153 707 154 q 706 138 703 146 q 718 128 710 131 m 1108 128 l 1111 128 l 1111 125 q 1097 126 1101 124 q 1089 134 1092 129 q 1083 144 1086 139 q 1075 151 1081 149 q 1074 137 1076 146 q 1079 128 1072 128 l 1079 125 l 1057 125 l 1057 128 q 1063 130 1063 128 q 1063 138 1063 132 l 1063 172 q 1062 177 1064 176 q 1057 179 1060 178 l 1057 181 q 1077 181 1065 179 q 1097 178 1089 182 q 1101 163 1104 172 q 1090 153 1099 154 q 1099 138 1096 146 q 1108 128 1101 131 m 514 181 l 532 181 l 533 181 l 531 165 l 528 165 l 525 176 l 514 176 l 514 138 q 515 130 514 131 q 521 128 515 129 l 522 125 l 496 125 l 494 128 q 499 128 496 128 q 503 131 503 129 l 503 176 l 492 176 l 488 165 l 485 165 l 485 181 l 514 181 m 926 179 q 922 178 925 178 q 919 176 919 178 l 919 138 q 919 130 919 132 q 926 128 919 128 l 926 125 l 903 125 l 903 128 q 908 133 907 128 q 908 146 908 139 q 908 160 908 153 q 908 171 907 168 q 904 163 907 169 q 899 148 901 156 q 893 134 896 140 q 889 125 890 128 l 886 125 q 882 134 885 128 q 876 148 879 140 q 871 162 874 156 q 868 169 868 168 q 869 160 869 167 q 868 146 868 153 q 869 133 868 139 q 874 128 869 128 l 874 125 l 857 125 l 857 128 q 863 131 863 129 q 863 138 863 132 l 863 169 q 857 179 864 178 l 857 181 l 875 181 q 878 174 875 179 q 883 161 881 168 q 888 148 886 154 q 890 142 890 142 q 893 148 890 142 q 899 161 896 154 q 904 174 901 168 q 907 181 907 179 l 925 181 l 926 179 m 1189 179 q 1183 177 1186 178 q 1182 172 1181 176 l 1182 138 q 1182 131 1182 133 q 1189 128 1182 128 l 1189 125 l 1164 125 l 1164 128 q 1171 130 1171 128 q 1171 138 1171 132 l 1171 172 q 1169 177 1172 176 q 1164 179 1167 178 l 1164 181 l 1189 181 l 1189 179 m 407 181 l 415 181 l 415 179 q 410 169 408 178 l 410 125 l 404 125 q 399 133 404 126 q 387 147 393 139 q 376 161 381 154 q 371 168 371 168 l 371 138 q 371 130 371 132 q 376 128 371 128 l 376 125 l 360 125 l 360 128 q 365 131 365 129 q 365 138 365 132 l 365 169 q 365 176 365 175 q 360 179 365 178 l 360 181 l 375 181 q 380 174 375 179 q 390 161 385 168 q 399 149 394 154 q 404 143 404 143 l 404 169 q 399 179 404 178 l 397 181 l 407 181 m 1283 129 l 1290 142 l 1290 126 l 1289 125 l 1250 125 l 1250 128 q 1256 131 1256 128 q 1256 138 1256 133 l 1256 169 q 1256 176 1256 174 q 1250 179 1256 178 l 1250 181 l 1274 181 l 1274 179 q 1268 176 1268 178 q 1268 169 1268 174 l 1268 129 l 1283 129 m 575 181 l 594 181 l 592 167 l 590 167 l 588 176 l 572 176 l 572 154 q 581 155 578 156 q 585 161 583 154 l 588 161 l 588 144 l 585 144 q 581 151 583 151 q 572 151 578 150 l 572 131 q 575 128 572 129 q 579 128 578 128 l 579 125 l 554 125 l 554 128 q 561 131 561 129 q 561 138 561 132 l 561 172 q 560 177 563 176 q 554 179 557 178 l 554 181 l 575 181 m 1008 181 l 1049 181 l 1046 167 l 1044 167 l 1042 176 l 1026 176 l 1026 156 q 1035 156 1032 156 q 1039 163 1038 156 l 1042 163 q 1042 146 1040 153 l 1039 144 q 1035 151 1038 151 q 1026 151 1032 151 l 1026 129 l 1042 129 l 1047 140 l 1050 140 l 1049 126 l 1049 125 l 1008 125 l 1008 128 q 1014 130 1014 128 q 1014 138 1014 132 l 1014 172 q 1013 177 1015 176 q 1008 179 1011 178 l 1008 181 m 1001 179 q 997 178 1000 178 q 994 176 994 178 l 994 138 q 994 130 994 132 q 1001 128 994 128 l 1001 125 l 978 125 l 978 128 q 983 133 982 128 q 983 146 983 139 q 983 160 983 153 q 983 171 982 168 q 981 163 983 169 q 974 148 978 156 q 968 134 971 140 q 965 125 965 128 l 961 125 q 958 134 961 128 q 952 148 956 140 q 946 162 949 156 q 943 169 943 168 q 944 160 944 167 q 943 146 943 153 q 944 133 943 139 q 949 128 944 128 l 949 125 l 932 125 l 932 128 q 939 131 939 129 q 939 138 939 132 l 939 169 q 932 179 939 178 l 932 181 l 951 181 q 953 174 951 179 q 958 161 956 168 q 964 148 961 154 q 967 142 967 142 q 969 148 967 142 q 974 161 971 154 q 979 174 976 168 q 982 181 982 179 l 1001 181 l 1001 179 m 464 133 q 467 162 471 144 q 451 179 463 179 q 439 172 446 179 q 436 144 432 161 q 451 128 440 128 q 464 133 458 128 m 640 133 q 643 162 647 144 q 628 179 639 179 q 615 172 622 179 q 613 144 608 161 q 628 128 617 128 q 640 133 635 128 m 833 133 q 836 162 840 144 q 821 179 832 179 q 808 172 815 179 q 806 144 801 161 q 821 128 810 128 q 833 133 828 128 m 694 157 q 697 172 700 164 q 682 176 693 179 l 682 154 q 694 157 692 154 m 1086 157 q 1088 172 1092 164 q 1075 176 1085 179 l 1075 154 q 1086 157 1085 154 m 1222 147 q 1219 156 1221 150 q 1215 165 1217 163 q 1212 156 1214 163 q 1208 147 1210 150 l 1222 147 z "},"2":{"ha":1596,"x_min":149,"x_max":1499,"o":"m 1499 949 l 1499 0 l 149 0 l 149 949 l 1499 949 m 1479 929 l 168 929 l 168 19 l 1479 19 l 1479 929 m 797 796 q 782 806 783 800 q 786 817 781 813 q 802 826 792 822 q 824 829 813 829 q 847 824 836 829 q 857 803 857 818 q 871 793 869 800 q 869 778 872 786 q 862 762 867 769 q 858 747 857 754 q 878 744 863 742 q 907 747 893 746 q 928 746 921 749 q 926 728 936 743 q 910 736 924 738 q 888 736 897 735 q 890 731 892 732 q 883 721 881 724 q 877 728 876 724 q 882 736 878 733 q 875 738 878 736 q 864 713 869 724 q 856 686 858 703 q 876 685 869 689 q 882 675 882 681 q 877 665 882 669 q 865 660 872 660 q 847 675 856 660 q 828 667 840 672 q 806 663 817 663 q 793 682 788 663 q 808 674 797 674 q 828 678 818 674 q 846 685 839 682 q 847 691 847 688 q 849 697 847 694 q 835 689 842 688 q 829 701 829 690 q 817 691 825 690 q 813 703 810 692 q 801 688 806 696 q 788 686 796 679 q 788 697 786 690 q 793 708 790 703 q 798 717 796 714 q 800 721 800 721 q 805 717 806 721 q 801 707 804 713 q 796 696 799 701 q 794 689 793 690 q 807 703 797 690 q 821 724 817 717 q 825 719 825 722 q 824 711 825 715 q 820 703 822 707 q 819 697 818 699 q 828 706 822 697 q 839 719 835 714 q 849 725 843 725 q 857 718 854 725 q 863 731 860 725 q 868 739 865 736 q 851 751 851 743 q 857 769 851 760 q 865 785 863 778 q 857 794 868 793 q 847 760 854 776 q 833 749 840 743 q 846 769 840 756 q 851 796 851 783 q 824 795 839 796 q 797 796 810 794 m 896 797 q 880 807 882 796 q 881 824 878 818 q 891 815 883 818 q 909 812 899 813 q 931 813 919 811 q 950 814 942 814 q 993 809 976 819 q 1015 783 1010 799 q 1012 753 1019 768 q 983 732 1004 738 q 960 744 968 732 q 957 771 953 757 q 950 758 954 765 q 940 749 946 751 q 933 760 931 749 q 927 764 928 757 q 926 775 926 771 q 921 769 925 775 q 912 758 917 763 q 903 751 907 753 q 900 758 900 750 q 890 756 894 751 q 889 768 886 761 q 884 760 888 765 q 878 753 881 756 q 872 750 875 750 q 867 757 868 750 q 875 776 868 764 q 889 788 882 788 q 897 782 893 788 q 899 773 904 779 q 896 760 894 767 q 902 767 899 761 q 910 778 906 772 q 917 790 914 785 q 921 794 919 794 q 924 788 925 793 q 921 778 924 783 q 914 769 918 774 q 910 763 910 765 q 919 774 914 768 q 927 782 924 779 q 933 781 931 785 q 933 765 935 778 q 944 778 939 769 q 956 788 949 788 q 964 785 956 788 q 968 780 968 785 q 966 769 968 775 q 963 756 964 763 q 965 746 961 750 q 982 740 972 738 q 997 751 992 743 q 1003 794 1017 783 q 965 804 990 804 q 928 801 947 804 q 896 797 908 799 m 663 710 q 635 724 642 713 q 634 747 629 735 q 653 765 639 758 q 683 764 667 772 q 698 783 690 774 q 713 803 706 793 q 683 797 700 804 q 672 774 667 790 q 661 777 665 772 q 660 788 657 782 q 685 807 665 803 q 719 804 706 811 q 713 774 724 789 q 704 742 703 758 q 727 778 717 760 q 747 817 738 797 q 748 798 754 813 q 733 765 742 783 q 722 729 725 746 q 732 704 718 713 q 717 708 722 703 q 712 721 713 713 q 713 738 711 729 q 718 753 715 747 q 709 741 714 749 q 697 740 704 733 q 692 751 694 746 q 683 758 690 756 q 671 744 678 753 q 657 742 664 735 q 658 746 653 746 q 669 749 664 743 q 679 760 675 756 q 651 752 665 763 q 642 726 636 742 q 655 719 647 719 q 670 719 663 718 q 686 719 678 719 q 700 715 694 719 q 709 701 708 711 q 699 689 710 690 q 688 706 703 703 q 663 710 672 708 m 850 804 q 828 817 846 817 q 806 813 817 817 q 793 804 794 808 q 803 803 796 803 q 819 803 811 803 q 837 805 828 804 q 850 804 846 806 m 714 797 q 703 783 711 793 q 688 763 696 772 q 692 758 690 760 q 696 756 694 757 q 706 780 699 765 q 714 797 713 794 m 735 719 q 728 734 724 722 q 738 757 733 746 q 743 769 740 764 q 749 782 746 775 q 754 794 751 788 q 758 785 763 793 q 753 774 754 778 q 771 789 764 789 q 774 782 775 789 q 771 767 774 775 q 763 753 768 760 q 751 746 757 746 q 743 751 747 746 q 735 719 735 726 m 739 689 q 728 675 726 679 q 738 672 731 671 q 749 678 744 672 q 744 697 753 685 q 738 715 738 706 q 744 731 739 724 q 756 742 749 738 q 771 747 764 747 q 782 724 786 747 q 785 725 783 725 q 788 726 786 725 q 794 740 790 732 q 804 757 799 747 q 795 758 797 753 q 796 768 793 763 q 791 760 794 765 q 784 753 788 756 q 777 750 781 750 q 772 757 774 750 q 781 776 775 764 q 794 788 788 788 q 803 782 799 788 q 805 773 810 779 q 801 760 800 767 q 808 767 804 761 q 815 778 811 772 q 821 790 818 785 q 824 794 824 794 q 828 788 831 792 q 824 776 826 783 q 839 789 835 789 q 842 782 843 789 q 839 767 842 775 q 831 753 836 760 q 819 746 825 746 q 810 753 814 746 q 805 742 807 747 q 800 732 803 738 q 819 739 810 735 q 836 743 829 743 q 847 729 849 743 q 824 732 838 736 q 794 722 810 728 q 781 692 788 708 q 782 667 775 675 q 770 674 772 668 q 770 689 768 681 q 776 705 772 697 q 783 717 781 713 q 772 709 778 714 q 761 704 767 704 q 754 715 756 704 q 775 726 769 714 q 772 739 781 739 q 758 731 769 739 q 750 710 747 721 q 757 690 753 699 q 759 673 761 681 q 738 661 757 665 q 725 666 729 661 q 721 677 721 671 q 724 688 721 683 q 732 693 728 693 q 740 689 736 693 l 739 689 m 768 783 q 760 774 767 783 q 746 756 753 765 q 751 752 747 750 q 759 760 756 754 q 765 774 763 767 q 768 783 768 781 m 813 758 l 813 757 q 817 751 814 751 q 829 765 822 751 q 836 783 836 778 q 826 775 833 783 q 813 758 819 767 m 792 768 q 797 776 794 772 q 800 782 799 779 q 794 781 797 785 q 787 772 790 778 q 781 760 783 767 q 779 753 779 754 q 785 759 781 753 q 792 768 789 765 m 885 768 q 894 781 893 779 q 888 781 892 785 q 881 772 885 778 q 876 760 878 767 q 874 753 874 754 q 879 759 875 753 q 885 768 883 765 m 951 768 q 956 776 954 772 q 961 781 958 779 q 955 781 958 785 q 948 772 951 778 q 942 760 944 767 q 940 753 940 754 q 945 759 942 753 q 951 768 949 765 m 864 696 q 869 715 863 704 q 875 724 876 725 q 879 715 882 724 q 874 704 878 713 q 871 694 871 696 q 882 708 875 694 q 892 721 889 721 q 896 717 892 721 q 889 692 882 692 q 897 699 892 692 q 899 715 901 707 l 894 722 q 913 718 903 718 q 935 724 925 718 q 943 743 946 731 q 953 737 951 744 q 951 724 956 729 q 931 713 949 715 q 903 715 914 710 q 900 698 906 708 q 889 688 894 688 q 881 697 882 688 q 872 690 876 692 q 864 696 867 689 m 836 692 q 854 713 849 700 q 851 720 854 721 q 843 714 847 719 q 837 701 839 708 q 836 692 835 694 m 868 681 q 856 678 864 681 q 863 667 857 668 q 872 668 868 665 q 876 675 876 671 q 868 681 876 679 m 1085 525 q 1071 518 1079 518 q 1058 525 1063 518 q 1053 541 1053 532 q 1057 557 1053 550 q 1069 567 1061 564 q 1085 564 1076 569 q 1085 572 1085 567 q 1085 580 1086 576 q 1083 586 1085 583 q 1075 588 1081 589 l 1075 590 l 1093 592 l 1094 590 l 1094 529 q 1096 525 1093 526 q 1101 524 1099 524 l 1101 521 l 1086 519 l 1085 521 l 1085 525 m 557 528 q 558 538 557 529 q 558 558 558 547 q 558 577 558 568 q 554 586 557 586 l 551 588 l 549 588 l 549 590 l 565 592 l 565 528 q 572 524 565 524 l 572 519 l 550 519 l 550 524 q 557 528 557 524 m 1117 578 q 1111 584 1111 578 q 1117 590 1111 590 q 1123 584 1124 590 q 1117 578 1122 578 m 979 579 l 979 565 l 992 565 l 992 561 l 979 561 l 979 536 q 982 526 978 529 q 993 525 986 522 l 993 522 q 977 519 982 517 q 971 530 972 522 q 970 547 969 538 q 971 561 971 556 l 963 561 l 963 565 l 971 565 l 971 579 l 979 579 m 1172 560 q 1176 533 1183 549 q 1156 518 1168 518 q 1140 525 1147 518 q 1135 552 1128 538 q 1157 567 1143 567 q 1172 560 1165 567 m 1292 560 q 1295 533 1303 549 q 1275 518 1288 518 q 1260 525 1267 518 q 1255 552 1247 538 q 1276 567 1263 567 q 1292 560 1285 567 m 507 539 q 518 544 510 543 q 531 549 526 546 q 527 561 532 556 q 515 561 522 567 q 514 551 517 553 q 508 552 511 550 q 506 558 506 554 q 517 565 507 563 q 535 563 532 569 q 539 548 539 557 q 539 531 539 539 q 547 524 539 524 l 547 521 q 537 519 542 518 q 531 525 532 519 q 515 519 525 519 q 505 526 508 518 q 507 539 501 533 m 894 546 q 903 549 903 549 q 900 561 906 556 q 888 561 894 567 q 886 551 889 553 q 881 552 883 550 q 880 558 879 554 q 889 565 881 563 q 908 563 904 569 q 911 548 911 557 q 911 531 911 539 q 919 524 911 524 l 919 521 q 910 519 915 518 q 904 525 904 519 l 903 525 q 889 518 896 518 q 876 531 878 518 q 894 546 875 543 m 651 546 q 660 549 660 549 q 656 561 661 556 q 644 561 651 567 q 643 551 646 553 q 638 552 640 550 q 635 558 635 554 q 646 565 636 563 q 665 563 661 569 q 668 548 668 557 q 667 531 668 539 q 675 524 667 524 l 675 521 q 666 519 671 518 q 660 525 661 519 q 646 518 653 518 q 633 531 635 518 q 651 546 632 543 m 775 556 q 781 565 776 563 q 793 567 786 567 q 805 563 800 567 q 808 551 810 560 q 808 534 811 544 q 817 524 806 524 l 817 521 q 806 519 811 518 q 800 525 801 519 q 785 518 790 518 q 773 531 774 518 q 800 549 772 543 q 797 561 801 556 q 785 561 792 567 q 783 551 788 554 q 775 556 778 549 m 1232 519 q 1217 525 1222 519 q 1210 538 1211 531 q 1213 553 1210 546 q 1224 565 1215 561 q 1241 565 1231 569 q 1246 551 1251 561 q 1238 551 1240 546 q 1238 561 1235 556 q 1223 558 1226 567 q 1222 538 1219 549 q 1231 523 1224 528 q 1247 532 1238 518 l 1250 531 q 1232 519 1242 518 m 954 542 q 956 526 961 535 q 942 519 951 518 q 935 519 939 518 q 929 522 932 521 l 928 519 l 925 519 l 924 536 l 928 536 q 940 522 928 525 q 950 533 953 519 q 938 540 946 540 q 926 547 929 540 q 931 564 921 558 q 950 564 942 569 l 951 567 l 956 567 l 956 553 l 953 553 q 942 563 953 563 q 933 553 931 564 q 943 547 936 549 q 954 542 950 546 m 601 503 l 601 500 l 576 500 l 576 503 q 585 507 585 503 l 585 556 q 576 563 585 563 l 576 565 l 592 567 l 593 565 l 593 560 q 608 567 603 567 q 622 557 618 567 q 624 537 626 547 q 615 521 622 526 q 593 522 607 515 q 593 508 593 515 q 601 503 593 501 m 678 503 q 685 504 685 503 q 686 507 686 507 l 686 556 q 678 563 686 563 l 678 565 l 694 567 l 694 560 q 710 567 704 567 q 724 557 719 567 q 726 537 728 547 q 716 521 724 526 q 694 522 708 515 q 694 508 694 515 q 704 503 694 501 l 704 500 l 678 500 l 678 503 m 835 567 l 836 565 l 836 558 q 854 567 843 568 q 864 551 865 565 q 864 535 865 547 q 871 524 863 522 l 871 519 l 849 519 l 849 524 q 856 528 856 524 q 855 544 854 532 q 853 558 856 556 q 844 560 850 563 q 836 554 839 558 q 835 535 838 549 q 843 524 833 522 l 843 519 l 821 519 l 821 524 q 828 528 828 524 q 827 536 826 531 q 828 548 828 542 q 826 558 828 554 q 819 563 825 563 l 819 565 l 835 567 m 1311 528 q 1311 545 1310 531 q 1308 561 1313 560 q 1306 562 1307 561 q 1304 563 1306 563 l 1304 565 l 1319 567 l 1319 558 q 1335 567 1325 565 q 1347 558 1344 568 q 1365 567 1354 568 q 1375 551 1376 565 q 1375 535 1376 547 q 1382 524 1374 522 l 1382 519 l 1360 519 l 1360 524 q 1367 535 1369 522 q 1367 551 1365 547 q 1360 561 1368 561 q 1347 554 1351 561 l 1347 528 q 1354 524 1347 524 l 1354 519 l 1332 519 l 1332 524 q 1340 535 1342 522 q 1339 551 1338 547 q 1331 561 1340 561 q 1319 554 1322 561 q 1319 547 1319 553 q 1319 536 1319 542 q 1321 526 1319 531 q 1326 524 1322 522 l 1326 519 l 1304 519 l 1304 524 q 1311 528 1311 524 m 735 524 q 740 525 739 524 q 741 540 742 525 q 740 556 740 554 q 733 563 740 563 l 733 565 l 749 567 l 750 565 l 750 558 q 763 567 753 567 q 768 556 772 567 q 761 554 765 551 q 760 561 757 557 q 750 554 753 561 l 750 528 q 758 524 749 524 l 758 519 l 735 519 l 735 524 m 1029 529 q 1031 533 1031 529 q 1031 542 1031 538 q 1031 552 1031 547 q 1031 557 1031 557 q 1022 563 1031 563 l 1022 565 l 1039 567 l 1039 529 q 1046 524 1039 524 l 1046 521 l 1032 519 l 1031 521 l 1031 526 q 1013 519 1024 518 q 1003 535 1001 521 q 1003 551 1001 539 q 996 563 1006 564 l 996 565 l 1011 567 l 1011 565 q 1011 554 1011 561 q 1012 540 1011 547 q 1014 528 1013 533 q 1019 524 1015 524 q 1029 529 1024 524 m 1113 528 q 1113 544 1113 531 q 1111 561 1114 558 q 1108 562 1110 561 q 1106 563 1107 563 l 1106 565 l 1121 567 l 1122 565 l 1122 528 q 1128 524 1121 524 l 1128 519 l 1107 519 l 1107 524 q 1113 528 1114 524 m 272 557 q 265 563 269 563 l 265 565 l 286 565 l 286 563 q 281 559 282 563 q 283 551 281 556 q 287 540 285 546 q 289 532 289 535 l 301 564 l 306 564 l 317 532 q 319 541 317 536 q 324 551 322 546 q 325 559 325 556 q 319 563 325 563 l 319 565 l 356 565 l 356 563 q 353 551 347 563 q 360 532 358 539 l 371 564 l 375 564 l 388 532 q 390 541 388 536 q 393 551 392 546 q 394 559 394 556 q 389 563 394 563 l 389 565 l 425 565 l 425 563 q 422 551 417 563 q 429 532 428 539 l 440 564 l 444 564 l 457 532 q 459 541 457 536 q 463 551 461 546 q 464 559 464 556 q 458 563 464 563 l 458 565 l 476 565 l 476 563 q 464 544 465 557 q 457 519 463 531 l 453 519 l 440 553 l 428 519 l 424 519 q 406 561 414 561 q 388 519 400 561 l 383 519 l 371 553 l 358 519 l 354 519 q 336 561 344 561 q 317 519 329 561 l 314 519 l 301 553 l 289 519 l 285 519 q 278 539 282 529 q 272 557 275 549 m 1144 550 q 1144 535 1143 543 q 1150 524 1144 528 q 1168 533 1165 518 q 1167 557 1171 547 q 1153 563 1161 567 q 1144 550 1144 560 m 1264 550 q 1263 535 1263 543 q 1269 524 1264 528 q 1287 533 1283 518 q 1286 557 1290 547 q 1272 563 1281 567 q 1264 550 1264 560 m 1063 551 q 1064 533 1060 543 q 1075 524 1068 524 q 1085 529 1081 524 l 1085 556 q 1073 563 1082 565 q 1063 551 1064 561 m 593 557 q 592 546 593 553 q 593 533 592 539 q 597 524 594 526 q 608 524 600 521 q 617 547 619 531 q 603 563 614 563 q 593 557 599 563 m 694 557 q 694 546 694 553 q 695 533 694 539 q 699 524 696 526 q 710 524 701 521 q 718 547 721 531 q 704 563 715 563 q 694 557 700 563 m 903 546 q 887 533 889 543 q 892 524 885 524 q 903 529 897 524 l 903 546 m 800 546 q 784 533 786 543 q 789 524 782 524 q 800 529 794 524 l 800 546 m 531 529 l 531 546 q 522 542 526 543 q 515 536 518 540 q 518 525 510 528 q 531 529 526 522 m 660 546 q 642 533 644 543 q 649 524 640 524 q 660 529 654 524 l 660 546 m 1194 519 q 1188 526 1188 519 q 1194 532 1188 532 q 1201 526 1201 532 q 1194 519 1201 519 m 488 519 q 481 526 481 519 q 488 532 481 532 q 494 526 494 532 q 488 519 494 519 m 736 401 l 736 408 l 913 408 l 913 401 l 736 401 m 1154 301 q 1165 278 1164 290 q 1160 255 1165 265 q 1144 238 1154 244 q 1122 232 1135 232 q 1094 243 1106 232 q 1084 267 1085 254 q 1089 290 1083 279 q 1104 306 1094 300 q 1126 313 1114 313 q 1154 301 1143 313 m 594 274 q 583 244 597 254 q 553 233 568 233 q 525 243 538 233 q 514 272 513 253 q 525 301 511 292 q 556 311 539 311 q 583 302 571 311 q 594 274 596 293 m 935 281 q 935 297 931 290 q 946 308 939 304 q 962 311 953 311 q 979 308 971 311 l 976 292 l 974 290 l 969 306 q 953 303 963 308 q 950 289 944 299 q 963 280 954 282 q 976 271 971 278 q 983 253 985 261 q 972 239 981 244 q 953 233 964 233 q 933 236 942 232 l 936 256 l 939 257 l 943 240 q 961 241 951 236 q 965 257 971 246 q 949 267 960 265 q 935 281 939 269 m 457 281 q 457 297 453 290 q 468 308 461 304 q 484 311 475 311 q 501 308 493 311 l 499 292 l 496 290 l 492 306 q 475 303 483 308 q 472 289 467 299 q 485 280 476 282 q 499 271 493 278 q 505 253 507 261 q 494 239 503 244 q 475 233 486 233 q 456 236 464 232 l 458 256 l 461 257 l 465 240 q 483 241 474 236 q 488 257 493 246 q 472 267 482 265 q 457 281 461 269 m 243 238 q 250 240 247 239 q 251 246 253 240 l 251 294 q 251 303 251 301 q 243 307 250 306 l 243 310 q 293 306 279 314 q 307 289 307 299 q 295 271 307 279 q 268 267 283 263 l 268 242 q 272 239 268 239 q 278 238 276 239 l 278 235 l 243 235 l 243 238 m 757 238 l 757 235 l 724 235 l 724 238 q 731 246 735 239 q 725 258 726 253 l 703 258 q 697 245 701 253 q 704 238 693 238 l 704 235 l 679 235 l 679 238 q 690 246 689 240 l 717 311 l 722 311 l 746 246 q 757 238 747 240 m 378 238 q 386 242 386 239 q 386 251 386 244 l 386 294 q 385 303 386 301 q 378 307 385 306 l 378 310 q 406 310 390 308 q 432 306 421 313 q 439 287 443 299 q 422 272 435 275 q 435 251 431 263 q 451 238 439 240 l 451 235 q 431 235 438 231 q 422 245 425 239 q 415 258 418 251 q 403 269 411 265 q 402 256 403 264 q 403 242 401 247 q 404 239 401 239 q 410 238 407 239 l 410 235 l 378 235 l 378 238 m 1282 294 l 1282 240 l 1303 240 l 1311 256 l 1314 257 l 1313 235 l 1258 235 l 1258 238 q 1266 242 1265 239 q 1267 251 1267 244 l 1267 294 q 1266 303 1267 301 q 1258 307 1265 306 l 1258 310 l 1290 310 l 1290 307 q 1283 303 1283 306 q 1282 294 1282 301 m 1354 310 l 1378 310 l 1379 307 q 1371 302 1375 307 q 1363 291 1367 297 q 1357 278 1360 285 q 1351 269 1354 272 l 1351 242 q 1354 239 1351 239 q 1358 238 1357 239 l 1360 235 l 1326 235 l 1326 238 q 1331 239 1328 239 q 1335 242 1335 239 l 1335 268 q 1330 278 1333 271 q 1323 291 1326 285 q 1315 302 1319 297 q 1306 307 1310 307 l 1306 310 l 1340 310 l 1342 307 q 1336 297 1331 306 l 1349 275 l 1358 296 q 1354 307 1364 306 l 1354 310 m 1038 240 l 1044 254 l 1047 256 l 1046 235 l 992 235 l 990 238 q 999 242 999 239 q 1000 251 1000 244 l 1000 294 q 999 303 1000 301 q 992 307 999 306 l 990 310 l 1046 310 l 1043 292 l 1040 292 l 1036 304 l 1015 304 l 1015 276 q 1026 276 1022 276 q 1032 285 1031 275 l 1036 285 l 1036 263 l 1032 261 q 1026 271 1031 272 q 1015 271 1022 269 l 1015 240 l 1038 240 m 914 310 l 926 310 l 926 307 q 917 295 917 307 q 917 270 917 283 q 913 245 918 257 q 888 233 908 233 q 860 244 865 233 q 855 269 854 256 q 856 295 856 283 q 847 307 857 307 l 847 310 l 879 310 l 881 307 q 872 303 874 306 q 871 294 871 301 q 872 269 872 286 q 876 244 871 251 q 893 239 886 239 q 904 245 900 239 q 910 260 908 251 q 910 278 911 268 q 910 294 910 288 q 909 303 910 301 q 901 307 908 306 l 901 310 l 914 310 m 1174 307 l 1174 310 l 1194 310 q 1202 301 1196 308 q 1215 284 1208 293 q 1228 267 1222 275 q 1235 260 1235 260 l 1235 294 q 1234 303 1235 301 q 1226 307 1233 306 l 1226 310 l 1250 310 l 1250 307 q 1242 303 1243 306 q 1242 294 1242 301 l 1242 235 l 1235 235 q 1227 245 1235 236 q 1211 265 1219 254 q 1196 284 1203 275 q 1189 293 1189 293 l 1189 251 q 1189 242 1189 244 q 1197 238 1189 239 l 1197 235 l 1174 235 l 1174 238 q 1181 242 1181 239 q 1182 251 1182 244 l 1182 294 q 1181 303 1182 301 q 1174 307 1181 306 m 367 235 l 311 235 l 311 238 q 318 240 315 239 q 319 246 321 240 l 319 294 q 319 303 321 301 q 311 307 318 306 l 311 310 l 367 310 l 364 292 l 360 292 l 357 304 l 336 304 l 336 276 q 347 276 343 276 q 353 285 351 275 l 357 285 q 356 273 356 276 q 357 263 356 269 l 353 261 q 347 271 351 272 q 336 271 343 269 l 336 240 l 358 240 l 364 254 l 368 256 l 367 235 m 815 235 l 761 235 l 761 238 q 769 242 769 239 q 769 251 769 244 l 769 294 q 769 303 769 301 q 761 307 768 306 l 761 310 l 793 310 l 793 307 q 786 303 786 306 q 786 294 786 301 q 785 267 786 288 q 786 240 785 247 l 807 240 l 814 256 l 817 257 l 815 235 m 603 238 q 608 239 604 239 q 611 242 611 239 l 611 294 q 610 303 611 301 q 603 307 610 306 l 603 310 l 624 310 q 631 301 625 308 q 644 284 638 293 q 658 267 651 275 q 664 260 664 260 l 664 294 q 663 303 664 301 q 656 307 663 306 l 656 310 l 679 310 l 681 307 q 672 303 674 306 q 671 294 671 301 l 671 235 l 665 235 q 657 245 664 236 q 642 265 650 254 q 626 284 633 275 q 618 293 618 293 l 618 251 q 619 242 618 244 q 626 238 619 239 l 626 235 l 603 235 l 603 238 m 1393 257 l 1388 308 l 1404 308 l 1397 257 l 1393 257 m 1107 299 q 1102 281 1103 292 q 1103 261 1101 271 q 1111 244 1106 251 q 1125 238 1117 238 q 1142 246 1133 238 q 1147 263 1146 253 q 1146 283 1149 274 q 1138 300 1143 293 q 1125 307 1133 307 q 1107 299 1115 307 m 571 246 q 576 263 575 253 q 575 283 578 274 q 567 300 572 293 q 554 307 563 307 q 536 299 544 307 q 531 281 532 292 q 533 261 531 271 q 540 244 535 251 q 554 238 546 238 q 571 246 563 238 m 268 272 q 283 274 278 268 q 289 288 289 281 q 284 301 289 296 q 268 304 279 307 l 268 272 m 403 275 q 417 278 413 272 q 422 290 422 283 q 417 302 422 297 q 403 304 413 307 l 403 275 m 722 264 q 718 277 721 267 q 714 290 715 288 q 710 277 713 288 q 706 264 707 267 l 722 264 m 1396 250 q 1403 242 1403 250 q 1396 233 1403 233 q 1388 242 1388 233 q 1396 250 1388 250 m 775 129 q 788 132 779 129 l 788 129 q 768 124 778 124 q 747 135 754 124 q 742 158 740 146 q 755 178 744 169 q 786 181 765 186 l 786 179 l 785 165 l 782 165 l 779 176 q 760 173 767 181 q 753 156 754 165 q 758 138 753 146 q 775 129 764 129 m 1146 129 q 1157 132 1149 129 l 1158 129 q 1139 124 1149 124 q 1118 135 1125 124 q 1113 158 1111 146 q 1126 178 1115 169 q 1157 181 1136 186 l 1157 179 l 1154 165 l 1153 165 l 1150 176 q 1131 173 1138 181 q 1124 156 1125 165 q 1129 138 1124 146 q 1146 129 1135 129 m 822 182 q 844 174 838 183 q 850 153 850 164 q 842 132 850 142 q 819 124 835 122 q 799 133 806 124 q 792 153 792 142 q 800 174 792 165 q 822 182 808 183 m 629 182 q 651 174 644 183 q 657 153 657 164 q 649 132 657 142 q 626 124 642 122 q 606 133 613 124 q 599 153 599 142 q 607 174 599 165 q 629 182 615 183 m 451 182 q 474 174 467 183 q 481 153 481 164 q 473 132 481 142 q 450 124 465 122 q 428 133 436 124 q 422 153 421 142 q 430 174 422 165 q 451 182 438 183 m 1243 129 l 1247 125 l 1222 125 l 1222 128 q 1226 133 1229 128 q 1224 143 1224 139 l 1207 143 q 1203 133 1206 139 q 1208 128 1200 128 l 1208 125 l 1190 125 l 1190 128 q 1197 133 1197 128 l 1218 181 l 1222 182 q 1225 172 1222 181 q 1231 153 1228 163 q 1238 137 1235 144 q 1243 129 1242 129 m 718 128 l 718 125 q 703 126 708 124 q 696 134 699 129 q 691 144 693 139 q 682 151 689 149 q 683 137 685 146 q 688 128 681 128 l 688 125 l 664 125 l 664 128 q 671 130 671 128 q 671 138 671 132 l 671 172 q 669 177 672 176 q 664 179 667 178 l 664 181 q 685 181 674 179 q 704 178 697 182 q 710 163 713 172 q 697 153 707 154 q 706 138 703 146 q 718 128 710 131 m 1108 128 l 1111 128 l 1111 125 q 1097 126 1101 124 q 1089 134 1092 129 q 1083 144 1086 139 q 1075 151 1081 149 q 1074 137 1076 146 q 1079 128 1072 128 l 1079 125 l 1057 125 l 1057 128 q 1063 130 1063 128 q 1063 138 1063 132 l 1063 172 q 1062 177 1064 176 q 1057 179 1060 178 l 1057 181 q 1077 181 1065 179 q 1097 178 1089 182 q 1101 163 1104 172 q 1090 153 1099 154 q 1099 138 1096 146 q 1108 128 1101 131 m 514 181 l 532 181 l 533 181 l 531 165 l 528 165 l 525 176 l 514 176 l 514 138 q 515 130 514 131 q 521 128 515 129 l 522 125 l 496 125 l 494 128 q 499 128 496 128 q 503 131 503 129 l 503 176 l 492 176 l 488 165 l 485 165 l 485 181 l 514 181 m 926 179 q 922 178 925 178 q 919 176 919 178 l 919 138 q 919 130 919 132 q 926 128 919 128 l 926 125 l 903 125 l 903 128 q 908 133 907 128 q 908 146 908 139 q 908 160 908 153 q 908 171 907 168 q 904 163 907 169 q 899 148 901 156 q 893 134 896 140 q 889 125 890 128 l 886 125 q 882 134 885 128 q 876 148 879 140 q 871 162 874 156 q 868 169 868 168 q 869 160 869 167 q 868 146 868 153 q 869 133 868 139 q 874 128 869 128 l 874 125 l 857 125 l 857 128 q 863 131 863 129 q 863 138 863 132 l 863 169 q 857 179 864 178 l 857 181 l 875 181 q 878 174 875 179 q 883 161 881 168 q 888 148 886 154 q 890 142 890 142 q 893 148 890 142 q 899 161 896 154 q 904 174 901 168 q 907 181 907 179 l 925 181 l 926 179 m 1189 179 q 1183 177 1186 178 q 1182 172 1181 176 l 1182 138 q 1182 131 1182 133 q 1189 128 1182 128 l 1189 125 l 1164 125 l 1164 128 q 1171 130 1171 128 q 1171 138 1171 132 l 1171 172 q 1169 177 1172 176 q 1164 179 1167 178 l 1164 181 l 1189 181 l 1189 179 m 407 181 l 415 181 l 415 179 q 410 169 408 178 l 410 125 l 404 125 q 399 133 404 126 q 387 147 393 139 q 376 161 381 154 q 371 168 371 168 l 371 138 q 371 130 371 132 q 376 128 371 128 l 376 125 l 360 125 l 360 128 q 365 131 365 129 q 365 138 365 132 l 365 169 q 365 176 365 175 q 360 179 365 178 l 360 181 l 375 181 q 380 174 375 179 q 390 161 385 168 q 399 149 394 154 q 404 143 404 143 l 404 169 q 399 179 404 178 l 397 181 l 407 181 m 1283 129 l 1290 142 l 1290 126 l 1289 125 l 1250 125 l 1250 128 q 1256 131 1256 128 q 1256 138 1256 133 l 1256 169 q 1256 176 1256 174 q 1250 179 1256 178 l 1250 181 l 1274 181 l 1274 179 q 1268 176 1268 178 q 1268 169 1268 174 l 1268 129 l 1283 129 m 575 181 l 594 181 l 592 167 l 590 167 l 588 176 l 572 176 l 572 154 q 581 155 578 156 q 585 161 583 154 l 588 161 l 588 144 l 585 144 q 581 151 583 151 q 572 151 578 150 l 572 131 q 575 128 572 129 q 579 128 578 128 l 579 125 l 554 125 l 554 128 q 561 131 561 129 q 561 138 561 132 l 561 172 q 560 177 563 176 q 554 179 557 178 l 554 181 l 575 181 m 1008 181 l 1049 181 l 1046 167 l 1044 167 l 1042 176 l 1026 176 l 1026 156 q 1035 156 1032 156 q 1039 163 1038 156 l 1042 163 q 1042 146 1040 153 l 1039 144 q 1035 151 1038 151 q 1026 151 1032 151 l 1026 129 l 1042 129 l 1047 140 l 1050 140 l 1049 126 l 1049 125 l 1008 125 l 1008 128 q 1014 130 1014 128 q 1014 138 1014 132 l 1014 172 q 1013 177 1015 176 q 1008 179 1011 178 l 1008 181 m 1001 179 q 997 178 1000 178 q 994 176 994 178 l 994 138 q 994 130 994 132 q 1001 128 994 128 l 1001 125 l 978 125 l 978 128 q 983 133 982 128 q 983 146 983 139 q 983 160 983 153 q 983 171 982 168 q 981 163 983 169 q 974 148 978 156 q 968 134 971 140 q 965 125 965 128 l 961 125 q 958 134 961 128 q 952 148 956 140 q 946 162 949 156 q 943 169 943 168 q 944 160 944 167 q 943 146 943 153 q 944 133 943 139 q 949 128 944 128 l 949 125 l 932 125 l 932 128 q 939 131 939 129 q 939 138 939 132 l 939 169 q 932 179 939 178 l 932 181 l 951 181 q 953 174 951 179 q 958 161 956 168 q 964 148 961 154 q 967 142 967 142 q 969 148 967 142 q 974 161 971 154 q 979 174 976 168 q 982 181 982 179 l 1001 181 l 1001 179 m 464 133 q 467 162 471 144 q 451 179 463 179 q 439 172 446 179 q 436 144 432 161 q 451 128 440 128 q 464 133 458 128 m 640 133 q 643 162 647 144 q 628 179 639 179 q 615 172 622 179 q 613 144 608 161 q 628 128 617 128 q 640 133 635 128 m 833 133 q 836 162 840 144 q 821 179 832 179 q 808 172 815 179 q 806 144 801 161 q 821 128 810 128 q 833 133 828 128 m 694 157 q 697 172 700 164 q 682 176 693 179 l 682 154 q 694 157 692 154 m 1086 157 q 1088 172 1092 164 q 1075 176 1085 179 l 1075 154 q 1086 157 1085 154 m 1222 147 q 1219 156 1221 150 q 1215 165 1217 163 q 1212 156 1214 163 q 1208 147 1210 150 l 1222 147 z "},"3":{"ha":1596,"x_min":149,"x_max":1499,"o":"m 1499 949 l 1499 0 l 149 0 l 149 949 l 1499 949 m 1479 929 l 168 929 l 168 19 l 1479 19 l 1479 929 m 797 796 q 782 806 783 800 q 786 817 781 813 q 802 826 792 822 q 824 829 813 829 q 847 824 836 829 q 857 803 857 818 q 871 793 869 800 q 869 778 872 786 q 862 762 867 769 q 858 747 857 754 q 878 744 863 742 q 907 747 893 746 q 928 746 921 749 q 926 728 936 743 q 910 736 924 738 q 888 736 897 735 q 890 731 892 732 q 883 721 881 724 q 877 728 876 724 q 882 736 878 733 q 875 738 878 736 q 864 713 869 724 q 856 686 858 703 q 876 685 869 689 q 882 675 882 681 q 877 665 882 669 q 865 660 872 660 q 847 675 856 660 q 828 667 840 672 q 806 663 817 663 q 793 682 788 663 q 808 674 797 674 q 828 678 818 674 q 846 685 839 682 q 847 691 847 688 q 849 697 847 694 q 835 689 842 688 q 829 701 829 690 q 817 691 825 690 q 813 703 810 692 q 801 688 806 696 q 788 686 796 679 q 788 697 786 690 q 793 708 790 703 q 798 717 796 714 q 800 721 800 721 q 805 717 806 721 q 801 707 804 713 q 796 696 799 701 q 794 689 793 690 q 807 703 797 690 q 821 724 817 717 q 825 719 825 722 q 824 711 825 715 q 820 703 822 707 q 819 697 818 699 q 828 706 822 697 q 839 719 835 714 q 849 725 843 725 q 857 718 854 725 q 863 731 860 725 q 868 739 865 736 q 851 751 851 743 q 857 769 851 760 q 865 785 863 778 q 857 794 868 793 q 847 760 854 776 q 833 749 840 743 q 846 769 840 756 q 851 796 851 783 q 824 795 839 796 q 797 796 810 794 m 896 797 q 880 807 882 796 q 881 824 878 818 q 891 815 883 818 q 909 812 899 813 q 931 813 919 811 q 950 814 942 814 q 993 809 976 819 q 1015 783 1010 799 q 1012 753 1019 768 q 983 732 1004 738 q 960 744 968 732 q 957 771 953 757 q 950 758 954 765 q 940 749 946 751 q 933 760 931 749 q 927 764 928 757 q 926 775 926 771 q 921 769 925 775 q 912 758 917 763 q 903 751 907 753 q 900 758 900 750 q 890 756 894 751 q 889 768 886 761 q 884 760 888 765 q 878 753 881 756 q 872 750 875 750 q 867 757 868 750 q 875 776 868 764 q 889 788 882 788 q 897 782 893 788 q 899 773 904 779 q 896 760 894 767 q 902 767 899 761 q 910 778 906 772 q 917 790 914 785 q 921 794 919 794 q 924 788 925 793 q 921 778 924 783 q 914 769 918 774 q 910 763 910 765 q 919 774 914 768 q 927 782 924 779 q 933 781 931 785 q 933 765 935 778 q 944 778 939 769 q 956 788 949 788 q 964 785 956 788 q 968 780 968 785 q 966 769 968 775 q 963 756 964 763 q 965 746 961 750 q 982 740 972 738 q 997 751 992 743 q 1003 794 1017 783 q 965 804 990 804 q 928 801 947 804 q 896 797 908 799 m 663 710 q 635 724 642 713 q 634 747 629 735 q 653 765 639 758 q 683 764 667 772 q 698 783 690 774 q 713 803 706 793 q 683 797 700 804 q 672 774 667 790 q 661 777 665 772 q 660 788 657 782 q 685 807 665 803 q 719 804 706 811 q 713 774 724 789 q 704 742 703 758 q 727 778 717 760 q 747 817 738 797 q 748 798 754 813 q 733 765 742 783 q 722 729 725 746 q 732 704 718 713 q 717 708 722 703 q 712 721 713 713 q 713 738 711 729 q 718 753 715 747 q 709 741 714 749 q 697 740 704 733 q 692 751 694 746 q 683 758 690 756 q 671 744 678 753 q 657 742 664 735 q 658 746 653 746 q 669 749 664 743 q 679 760 675 756 q 651 752 665 763 q 642 726 636 742 q 655 719 647 719 q 670 719 663 718 q 686 719 678 719 q 700 715 694 719 q 709 701 708 711 q 699 689 710 690 q 688 706 703 703 q 663 710 672 708 m 850 804 q 828 817 846 817 q 806 813 817 817 q 793 804 794 808 q 803 803 796 803 q 819 803 811 803 q 837 805 828 804 q 850 804 846 806 m 714 797 q 703 783 711 793 q 688 763 696 772 q 692 758 690 760 q 696 756 694 757 q 706 780 699 765 q 714 797 713 794 m 735 719 q 728 734 724 722 q 738 757 733 746 q 743 769 740 764 q 749 782 746 775 q 754 794 751 788 q 758 785 763 793 q 753 774 754 778 q 771 789 764 789 q 774 782 775 789 q 771 767 774 775 q 763 753 768 760 q 751 746 757 746 q 743 751 747 746 q 735 719 735 726 m 739 689 q 728 675 726 679 q 738 672 731 671 q 749 678 744 672 q 744 697 753 685 q 738 715 738 706 q 744 731 739 724 q 756 742 749 738 q 771 747 764 747 q 782 724 786 747 q 785 725 783 725 q 788 726 786 725 q 794 740 790 732 q 804 757 799 747 q 795 758 797 753 q 796 768 793 763 q 791 760 794 765 q 784 753 788 756 q 777 750 781 750 q 772 757 774 750 q 781 776 775 764 q 794 788 788 788 q 803 782 799 788 q 805 773 810 779 q 801 760 800 767 q 808 767 804 761 q 815 778 811 772 q 821 790 818 785 q 824 794 824 794 q 828 788 831 792 q 824 776 826 783 q 839 789 835 789 q 842 782 843 789 q 839 767 842 775 q 831 753 836 760 q 819 746 825 746 q 810 753 814 746 q 805 742 807 747 q 800 732 803 738 q 819 739 810 735 q 836 743 829 743 q 847 729 849 743 q 824 732 838 736 q 794 722 810 728 q 781 692 788 708 q 782 667 775 675 q 770 674 772 668 q 770 689 768 681 q 776 705 772 697 q 783 717 781 713 q 772 709 778 714 q 761 704 767 704 q 754 715 756 704 q 775 726 769 714 q 772 739 781 739 q 758 731 769 739 q 750 710 747 721 q 757 690 753 699 q 759 673 761 681 q 738 661 757 665 q 725 666 729 661 q 721 677 721 671 q 724 688 721 683 q 732 693 728 693 q 740 689 736 693 l 739 689 m 768 783 q 760 774 767 783 q 746 756 753 765 q 751 752 747 750 q 759 760 756 754 q 765 774 763 767 q 768 783 768 781 m 813 758 l 813 757 q 817 751 814 751 q 829 765 822 751 q 836 783 836 778 q 826 775 833 783 q 813 758 819 767 m 792 768 q 797 776 794 772 q 800 782 799 779 q 794 781 797 785 q 787 772 790 778 q 781 760 783 767 q 779 753 779 754 q 785 759 781 753 q 792 768 789 765 m 885 768 q 894 781 893 779 q 888 781 892 785 q 881 772 885 778 q 876 760 878 767 q 874 753 874 754 q 879 759 875 753 q 885 768 883 765 m 951 768 q 956 776 954 772 q 961 781 958 779 q 955 781 958 785 q 948 772 951 778 q 942 760 944 767 q 940 753 940 754 q 945 759 942 753 q 951 768 949 765 m 864 696 q 869 715 863 704 q 875 724 876 725 q 879 715 882 724 q 874 704 878 713 q 871 694 871 696 q 882 708 875 694 q 892 721 889 721 q 896 717 892 721 q 889 692 882 692 q 897 699 892 692 q 899 715 901 707 l 894 722 q 913 718 903 718 q 935 724 925 718 q 943 743 946 731 q 953 737 951 744 q 951 724 956 729 q 931 713 949 715 q 903 715 914 710 q 900 698 906 708 q 889 688 894 688 q 881 697 882 688 q 872 690 876 692 q 864 696 867 689 m 836 692 q 854 713 849 700 q 851 720 854 721 q 843 714 847 719 q 837 701 839 708 q 836 692 835 694 m 868 681 q 856 678 864 681 q 863 667 857 668 q 872 668 868 665 q 876 675 876 671 q 868 681 876 679 m 1085 525 q 1071 518 1079 518 q 1058 525 1063 518 q 1053 541 1053 532 q 1057 557 1053 550 q 1069 567 1061 564 q 1085 564 1076 569 q 1085 572 1085 567 q 1085 580 1086 576 q 1083 586 1085 583 q 1075 588 1081 589 l 1075 590 l 1093 592 l 1094 590 l 1094 529 q 1096 525 1093 526 q 1101 524 1099 524 l 1101 521 l 1086 519 l 1085 521 l 1085 525 m 557 528 q 558 538 557 529 q 558 558 558 547 q 558 577 558 568 q 554 586 557 586 l 551 588 l 549 588 l 549 590 l 565 592 l 565 528 q 572 524 565 524 l 572 519 l 550 519 l 550 524 q 557 528 557 524 m 1117 578 q 1111 584 1111 578 q 1117 590 1111 590 q 1123 584 1124 590 q 1117 578 1122 578 m 979 579 l 979 565 l 992 565 l 992 561 l 979 561 l 979 536 q 982 526 978 529 q 993 525 986 522 l 993 522 q 977 519 982 517 q 971 530 972 522 q 970 547 969 538 q 971 561 971 556 l 963 561 l 963 565 l 971 565 l 971 579 l 979 579 m 1172 560 q 1176 533 1183 549 q 1156 518 1168 518 q 1140 525 1147 518 q 1135 552 1128 538 q 1157 567 1143 567 q 1172 560 1165 567 m 1292 560 q 1295 533 1303 549 q 1275 518 1288 518 q 1260 525 1267 518 q 1255 552 1247 538 q 1276 567 1263 567 q 1292 560 1285 567 m 507 539 q 518 544 510 543 q 531 549 526 546 q 527 561 532 556 q 515 561 522 567 q 514 551 517 553 q 508 552 511 550 q 506 558 506 554 q 517 565 507 563 q 535 563 532 569 q 539 548 539 557 q 539 531 539 539 q 547 524 539 524 l 547 521 q 537 519 542 518 q 531 525 532 519 q 515 519 525 519 q 505 526 508 518 q 507 539 501 533 m 894 546 q 903 549 903 549 q 900 561 906 556 q 888 561 894 567 q 886 551 889 553 q 881 552 883 550 q 880 558 879 554 q 889 565 881 563 q 908 563 904 569 q 911 548 911 557 q 911 531 911 539 q 919 524 911 524 l 919 521 q 910 519 915 518 q 904 525 904 519 l 903 525 q 889 518 896 518 q 876 531 878 518 q 894 546 875 543 m 651 546 q 660 549 660 549 q 656 561 661 556 q 644 561 651 567 q 643 551 646 553 q 638 552 640 550 q 635 558 635 554 q 646 565 636 563 q 665 563 661 569 q 668 548 668 557 q 667 531 668 539 q 675 524 667 524 l 675 521 q 666 519 671 518 q 660 525 661 519 q 646 518 653 518 q 633 531 635 518 q 651 546 632 543 m 775 556 q 781 565 776 563 q 793 567 786 567 q 805 563 800 567 q 808 551 810 560 q 808 534 811 544 q 817 524 806 524 l 817 521 q 806 519 811 518 q 800 525 801 519 q 785 518 790 518 q 773 531 774 518 q 800 549 772 543 q 797 561 801 556 q 785 561 792 567 q 783 551 788 554 q 775 556 778 549 m 1232 519 q 1217 525 1222 519 q 1210 538 1211 531 q 1213 553 1210 546 q 1224 565 1215 561 q 1241 565 1231 569 q 1246 551 1251 561 q 1238 551 1240 546 q 1238 561 1235 556 q 1223 558 1226 567 q 1222 538 1219 549 q 1231 523 1224 528 q 1247 532 1238 518 l 1250 531 q 1232 519 1242 518 m 954 542 q 956 526 961 535 q 942 519 951 518 q 935 519 939 518 q 929 522 932 521 l 928 519 l 925 519 l 924 536 l 928 536 q 940 522 928 525 q 950 533 953 519 q 938 540 946 540 q 926 547 929 540 q 931 564 921 558 q 950 564 942 569 l 951 567 l 956 567 l 956 553 l 953 553 q 942 563 953 563 q 933 553 931 564 q 943 547 936 549 q 954 542 950 546 m 601 503 l 601 500 l 576 500 l 576 503 q 585 507 585 503 l 585 556 q 576 563 585 563 l 576 565 l 592 567 l 593 565 l 593 560 q 608 567 603 567 q 622 557 618 567 q 624 537 626 547 q 615 521 622 526 q 593 522 607 515 q 593 508 593 515 q 601 503 593 501 m 678 503 q 685 504 685 503 q 686 507 686 507 l 686 556 q 678 563 686 563 l 678 565 l 694 567 l 694 560 q 710 567 704 567 q 724 557 719 567 q 726 537 728 547 q 716 521 724 526 q 694 522 708 515 q 694 508 694 515 q 704 503 694 501 l 704 500 l 678 500 l 678 503 m 835 567 l 836 565 l 836 558 q 854 567 843 568 q 864 551 865 565 q 864 535 865 547 q 871 524 863 522 l 871 519 l 849 519 l 849 524 q 856 528 856 524 q 855 544 854 532 q 853 558 856 556 q 844 560 850 563 q 836 554 839 558 q 835 535 838 549 q 843 524 833 522 l 843 519 l 821 519 l 821 524 q 828 528 828 524 q 827 536 826 531 q 828 548 828 542 q 826 558 828 554 q 819 563 825 563 l 819 565 l 835 567 m 1311 528 q 1311 545 1310 531 q 1308 561 1313 560 q 1306 562 1307 561 q 1304 563 1306 563 l 1304 565 l 1319 567 l 1319 558 q 1335 567 1325 565 q 1347 558 1344 568 q 1365 567 1354 568 q 1375 551 1376 565 q 1375 535 1376 547 q 1382 524 1374 522 l 1382 519 l 1360 519 l 1360 524 q 1367 535 1369 522 q 1367 551 1365 547 q 1360 561 1368 561 q 1347 554 1351 561 l 1347 528 q 1354 524 1347 524 l 1354 519 l 1332 519 l 1332 524 q 1340 535 1342 522 q 1339 551 1338 547 q 1331 561 1340 561 q 1319 554 1322 561 q 1319 547 1319 553 q 1319 536 1319 542 q 1321 526 1319 531 q 1326 524 1322 522 l 1326 519 l 1304 519 l 1304 524 q 1311 528 1311 524 m 735 524 q 740 525 739 524 q 741 540 742 525 q 740 556 740 554 q 733 563 740 563 l 733 565 l 749 567 l 750 565 l 750 558 q 763 567 753 567 q 768 556 772 567 q 761 554 765 551 q 760 561 757 557 q 750 554 753 561 l 750 528 q 758 524 749 524 l 758 519 l 735 519 l 735 524 m 1029 529 q 1031 533 1031 529 q 1031 542 1031 538 q 1031 552 1031 547 q 1031 557 1031 557 q 1022 563 1031 563 l 1022 565 l 1039 567 l 1039 529 q 1046 524 1039 524 l 1046 521 l 1032 519 l 1031 521 l 1031 526 q 1013 519 1024 518 q 1003 535 1001 521 q 1003 551 1001 539 q 996 563 1006 564 l 996 565 l 1011 567 l 1011 565 q 1011 554 1011 561 q 1012 540 1011 547 q 1014 528 1013 533 q 1019 524 1015 524 q 1029 529 1024 524 m 1113 528 q 1113 544 1113 531 q 1111 561 1114 558 q 1108 562 1110 561 q 1106 563 1107 563 l 1106 565 l 1121 567 l 1122 565 l 1122 528 q 1128 524 1121 524 l 1128 519 l 1107 519 l 1107 524 q 1113 528 1114 524 m 272 557 q 265 563 269 563 l 265 565 l 286 565 l 286 563 q 281 559 282 563 q 283 551 281 556 q 287 540 285 546 q 289 532 289 535 l 301 564 l 306 564 l 317 532 q 319 541 317 536 q 324 551 322 546 q 325 559 325 556 q 319 563 325 563 l 319 565 l 356 565 l 356 563 q 353 551 347 563 q 360 532 358 539 l 371 564 l 375 564 l 388 532 q 390 541 388 536 q 393 551 392 546 q 394 559 394 556 q 389 563 394 563 l 389 565 l 425 565 l 425 563 q 422 551 417 563 q 429 532 428 539 l 440 564 l 444 564 l 457 532 q 459 541 457 536 q 463 551 461 546 q 464 559 464 556 q 458 563 464 563 l 458 565 l 476 565 l 476 563 q 464 544 465 557 q 457 519 463 531 l 453 519 l 440 553 l 428 519 l 424 519 q 406 561 414 561 q 388 519 400 561 l 383 519 l 371 553 l 358 519 l 354 519 q 336 561 344 561 q 317 519 329 561 l 314 519 l 301 553 l 289 519 l 285 519 q 278 539 282 529 q 272 557 275 549 m 1144 550 q 1144 535 1143 543 q 1150 524 1144 528 q 1168 533 1165 518 q 1167 557 1171 547 q 1153 563 1161 567 q 1144 550 1144 560 m 1264 550 q 1263 535 1263 543 q 1269 524 1264 528 q 1287 533 1283 518 q 1286 557 1290 547 q 1272 563 1281 567 q 1264 550 1264 560 m 1063 551 q 1064 533 1060 543 q 1075 524 1068 524 q 1085 529 1081 524 l 1085 556 q 1073 563 1082 565 q 1063 551 1064 561 m 593 557 q 592 546 593 553 q 593 533 592 539 q 597 524 594 526 q 608 524 600 521 q 617 547 619 531 q 603 563 614 563 q 593 557 599 563 m 694 557 q 694 546 694 553 q 695 533 694 539 q 699 524 696 526 q 710 524 701 521 q 718 547 721 531 q 704 563 715 563 q 694 557 700 563 m 903 546 q 887 533 889 543 q 892 524 885 524 q 903 529 897 524 l 903 546 m 800 546 q 784 533 786 543 q 789 524 782 524 q 800 529 794 524 l 800 546 m 531 529 l 531 546 q 522 542 526 543 q 515 536 518 540 q 518 525 510 528 q 531 529 526 522 m 660 546 q 642 533 644 543 q 649 524 640 524 q 660 529 654 524 l 660 546 m 1194 519 q 1188 526 1188 519 q 1194 532 1188 532 q 1201 526 1201 532 q 1194 519 1201 519 m 488 519 q 481 526 481 519 q 488 532 481 532 q 494 526 494 532 q 488 519 494 519 m 736 401 l 736 408 l 913 408 l 913 401 l 736 401 m 1154 301 q 1165 278 1164 290 q 1160 255 1165 265 q 1144 238 1154 244 q 1122 232 1135 232 q 1094 243 1106 232 q 1084 267 1085 254 q 1089 290 1083 279 q 1104 306 1094 300 q 1126 313 1114 313 q 1154 301 1143 313 m 594 274 q 583 244 597 254 q 553 233 568 233 q 525 243 538 233 q 514 272 513 253 q 525 301 511 292 q 556 311 539 311 q 583 302 571 311 q 594 274 596 293 m 935 281 q 935 297 931 290 q 946 308 939 304 q 962 311 953 311 q 979 308 971 311 l 976 292 l 974 290 l 969 306 q 953 303 963 308 q 950 289 944 299 q 963 280 954 282 q 976 271 971 278 q 983 253 985 261 q 972 239 981 244 q 953 233 964 233 q 933 236 942 232 l 936 256 l 939 257 l 943 240 q 961 241 951 236 q 965 257 971 246 q 949 267 960 265 q 935 281 939 269 m 457 281 q 457 297 453 290 q 468 308 461 304 q 484 311 475 311 q 501 308 493 311 l 499 292 l 496 290 l 492 306 q 475 303 483 308 q 472 289 467 299 q 485 280 476 282 q 499 271 493 278 q 505 253 507 261 q 494 239 503 244 q 475 233 486 233 q 456 236 464 232 l 458 256 l 461 257 l 465 240 q 483 241 474 236 q 488 257 493 246 q 472 267 482 265 q 457 281 461 269 m 243 238 q 250 240 247 239 q 251 246 253 240 l 251 294 q 251 303 251 301 q 243 307 250 306 l 243 310 q 293 306 279 314 q 307 289 307 299 q 295 271 307 279 q 268 267 283 263 l 268 242 q 272 239 268 239 q 278 238 276 239 l 278 235 l 243 235 l 243 238 m 757 238 l 757 235 l 724 235 l 724 238 q 731 246 735 239 q 725 258 726 253 l 703 258 q 697 245 701 253 q 704 238 693 238 l 704 235 l 679 235 l 679 238 q 690 246 689 240 l 717 311 l 722 311 l 746 246 q 757 238 747 240 m 378 238 q 386 242 386 239 q 386 251 386 244 l 386 294 q 385 303 386 301 q 378 307 385 306 l 378 310 q 406 310 390 308 q 432 306 421 313 q 439 287 443 299 q 422 272 435 275 q 435 251 431 263 q 451 238 439 240 l 451 235 q 431 235 438 231 q 422 245 425 239 q 415 258 418 251 q 403 269 411 265 q 402 256 403 264 q 403 242 401 247 q 404 239 401 239 q 410 238 407 239 l 410 235 l 378 235 l 378 238 m 1282 294 l 1282 240 l 1303 240 l 1311 256 l 1314 257 l 1313 235 l 1258 235 l 1258 238 q 1266 242 1265 239 q 1267 251 1267 244 l 1267 294 q 1266 303 1267 301 q 1258 307 1265 306 l 1258 310 l 1290 310 l 1290 307 q 1283 303 1283 306 q 1282 294 1282 301 m 1354 310 l 1378 310 l 1379 307 q 1371 302 1375 307 q 1363 291 1367 297 q 1357 278 1360 285 q 1351 269 1354 272 l 1351 242 q 1354 239 1351 239 q 1358 238 1357 239 l 1360 235 l 1326 235 l 1326 238 q 1331 239 1328 239 q 1335 242 1335 239 l 1335 268 q 1330 278 1333 271 q 1323 291 1326 285 q 1315 302 1319 297 q 1306 307 1310 307 l 1306 310 l 1340 310 l 1342 307 q 1336 297 1331 306 l 1349 275 l 1358 296 q 1354 307 1364 306 l 1354 310 m 1038 240 l 1044 254 l 1047 256 l 1046 235 l 992 235 l 990 238 q 999 242 999 239 q 1000 251 1000 244 l 1000 294 q 999 303 1000 301 q 992 307 999 306 l 990 310 l 1046 310 l 1043 292 l 1040 292 l 1036 304 l 1015 304 l 1015 276 q 1026 276 1022 276 q 1032 285 1031 275 l 1036 285 l 1036 263 l 1032 261 q 1026 271 1031 272 q 1015 271 1022 269 l 1015 240 l 1038 240 m 914 310 l 926 310 l 926 307 q 917 295 917 307 q 917 270 917 283 q 913 245 918 257 q 888 233 908 233 q 860 244 865 233 q 855 269 854 256 q 856 295 856 283 q 847 307 857 307 l 847 310 l 879 310 l 881 307 q 872 303 874 306 q 871 294 871 301 q 872 269 872 286 q 876 244 871 251 q 893 239 886 239 q 904 245 900 239 q 910 260 908 251 q 910 278 911 268 q 910 294 910 288 q 909 303 910 301 q 901 307 908 306 l 901 310 l 914 310 m 1174 307 l 1174 310 l 1194 310 q 1202 301 1196 308 q 1215 284 1208 293 q 1228 267 1222 275 q 1235 260 1235 260 l 1235 294 q 1234 303 1235 301 q 1226 307 1233 306 l 1226 310 l 1250 310 l 1250 307 q 1242 303 1243 306 q 1242 294 1242 301 l 1242 235 l 1235 235 q 1227 245 1235 236 q 1211 265 1219 254 q 1196 284 1203 275 q 1189 293 1189 293 l 1189 251 q 1189 242 1189 244 q 1197 238 1189 239 l 1197 235 l 1174 235 l 1174 238 q 1181 242 1181 239 q 1182 251 1182 244 l 1182 294 q 1181 303 1182 301 q 1174 307 1181 306 m 367 235 l 311 235 l 311 238 q 318 240 315 239 q 319 246 321 240 l 319 294 q 319 303 321 301 q 311 307 318 306 l 311 310 l 367 310 l 364 292 l 360 292 l 357 304 l 336 304 l 336 276 q 347 276 343 276 q 353 285 351 275 l 357 285 q 356 273 356 276 q 357 263 356 269 l 353 261 q 347 271 351 272 q 336 271 343 269 l 336 240 l 358 240 l 364 254 l 368 256 l 367 235 m 815 235 l 761 235 l 761 238 q 769 242 769 239 q 769 251 769 244 l 769 294 q 769 303 769 301 q 761 307 768 306 l 761 310 l 793 310 l 793 307 q 786 303 786 306 q 786 294 786 301 q 785 267 786 288 q 786 240 785 247 l 807 240 l 814 256 l 817 257 l 815 235 m 603 238 q 608 239 604 239 q 611 242 611 239 l 611 294 q 610 303 611 301 q 603 307 610 306 l 603 310 l 624 310 q 631 301 625 308 q 644 284 638 293 q 658 267 651 275 q 664 260 664 260 l 664 294 q 663 303 664 301 q 656 307 663 306 l 656 310 l 679 310 l 681 307 q 672 303 674 306 q 671 294 671 301 l 671 235 l 665 235 q 657 245 664 236 q 642 265 650 254 q 626 284 633 275 q 618 293 618 293 l 618 251 q 619 242 618 244 q 626 238 619 239 l 626 235 l 603 235 l 603 238 m 1393 257 l 1388 308 l 1404 308 l 1397 257 l 1393 257 m 1107 299 q 1102 281 1103 292 q 1103 261 1101 271 q 1111 244 1106 251 q 1125 238 1117 238 q 1142 246 1133 238 q 1147 263 1146 253 q 1146 283 1149 274 q 1138 300 1143 293 q 1125 307 1133 307 q 1107 299 1115 307 m 571 246 q 576 263 575 253 q 575 283 578 274 q 567 300 572 293 q 554 307 563 307 q 536 299 544 307 q 531 281 532 292 q 533 261 531 271 q 540 244 535 251 q 554 238 546 238 q 571 246 563 238 m 268 272 q 283 274 278 268 q 289 288 289 281 q 284 301 289 296 q 268 304 279 307 l 268 272 m 403 275 q 417 278 413 272 q 422 290 422 283 q 417 302 422 297 q 403 304 413 307 l 403 275 m 722 264 q 718 277 721 267 q 714 290 715 288 q 710 277 713 288 q 706 264 707 267 l 722 264 m 1396 250 q 1403 242 1403 250 q 1396 233 1403 233 q 1388 242 1388 233 q 1396 250 1388 250 m 775 129 q 788 132 779 129 l 788 129 q 768 124 778 124 q 747 135 754 124 q 742 158 740 146 q 755 178 744 169 q 786 181 765 186 l 786 179 l 785 165 l 782 165 l 779 176 q 760 173 767 181 q 753 156 754 165 q 758 138 753 146 q 775 129 764 129 m 1146 129 q 1157 132 1149 129 l 1158 129 q 1139 124 1149 124 q 1118 135 1125 124 q 1113 158 1111 146 q 1126 178 1115 169 q 1157 181 1136 186 l 1157 179 l 1154 165 l 1153 165 l 1150 176 q 1131 173 1138 181 q 1124 156 1125 165 q 1129 138 1124 146 q 1146 129 1135 129 m 822 182 q 844 174 838 183 q 850 153 850 164 q 842 132 850 142 q 819 124 835 122 q 799 133 806 124 q 792 153 792 142 q 800 174 792 165 q 822 182 808 183 m 629 182 q 651 174 644 183 q 657 153 657 164 q 649 132 657 142 q 626 124 642 122 q 606 133 613 124 q 599 153 599 142 q 607 174 599 165 q 629 182 615 183 m 451 182 q 474 174 467 183 q 481 153 481 164 q 473 132 481 142 q 450 124 465 122 q 428 133 436 124 q 422 153 421 142 q 430 174 422 165 q 451 182 438 183 m 1243 129 l 1247 125 l 1222 125 l 1222 128 q 1226 133 1229 128 q 1224 143 1224 139 l 1207 143 q 1203 133 1206 139 q 1208 128 1200 128 l 1208 125 l 1190 125 l 1190 128 q 1197 133 1197 128 l 1218 181 l 1222 182 q 1225 172 1222 181 q 1231 153 1228 163 q 1238 137 1235 144 q 1243 129 1242 129 m 718 128 l 718 125 q 703 126 708 124 q 696 134 699 129 q 691 144 693 139 q 682 151 689 149 q 683 137 685 146 q 688 128 681 128 l 688 125 l 664 125 l 664 128 q 671 130 671 128 q 671 138 671 132 l 671 172 q 669 177 672 176 q 664 179 667 178 l 664 181 q 685 181 674 179 q 704 178 697 182 q 710 163 713 172 q 697 153 707 154 q 706 138 703 146 q 718 128 710 131 m 1108 128 l 1111 128 l 1111 125 q 1097 126 1101 124 q 1089 134 1092 129 q 1083 144 1086 139 q 1075 151 1081 149 q 1074 137 1076 146 q 1079 128 1072 128 l 1079 125 l 1057 125 l 1057 128 q 1063 130 1063 128 q 1063 138 1063 132 l 1063 172 q 1062 177 1064 176 q 1057 179 1060 178 l 1057 181 q 1077 181 1065 179 q 1097 178 1089 182 q 1101 163 1104 172 q 1090 153 1099 154 q 1099 138 1096 146 q 1108 128 1101 131 m 514 181 l 532 181 l 533 181 l 531 165 l 528 165 l 525 176 l 514 176 l 514 138 q 515 130 514 131 q 521 128 515 129 l 522 125 l 496 125 l 494 128 q 499 128 496 128 q 503 131 503 129 l 503 176 l 492 176 l 488 165 l 485 165 l 485 181 l 514 181 m 926 179 q 922 178 925 178 q 919 176 919 178 l 919 138 q 919 130 919 132 q 926 128 919 128 l 926 125 l 903 125 l 903 128 q 908 133 907 128 q 908 146 908 139 q 908 160 908 153 q 908 171 907 168 q 904 163 907 169 q 899 148 901 156 q 893 134 896 140 q 889 125 890 128 l 886 125 q 882 134 885 128 q 876 148 879 140 q 871 162 874 156 q 868 169 868 168 q 869 160 869 167 q 868 146 868 153 q 869 133 868 139 q 874 128 869 128 l 874 125 l 857 125 l 857 128 q 863 131 863 129 q 863 138 863 132 l 863 169 q 857 179 864 178 l 857 181 l 875 181 q 878 174 875 179 q 883 161 881 168 q 888 148 886 154 q 890 142 890 142 q 893 148 890 142 q 899 161 896 154 q 904 174 901 168 q 907 181 907 179 l 925 181 l 926 179 m 1189 179 q 1183 177 1186 178 q 1182 172 1181 176 l 1182 138 q 1182 131 1182 133 q 1189 128 1182 128 l 1189 125 l 1164 125 l 1164 128 q 1171 130 1171 128 q 1171 138 1171 132 l 1171 172 q 1169 177 1172 176 q 1164 179 1167 178 l 1164 181 l 1189 181 l 1189 179 m 407 181 l 415 181 l 415 179 q 410 169 408 178 l 410 125 l 404 125 q 399 133 404 126 q 387 147 393 139 q 376 161 381 154 q 371 168 371 168 l 371 138 q 371 130 371 132 q 376 128 371 128 l 376 125 l 360 125 l 360 128 q 365 131 365 129 q 365 138 365 132 l 365 169 q 365 176 365 175 q 360 179 365 178 l 360 181 l 375 181 q 380 174 375 179 q 390 161 385 168 q 399 149 394 154 q 404 143 404 143 l 404 169 q 399 179 404 178 l 397 181 l 407 181 m 1283 129 l 1290 142 l 1290 126 l 1289 125 l 1250 125 l 1250 128 q 1256 131 1256 128 q 1256 138 1256 133 l 1256 169 q 1256 176 1256 174 q 1250 179 1256 178 l 1250 181 l 1274 181 l 1274 179 q 1268 176 1268 178 q 1268 169 1268 174 l 1268 129 l 1283 129 m 575 181 l 594 181 l 592 167 l 590 167 l 588 176 l 572 176 l 572 154 q 581 155 578 156 q 585 161 583 154 l 588 161 l 588 144 l 585 144 q 581 151 583 151 q 572 151 578 150 l 572 131 q 575 128 572 129 q 579 128 578 128 l 579 125 l 554 125 l 554 128 q 561 131 561 129 q 561 138 561 132 l 561 172 q 560 177 563 176 q 554 179 557 178 l 554 181 l 575 181 m 1008 181 l 1049 181 l 1046 167 l 1044 167 l 1042 176 l 1026 176 l 1026 156 q 1035 156 1032 156 q 1039 163 1038 156 l 1042 163 q 1042 146 1040 153 l 1039 144 q 1035 151 1038 151 q 1026 151 1032 151 l 1026 129 l 1042 129 l 1047 140 l 1050 140 l 1049 126 l 1049 125 l 1008 125 l 1008 128 q 1014 130 1014 128 q 1014 138 1014 132 l 1014 172 q 1013 177 1015 176 q 1008 179 1011 178 l 1008 181 m 1001 179 q 997 178 1000 178 q 994 176 994 178 l 994 138 q 994 130 994 132 q 1001 128 994 128 l 1001 125 l 978 125 l 978 128 q 983 133 982 128 q 983 146 983 139 q 983 160 983 153 q 983 171 982 168 q 981 163 983 169 q 974 148 978 156 q 968 134 971 140 q 965 125 965 128 l 961 125 q 958 134 961 128 q 952 148 956 140 q 946 162 949 156 q 943 169 943 168 q 944 160 944 167 q 943 146 943 153 q 944 133 943 139 q 949 128 944 128 l 949 125 l 932 125 l 932 128 q 939 131 939 129 q 939 138 939 132 l 939 169 q 932 179 939 178 l 932 181 l 951 181 q 953 174 951 179 q 958 161 956 168 q 964 148 961 154 q 967 142 967 142 q 969 148 967 142 q 974 161 971 154 q 979 174 976 168 q 982 181 982 179 l 1001 181 l 1001 179 m 464 133 q 467 162 471 144 q 451 179 463 179 q 439 172 446 179 q 436 144 432 161 q 451 128 440 128 q 464 133 458 128 m 640 133 q 643 162 647 144 q 628 179 639 179 q 615 172 622 179 q 613 144 608 161 q 628 128 617 128 q 640 133 635 128 m 833 133 q 836 162 840 144 q 821 179 832 179 q 808 172 815 179 q 806 144 801 161 q 821 128 810 128 q 833 133 828 128 m 694 157 q 697 172 700 164 q 682 176 693 179 l 682 154 q 694 157 692 154 m 1086 157 q 1088 172 1092 164 q 1075 176 1085 179 l 1075 154 q 1086 157 1085 154 m 1222 147 q 1219 156 1221 150 q 1215 165 1217 163 q 1212 156 1214 163 q 1208 147 1210 150 l 1222 147 z "},"4":{"ha":1596,"x_min":149,"x_max":1499,"o":"m 1499 949 l 1499 0 l 149 0 l 149 949 l 1499 949 m 1479 929 l 168 929 l 168 19 l 1479 19 l 1479 929 m 797 796 q 782 806 783 800 q 786 817 781 813 q 802 826 792 822 q 824 829 813 829 q 847 824 836 829 q 857 803 857 818 q 871 793 869 800 q 869 778 872 786 q 862 762 867 769 q 858 747 857 754 q 878 744 863 742 q 907 747 893 746 q 928 746 921 749 q 926 728 936 743 q 910 736 924 738 q 888 736 897 735 q 890 731 892 732 q 883 721 881 724 q 877 728 876 724 q 882 736 878 733 q 875 738 878 736 q 864 713 869 724 q 856 686 858 703 q 876 685 869 689 q 882 675 882 681 q 877 665 882 669 q 865 660 872 660 q 847 675 856 660 q 828 667 840 672 q 806 663 817 663 q 793 682 788 663 q 808 674 797 674 q 828 678 818 674 q 846 685 839 682 q 847 691 847 688 q 849 697 847 694 q 835 689 842 688 q 829 701 829 690 q 817 691 825 690 q 813 703 810 692 q 801 688 806 696 q 788 686 796 679 q 788 697 786 690 q 793 708 790 703 q 798 717 796 714 q 800 721 800 721 q 805 717 806 721 q 801 707 804 713 q 796 696 799 701 q 794 689 793 690 q 807 703 797 690 q 821 724 817 717 q 825 719 825 722 q 824 711 825 715 q 820 703 822 707 q 819 697 818 699 q 828 706 822 697 q 839 719 835 714 q 849 725 843 725 q 857 718 854 725 q 863 731 860 725 q 868 739 865 736 q 851 751 851 743 q 857 769 851 760 q 865 785 863 778 q 857 794 868 793 q 847 760 854 776 q 833 749 840 743 q 846 769 840 756 q 851 796 851 783 q 824 795 839 796 q 797 796 810 794 m 896 797 q 880 807 882 796 q 881 824 878 818 q 891 815 883 818 q 909 812 899 813 q 931 813 919 811 q 950 814 942 814 q 993 809 976 819 q 1015 783 1010 799 q 1012 753 1019 768 q 983 732 1004 738 q 960 744 968 732 q 957 771 953 757 q 950 758 954 765 q 940 749 946 751 q 933 760 931 749 q 927 764 928 757 q 926 775 926 771 q 921 769 925 775 q 912 758 917 763 q 903 751 907 753 q 900 758 900 750 q 890 756 894 751 q 889 768 886 761 q 884 760 888 765 q 878 753 881 756 q 872 750 875 750 q 867 757 868 750 q 875 776 868 764 q 889 788 882 788 q 897 782 893 788 q 899 773 904 779 q 896 760 894 767 q 902 767 899 761 q 910 778 906 772 q 917 790 914 785 q 921 794 919 794 q 924 788 925 793 q 921 778 924 783 q 914 769 918 774 q 910 763 910 765 q 919 774 914 768 q 927 782 924 779 q 933 781 931 785 q 933 765 935 778 q 944 778 939 769 q 956 788 949 788 q 964 785 956 788 q 968 780 968 785 q 966 769 968 775 q 963 756 964 763 q 965 746 961 750 q 982 740 972 738 q 997 751 992 743 q 1003 794 1017 783 q 965 804 990 804 q 928 801 947 804 q 896 797 908 799 m 663 710 q 635 724 642 713 q 634 747 629 735 q 653 765 639 758 q 683 764 667 772 q 698 783 690 774 q 713 803 706 793 q 683 797 700 804 q 672 774 667 790 q 661 777 665 772 q 660 788 657 782 q 685 807 665 803 q 719 804 706 811 q 713 774 724 789 q 704 742 703 758 q 727 778 717 760 q 747 817 738 797 q 748 798 754 813 q 733 765 742 783 q 722 729 725 746 q 732 704 718 713 q 717 708 722 703 q 712 721 713 713 q 713 738 711 729 q 718 753 715 747 q 709 741 714 749 q 697 740 704 733 q 692 751 694 746 q 683 758 690 756 q 671 744 678 753 q 657 742 664 735 q 658 746 653 746 q 669 749 664 743 q 679 760 675 756 q 651 752 665 763 q 642 726 636 742 q 655 719 647 719 q 670 719 663 718 q 686 719 678 719 q 700 715 694 719 q 709 701 708 711 q 699 689 710 690 q 688 706 703 703 q 663 710 672 708 m 850 804 q 828 817 846 817 q 806 813 817 817 q 793 804 794 808 q 803 803 796 803 q 819 803 811 803 q 837 805 828 804 q 850 804 846 806 m 714 797 q 703 783 711 793 q 688 763 696 772 q 692 758 690 760 q 696 756 694 757 q 706 780 699 765 q 714 797 713 794 m 735 719 q 728 734 724 722 q 738 757 733 746 q 743 769 740 764 q 749 782 746 775 q 754 794 751 788 q 758 785 763 793 q 753 774 754 778 q 771 789 764 789 q 774 782 775 789 q 771 767 774 775 q 763 753 768 760 q 751 746 757 746 q 743 751 747 746 q 735 719 735 726 m 739 689 q 728 675 726 679 q 738 672 731 671 q 749 678 744 672 q 744 697 753 685 q 738 715 738 706 q 744 731 739 724 q 756 742 749 738 q 771 747 764 747 q 782 724 786 747 q 785 725 783 725 q 788 726 786 725 q 794 740 790 732 q 804 757 799 747 q 795 758 797 753 q 796 768 793 763 q 791 760 794 765 q 784 753 788 756 q 777 750 781 750 q 772 757 774 750 q 781 776 775 764 q 794 788 788 788 q 803 782 799 788 q 805 773 810 779 q 801 760 800 767 q 808 767 804 761 q 815 778 811 772 q 821 790 818 785 q 824 794 824 794 q 828 788 831 792 q 824 776 826 783 q 839 789 835 789 q 842 782 843 789 q 839 767 842 775 q 831 753 836 760 q 819 746 825 746 q 810 753 814 746 q 805 742 807 747 q 800 732 803 738 q 819 739 810 735 q 836 743 829 743 q 847 729 849 743 q 824 732 838 736 q 794 722 810 728 q 781 692 788 708 q 782 667 775 675 q 770 674 772 668 q 770 689 768 681 q 776 705 772 697 q 783 717 781 713 q 772 709 778 714 q 761 704 767 704 q 754 715 756 704 q 775 726 769 714 q 772 739 781 739 q 758 731 769 739 q 750 710 747 721 q 757 690 753 699 q 759 673 761 681 q 738 661 757 665 q 725 666 729 661 q 721 677 721 671 q 724 688 721 683 q 732 693 728 693 q 740 689 736 693 l 739 689 m 768 783 q 760 774 767 783 q 746 756 753 765 q 751 752 747 750 q 759 760 756 754 q 765 774 763 767 q 768 783 768 781 m 813 758 l 813 757 q 817 751 814 751 q 829 765 822 751 q 836 783 836 778 q 826 775 833 783 q 813 758 819 767 m 792 768 q 797 776 794 772 q 800 782 799 779 q 794 781 797 785 q 787 772 790 778 q 781 760 783 767 q 779 753 779 754 q 785 759 781 753 q 792 768 789 765 m 885 768 q 894 781 893 779 q 888 781 892 785 q 881 772 885 778 q 876 760 878 767 q 874 753 874 754 q 879 759 875 753 q 885 768 883 765 m 951 768 q 956 776 954 772 q 961 781 958 779 q 955 781 958 785 q 948 772 951 778 q 942 760 944 767 q 940 753 940 754 q 945 759 942 753 q 951 768 949 765 m 864 696 q 869 715 863 704 q 875 724 876 725 q 879 715 882 724 q 874 704 878 713 q 871 694 871 696 q 882 708 875 694 q 892 721 889 721 q 896 717 892 721 q 889 692 882 692 q 897 699 892 692 q 899 715 901 707 l 894 722 q 913 718 903 718 q 935 724 925 718 q 943 743 946 731 q 953 737 951 744 q 951 724 956 729 q 931 713 949 715 q 903 715 914 710 q 900 698 906 708 q 889 688 894 688 q 881 697 882 688 q 872 690 876 692 q 864 696 867 689 m 836 692 q 854 713 849 700 q 851 720 854 721 q 843 714 847 719 q 837 701 839 708 q 836 692 835 694 m 868 681 q 856 678 864 681 q 863 667 857 668 q 872 668 868 665 q 876 675 876 671 q 868 681 876 679 m 1085 525 q 1071 518 1079 518 q 1058 525 1063 518 q 1053 541 1053 532 q 1057 557 1053 550 q 1069 567 1061 564 q 1085 564 1076 569 q 1085 572 1085 567 q 1085 580 1086 576 q 1083 586 1085 583 q 1075 588 1081 589 l 1075 590 l 1093 592 l 1094 590 l 1094 529 q 1096 525 1093 526 q 1101 524 1099 524 l 1101 521 l 1086 519 l 1085 521 l 1085 525 m 557 528 q 558 538 557 529 q 558 558 558 547 q 558 577 558 568 q 554 586 557 586 l 551 588 l 549 588 l 549 590 l 565 592 l 565 528 q 572 524 565 524 l 572 519 l 550 519 l 550 524 q 557 528 557 524 m 1117 578 q 1111 584 1111 578 q 1117 590 1111 590 q 1123 584 1124 590 q 1117 578 1122 578 m 979 579 l 979 565 l 992 565 l 992 561 l 979 561 l 979 536 q 982 526 978 529 q 993 525 986 522 l 993 522 q 977 519 982 517 q 971 530 972 522 q 970 547 969 538 q 971 561 971 556 l 963 561 l 963 565 l 971 565 l 971 579 l 979 579 m 1172 560 q 1176 533 1183 549 q 1156 518 1168 518 q 1140 525 1147 518 q 1135 552 1128 538 q 1157 567 1143 567 q 1172 560 1165 567 m 1292 560 q 1295 533 1303 549 q 1275 518 1288 518 q 1260 525 1267 518 q 1255 552 1247 538 q 1276 567 1263 567 q 1292 560 1285 567 m 507 539 q 518 544 510 543 q 531 549 526 546 q 527 561 532 556 q 515 561 522 567 q 514 551 517 553 q 508 552 511 550 q 506 558 506 554 q 517 565 507 563 q 535 563 532 569 q 539 548 539 557 q 539 531 539 539 q 547 524 539 524 l 547 521 q 537 519 542 518 q 531 525 532 519 q 515 519 525 519 q 505 526 508 518 q 507 539 501 533 m 894 546 q 903 549 903 549 q 900 561 906 556 q 888 561 894 567 q 886 551 889 553 q 881 552 883 550 q 880 558 879 554 q 889 565 881 563 q 908 563 904 569 q 911 548 911 557 q 911 531 911 539 q 919 524 911 524 l 919 521 q 910 519 915 518 q 904 525 904 519 l 903 525 q 889 518 896 518 q 876 531 878 518 q 894 546 875 543 m 651 546 q 660 549 660 549 q 656 561 661 556 q 644 561 651 567 q 643 551 646 553 q 638 552 640 550 q 635 558 635 554 q 646 565 636 563 q 665 563 661 569 q 668 548 668 557 q 667 531 668 539 q 675 524 667 524 l 675 521 q 666 519 671 518 q 660 525 661 519 q 646 518 653 518 q 633 531 635 518 q 651 546 632 543 m 775 556 q 781 565 776 563 q 793 567 786 567 q 805 563 800 567 q 808 551 810 560 q 808 534 811 544 q 817 524 806 524 l 817 521 q 806 519 811 518 q 800 525 801 519 q 785 518 790 518 q 773 531 774 518 q 800 549 772 543 q 797 561 801 556 q 785 561 792 567 q 783 551 788 554 q 775 556 778 549 m 1232 519 q 1217 525 1222 519 q 1210 538 1211 531 q 1213 553 1210 546 q 1224 565 1215 561 q 1241 565 1231 569 q 1246 551 1251 561 q 1238 551 1240 546 q 1238 561 1235 556 q 1223 558 1226 567 q 1222 538 1219 549 q 1231 523 1224 528 q 1247 532 1238 518 l 1250 531 q 1232 519 1242 518 m 954 542 q 956 526 961 535 q 942 519 951 518 q 935 519 939 518 q 929 522 932 521 l 928 519 l 925 519 l 924 536 l 928 536 q 940 522 928 525 q 950 533 953 519 q 938 540 946 540 q 926 547 929 540 q 931 564 921 558 q 950 564 942 569 l 951 567 l 956 567 l 956 553 l 953 553 q 942 563 953 563 q 933 553 931 564 q 943 547 936 549 q 954 542 950 546 m 601 503 l 601 500 l 576 500 l 576 503 q 585 507 585 503 l 585 556 q 576 563 585 563 l 576 565 l 592 567 l 593 565 l 593 560 q 608 567 603 567 q 622 557 618 567 q 624 537 626 547 q 615 521 622 526 q 593 522 607 515 q 593 508 593 515 q 601 503 593 501 m 678 503 q 685 504 685 503 q 686 507 686 507 l 686 556 q 678 563 686 563 l 678 565 l 694 567 l 694 560 q 710 567 704 567 q 724 557 719 567 q 726 537 728 547 q 716 521 724 526 q 694 522 708 515 q 694 508 694 515 q 704 503 694 501 l 704 500 l 678 500 l 678 503 m 835 567 l 836 565 l 836 558 q 854 567 843 568 q 864 551 865 565 q 864 535 865 547 q 871 524 863 522 l 871 519 l 849 519 l 849 524 q 856 528 856 524 q 855 544 854 532 q 853 558 856 556 q 844 560 850 563 q 836 554 839 558 q 835 535 838 549 q 843 524 833 522 l 843 519 l 821 519 l 821 524 q 828 528 828 524 q 827 536 826 531 q 828 548 828 542 q 826 558 828 554 q 819 563 825 563 l 819 565 l 835 567 m 1311 528 q 1311 545 1310 531 q 1308 561 1313 560 q 1306 562 1307 561 q 1304 563 1306 563 l 1304 565 l 1319 567 l 1319 558 q 1335 567 1325 565 q 1347 558 1344 568 q 1365 567 1354 568 q 1375 551 1376 565 q 1375 535 1376 547 q 1382 524 1374 522 l 1382 519 l 1360 519 l 1360 524 q 1367 535 1369 522 q 1367 551 1365 547 q 1360 561 1368 561 q 1347 554 1351 561 l 1347 528 q 1354 524 1347 524 l 1354 519 l 1332 519 l 1332 524 q 1340 535 1342 522 q 1339 551 1338 547 q 1331 561 1340 561 q 1319 554 1322 561 q 1319 547 1319 553 q 1319 536 1319 542 q 1321 526 1319 531 q 1326 524 1322 522 l 1326 519 l 1304 519 l 1304 524 q 1311 528 1311 524 m 735 524 q 740 525 739 524 q 741 540 742 525 q 740 556 740 554 q 733 563 740 563 l 733 565 l 749 567 l 750 565 l 750 558 q 763 567 753 567 q 768 556 772 567 q 761 554 765 551 q 760 561 757 557 q 750 554 753 561 l 750 528 q 758 524 749 524 l 758 519 l 735 519 l 735 524 m 1029 529 q 1031 533 1031 529 q 1031 542 1031 538 q 1031 552 1031 547 q 1031 557 1031 557 q 1022 563 1031 563 l 1022 565 l 1039 567 l 1039 529 q 1046 524 1039 524 l 1046 521 l 1032 519 l 1031 521 l 1031 526 q 1013 519 1024 518 q 1003 535 1001 521 q 1003 551 1001 539 q 996 563 1006 564 l 996 565 l 1011 567 l 1011 565 q 1011 554 1011 561 q 1012 540 1011 547 q 1014 528 1013 533 q 1019 524 1015 524 q 1029 529 1024 524 m 1113 528 q 1113 544 1113 531 q 1111 561 1114 558 q 1108 562 1110 561 q 1106 563 1107 563 l 1106 565 l 1121 567 l 1122 565 l 1122 528 q 1128 524 1121 524 l 1128 519 l 1107 519 l 1107 524 q 1113 528 1114 524 m 272 557 q 265 563 269 563 l 265 565 l 286 565 l 286 563 q 281 559 282 563 q 283 551 281 556 q 287 540 285 546 q 289 532 289 535 l 301 564 l 306 564 l 317 532 q 319 541 317 536 q 324 551 322 546 q 325 559 325 556 q 319 563 325 563 l 319 565 l 356 565 l 356 563 q 353 551 347 563 q 360 532 358 539 l 371 564 l 375 564 l 388 532 q 390 541 388 536 q 393 551 392 546 q 394 559 394 556 q 389 563 394 563 l 389 565 l 425 565 l 425 563 q 422 551 417 563 q 429 532 428 539 l 440 564 l 444 564 l 457 532 q 459 541 457 536 q 463 551 461 546 q 464 559 464 556 q 458 563 464 563 l 458 565 l 476 565 l 476 563 q 464 544 465 557 q 457 519 463 531 l 453 519 l 440 553 l 428 519 l 424 519 q 406 561 414 561 q 388 519 400 561 l 383 519 l 371 553 l 358 519 l 354 519 q 336 561 344 561 q 317 519 329 561 l 314 519 l 301 553 l 289 519 l 285 519 q 278 539 282 529 q 272 557 275 549 m 1144 550 q 1144 535 1143 543 q 1150 524 1144 528 q 1168 533 1165 518 q 1167 557 1171 547 q 1153 563 1161 567 q 1144 550 1144 560 m 1264 550 q 1263 535 1263 543 q 1269 524 1264 528 q 1287 533 1283 518 q 1286 557 1290 547 q 1272 563 1281 567 q 1264 550 1264 560 m 1063 551 q 1064 533 1060 543 q 1075 524 1068 524 q 1085 529 1081 524 l 1085 556 q 1073 563 1082 565 q 1063 551 1064 561 m 593 557 q 592 546 593 553 q 593 533 592 539 q 597 524 594 526 q 608 524 600 521 q 617 547 619 531 q 603 563 614 563 q 593 557 599 563 m 694 557 q 694 546 694 553 q 695 533 694 539 q 699 524 696 526 q 710 524 701 521 q 718 547 721 531 q 704 563 715 563 q 694 557 700 563 m 903 546 q 887 533 889 543 q 892 524 885 524 q 903 529 897 524 l 903 546 m 800 546 q 784 533 786 543 q 789 524 782 524 q 800 529 794 524 l 800 546 m 531 529 l 531 546 q 522 542 526 543 q 515 536 518 540 q 518 525 510 528 q 531 529 526 522 m 660 546 q 642 533 644 543 q 649 524 640 524 q 660 529 654 524 l 660 546 m 1194 519 q 1188 526 1188 519 q 1194 532 1188 532 q 1201 526 1201 532 q 1194 519 1201 519 m 488 519 q 481 526 481 519 q 488 532 481 532 q 494 526 494 532 q 488 519 494 519 m 736 401 l 736 408 l 913 408 l 913 401 l 736 401 m 1154 301 q 1165 278 1164 290 q 1160 255 1165 265 q 1144 238 1154 244 q 1122 232 1135 232 q 1094 243 1106 232 q 1084 267 1085 254 q 1089 290 1083 279 q 1104 306 1094 300 q 1126 313 1114 313 q 1154 301 1143 313 m 594 274 q 583 244 597 254 q 553 233 568 233 q 525 243 538 233 q 514 272 513 253 q 525 301 511 292 q 556 311 539 311 q 583 302 571 311 q 594 274 596 293 m 935 281 q 935 297 931 290 q 946 308 939 304 q 962 311 953 311 q 979 308 971 311 l 976 292 l 974 290 l 969 306 q 953 303 963 308 q 950 289 944 299 q 963 280 954 282 q 976 271 971 278 q 983 253 985 261 q 972 239 981 244 q 953 233 964 233 q 933 236 942 232 l 936 256 l 939 257 l 943 240 q 961 241 951 236 q 965 257 971 246 q 949 267 960 265 q 935 281 939 269 m 457 281 q 457 297 453 290 q 468 308 461 304 q 484 311 475 311 q 501 308 493 311 l 499 292 l 496 290 l 492 306 q 475 303 483 308 q 472 289 467 299 q 485 280 476 282 q 499 271 493 278 q 505 253 507 261 q 494 239 503 244 q 475 233 486 233 q 456 236 464 232 l 458 256 l 461 257 l 465 240 q 483 241 474 236 q 488 257 493 246 q 472 267 482 265 q 457 281 461 269 m 243 238 q 250 240 247 239 q 251 246 253 240 l 251 294 q 251 303 251 301 q 243 307 250 306 l 243 310 q 293 306 279 314 q 307 289 307 299 q 295 271 307 279 q 268 267 283 263 l 268 242 q 272 239 268 239 q 278 238 276 239 l 278 235 l 243 235 l 243 238 m 757 238 l 757 235 l 724 235 l 724 238 q 731 246 735 239 q 725 258 726 253 l 703 258 q 697 245 701 253 q 704 238 693 238 l 704 235 l 679 235 l 679 238 q 690 246 689 240 l 717 311 l 722 311 l 746 246 q 757 238 747 240 m 378 238 q 386 242 386 239 q 386 251 386 244 l 386 294 q 385 303 386 301 q 378 307 385 306 l 378 310 q 406 310 390 308 q 432 306 421 313 q 439 287 443 299 q 422 272 435 275 q 435 251 431 263 q 451 238 439 240 l 451 235 q 431 235 438 231 q 422 245 425 239 q 415 258 418 251 q 403 269 411 265 q 402 256 403 264 q 403 242 401 247 q 404 239 401 239 q 410 238 407 239 l 410 235 l 378 235 l 378 238 m 1282 294 l 1282 240 l 1303 240 l 1311 256 l 1314 257 l 1313 235 l 1258 235 l 1258 238 q 1266 242 1265 239 q 1267 251 1267 244 l 1267 294 q 1266 303 1267 301 q 1258 307 1265 306 l 1258 310 l 1290 310 l 1290 307 q 1283 303 1283 306 q 1282 294 1282 301 m 1354 310 l 1378 310 l 1379 307 q 1371 302 1375 307 q 1363 291 1367 297 q 1357 278 1360 285 q 1351 269 1354 272 l 1351 242 q 1354 239 1351 239 q 1358 238 1357 239 l 1360 235 l 1326 235 l 1326 238 q 1331 239 1328 239 q 1335 242 1335 239 l 1335 268 q 1330 278 1333 271 q 1323 291 1326 285 q 1315 302 1319 297 q 1306 307 1310 307 l 1306 310 l 1340 310 l 1342 307 q 1336 297 1331 306 l 1349 275 l 1358 296 q 1354 307 1364 306 l 1354 310 m 1038 240 l 1044 254 l 1047 256 l 1046 235 l 992 235 l 990 238 q 999 242 999 239 q 1000 251 1000 244 l 1000 294 q 999 303 1000 301 q 992 307 999 306 l 990 310 l 1046 310 l 1043 292 l 1040 292 l 1036 304 l 1015 304 l 1015 276 q 1026 276 1022 276 q 1032 285 1031 275 l 1036 285 l 1036 263 l 1032 261 q 1026 271 1031 272 q 1015 271 1022 269 l 1015 240 l 1038 240 m 914 310 l 926 310 l 926 307 q 917 295 917 307 q 917 270 917 283 q 913 245 918 257 q 888 233 908 233 q 860 244 865 233 q 855 269 854 256 q 856 295 856 283 q 847 307 857 307 l 847 310 l 879 310 l 881 307 q 872 303 874 306 q 871 294 871 301 q 872 269 872 286 q 876 244 871 251 q 893 239 886 239 q 904 245 900 239 q 910 260 908 251 q 910 278 911 268 q 910 294 910 288 q 909 303 910 301 q 901 307 908 306 l 901 310 l 914 310 m 1174 307 l 1174 310 l 1194 310 q 1202 301 1196 308 q 1215 284 1208 293 q 1228 267 1222 275 q 1235 260 1235 260 l 1235 294 q 1234 303 1235 301 q 1226 307 1233 306 l 1226 310 l 1250 310 l 1250 307 q 1242 303 1243 306 q 1242 294 1242 301 l 1242 235 l 1235 235 q 1227 245 1235 236 q 1211 265 1219 254 q 1196 284 1203 275 q 1189 293 1189 293 l 1189 251 q 1189 242 1189 244 q 1197 238 1189 239 l 1197 235 l 1174 235 l 1174 238 q 1181 242 1181 239 q 1182 251 1182 244 l 1182 294 q 1181 303 1182 301 q 1174 307 1181 306 m 367 235 l 311 235 l 311 238 q 318 240 315 239 q 319 246 321 240 l 319 294 q 319 303 321 301 q 311 307 318 306 l 311 310 l 367 310 l 364 292 l 360 292 l 357 304 l 336 304 l 336 276 q 347 276 343 276 q 353 285 351 275 l 357 285 q 356 273 356 276 q 357 263 356 269 l 353 261 q 347 271 351 272 q 336 271 343 269 l 336 240 l 358 240 l 364 254 l 368 256 l 367 235 m 815 235 l 761 235 l 761 238 q 769 242 769 239 q 769 251 769 244 l 769 294 q 769 303 769 301 q 761 307 768 306 l 761 310 l 793 310 l 793 307 q 786 303 786 306 q 786 294 786 301 q 785 267 786 288 q 786 240 785 247 l 807 240 l 814 256 l 817 257 l 815 235 m 603 238 q 608 239 604 239 q 611 242 611 239 l 611 294 q 610 303 611 301 q 603 307 610 306 l 603 310 l 624 310 q 631 301 625 308 q 644 284 638 293 q 658 267 651 275 q 664 260 664 260 l 664 294 q 663 303 664 301 q 656 307 663 306 l 656 310 l 679 310 l 681 307 q 672 303 674 306 q 671 294 671 301 l 671 235 l 665 235 q 657 245 664 236 q 642 265 650 254 q 626 284 633 275 q 618 293 618 293 l 618 251 q 619 242 618 244 q 626 238 619 239 l 626 235 l 603 235 l 603 238 m 1393 257 l 1388 308 l 1404 308 l 1397 257 l 1393 257 m 1107 299 q 1102 281 1103 292 q 1103 261 1101 271 q 1111 244 1106 251 q 1125 238 1117 238 q 1142 246 1133 238 q 1147 263 1146 253 q 1146 283 1149 274 q 1138 300 1143 293 q 1125 307 1133 307 q 1107 299 1115 307 m 571 246 q 576 263 575 253 q 575 283 578 274 q 567 300 572 293 q 554 307 563 307 q 536 299 544 307 q 531 281 532 292 q 533 261 531 271 q 540 244 535 251 q 554 238 546 238 q 571 246 563 238 m 268 272 q 283 274 278 268 q 289 288 289 281 q 284 301 289 296 q 268 304 279 307 l 268 272 m 403 275 q 417 278 413 272 q 422 290 422 283 q 417 302 422 297 q 403 304 413 307 l 403 275 m 722 264 q 718 277 721 267 q 714 290 715 288 q 710 277 713 288 q 706 264 707 267 l 722 264 m 1396 250 q 1403 242 1403 250 q 1396 233 1403 233 q 1388 242 1388 233 q 1396 250 1388 250 m 775 129 q 788 132 779 129 l 788 129 q 768 124 778 124 q 747 135 754 124 q 742 158 740 146 q 755 178 744 169 q 786 181 765 186 l 786 179 l 785 165 l 782 165 l 779 176 q 760 173 767 181 q 753 156 754 165 q 758 138 753 146 q 775 129 764 129 m 1146 129 q 1157 132 1149 129 l 1158 129 q 1139 124 1149 124 q 1118 135 1125 124 q 1113 158 1111 146 q 1126 178 1115 169 q 1157 181 1136 186 l 1157 179 l 1154 165 l 1153 165 l 1150 176 q 1131 173 1138 181 q 1124 156 1125 165 q 1129 138 1124 146 q 1146 129 1135 129 m 822 182 q 844 174 838 183 q 850 153 850 164 q 842 132 850 142 q 819 124 835 122 q 799 133 806 124 q 792 153 792 142 q 800 174 792 165 q 822 182 808 183 m 629 182 q 651 174 644 183 q 657 153 657 164 q 649 132 657 142 q 626 124 642 122 q 606 133 613 124 q 599 153 599 142 q 607 174 599 165 q 629 182 615 183 m 451 182 q 474 174 467 183 q 481 153 481 164 q 473 132 481 142 q 450 124 465 122 q 428 133 436 124 q 422 153 421 142 q 430 174 422 165 q 451 182 438 183 m 1243 129 l 1247 125 l 1222 125 l 1222 128 q 1226 133 1229 128 q 1224 143 1224 139 l 1207 143 q 1203 133 1206 139 q 1208 128 1200 128 l 1208 125 l 1190 125 l 1190 128 q 1197 133 1197 128 l 1218 181 l 1222 182 q 1225 172 1222 181 q 1231 153 1228 163 q 1238 137 1235 144 q 1243 129 1242 129 m 718 128 l 718 125 q 703 126 708 124 q 696 134 699 129 q 691 144 693 139 q 682 151 689 149 q 683 137 685 146 q 688 128 681 128 l 688 125 l 664 125 l 664 128 q 671 130 671 128 q 671 138 671 132 l 671 172 q 669 177 672 176 q 664 179 667 178 l 664 181 q 685 181 674 179 q 704 178 697 182 q 710 163 713 172 q 697 153 707 154 q 706 138 703 146 q 718 128 710 131 m 1108 128 l 1111 128 l 1111 125 q 1097 126 1101 124 q 1089 134 1092 129 q 1083 144 1086 139 q 1075 151 1081 149 q 1074 137 1076 146 q 1079 128 1072 128 l 1079 125 l 1057 125 l 1057 128 q 1063 130 1063 128 q 1063 138 1063 132 l 1063 172 q 1062 177 1064 176 q 1057 179 1060 178 l 1057 181 q 1077 181 1065 179 q 1097 178 1089 182 q 1101 163 1104 172 q 1090 153 1099 154 q 1099 138 1096 146 q 1108 128 1101 131 m 514 181 l 532 181 l 533 181 l 531 165 l 528 165 l 525 176 l 514 176 l 514 138 q 515 130 514 131 q 521 128 515 129 l 522 125 l 496 125 l 494 128 q 499 128 496 128 q 503 131 503 129 l 503 176 l 492 176 l 488 165 l 485 165 l 485 181 l 514 181 m 926 179 q 922 178 925 178 q 919 176 919 178 l 919 138 q 919 130 919 132 q 926 128 919 128 l 926 125 l 903 125 l 903 128 q 908 133 907 128 q 908 146 908 139 q 908 160 908 153 q 908 171 907 168 q 904 163 907 169 q 899 148 901 156 q 893 134 896 140 q 889 125 890 128 l 886 125 q 882 134 885 128 q 876 148 879 140 q 871 162 874 156 q 868 169 868 168 q 869 160 869 167 q 868 146 868 153 q 869 133 868 139 q 874 128 869 128 l 874 125 l 857 125 l 857 128 q 863 131 863 129 q 863 138 863 132 l 863 169 q 857 179 864 178 l 857 181 l 875 181 q 878 174 875 179 q 883 161 881 168 q 888 148 886 154 q 890 142 890 142 q 893 148 890 142 q 899 161 896 154 q 904 174 901 168 q 907 181 907 179 l 925 181 l 926 179 m 1189 179 q 1183 177 1186 178 q 1182 172 1181 176 l 1182 138 q 1182 131 1182 133 q 1189 128 1182 128 l 1189 125 l 1164 125 l 1164 128 q 1171 130 1171 128 q 1171 138 1171 132 l 1171 172 q 1169 177 1172 176 q 1164 179 1167 178 l 1164 181 l 1189 181 l 1189 179 m 407 181 l 415 181 l 415 179 q 410 169 408 178 l 410 125 l 404 125 q 399 133 404 126 q 387 147 393 139 q 376 161 381 154 q 371 168 371 168 l 371 138 q 371 130 371 132 q 376 128 371 128 l 376 125 l 360 125 l 360 128 q 365 131 365 129 q 365 138 365 132 l 365 169 q 365 176 365 175 q 360 179 365 178 l 360 181 l 375 181 q 380 174 375 179 q 390 161 385 168 q 399 149 394 154 q 404 143 404 143 l 404 169 q 399 179 404 178 l 397 181 l 407 181 m 1283 129 l 1290 142 l 1290 126 l 1289 125 l 1250 125 l 1250 128 q 1256 131 1256 128 q 1256 138 1256 133 l 1256 169 q 1256 176 1256 174 q 1250 179 1256 178 l 1250 181 l 1274 181 l 1274 179 q 1268 176 1268 178 q 1268 169 1268 174 l 1268 129 l 1283 129 m 575 181 l 594 181 l 592 167 l 590 167 l 588 176 l 572 176 l 572 154 q 581 155 578 156 q 585 161 583 154 l 588 161 l 588 144 l 585 144 q 581 151 583 151 q 572 151 578 150 l 572 131 q 575 128 572 129 q 579 128 578 128 l 579 125 l 554 125 l 554 128 q 561 131 561 129 q 561 138 561 132 l 561 172 q 560 177 563 176 q 554 179 557 178 l 554 181 l 575 181 m 1008 181 l 1049 181 l 1046 167 l 1044 167 l 1042 176 l 1026 176 l 1026 156 q 1035 156 1032 156 q 1039 163 1038 156 l 1042 163 q 1042 146 1040 153 l 1039 144 q 1035 151 1038 151 q 1026 151 1032 151 l 1026 129 l 1042 129 l 1047 140 l 1050 140 l 1049 126 l 1049 125 l 1008 125 l 1008 128 q 1014 130 1014 128 q 1014 138 1014 132 l 1014 172 q 1013 177 1015 176 q 1008 179 1011 178 l 1008 181 m 1001 179 q 997 178 1000 178 q 994 176 994 178 l 994 138 q 994 130 994 132 q 1001 128 994 128 l 1001 125 l 978 125 l 978 128 q 983 133 982 128 q 983 146 983 139 q 983 160 983 153 q 983 171 982 168 q 981 163 983 169 q 974 148 978 156 q 968 134 971 140 q 965 125 965 128 l 961 125 q 958 134 961 128 q 952 148 956 140 q 946 162 949 156 q 943 169 943 168 q 944 160 944 167 q 943 146 943 153 q 944 133 943 139 q 949 128 944 128 l 949 125 l 932 125 l 932 128 q 939 131 939 129 q 939 138 939 132 l 939 169 q 932 179 939 178 l 932 181 l 951 181 q 953 174 951 179 q 958 161 956 168 q 964 148 961 154 q 967 142 967 142 q 969 148 967 142 q 974 161 971 154 q 979 174 976 168 q 982 181 982 179 l 1001 181 l 1001 179 m 464 133 q 467 162 471 144 q 451 179 463 179 q 439 172 446 179 q 436 144 432 161 q 451 128 440 128 q 464 133 458 128 m 640 133 q 643 162 647 144 q 628 179 639 179 q 615 172 622 179 q 613 144 608 161 q 628 128 617 128 q 640 133 635 128 m 833 133 q 836 162 840 144 q 821 179 832 179 q 808 172 815 179 q 806 144 801 161 q 821 128 810 128 q 833 133 828 128 m 694 157 q 697 172 700 164 q 682 176 693 179 l 682 154 q 694 157 692 154 m 1086 157 q 1088 172 1092 164 q 1075 176 1085 179 l 1075 154 q 1086 157 1085 154 m 1222 147 q 1219 156 1221 150 q 1215 165 1217 163 q 1212 156 1214 163 q 1208 147 1210 150 l 1222 147 z "},"5":{"ha":626,"x_min":64,"x_max":572,"o":"m 565 247 q 500 135 544 182 q 398 56 456 88 q 275 8 340 25 q 147 -14 210 -10 q 92 -17 104 -17 q 78 -11 81 -17 q 74 13 75 -8 q 71 88 74 35 l 67 182 l 72 186 q 83 190 75 189 q 115 190 90 190 q 178 194 140 190 q 253 206 215 197 q 322 231 290 215 q 365 268 353 246 q 372 280 371 275 q 371 297 372 285 q 346 363 369 331 q 285 422 322 396 q 199 465 247 449 q 101 485 151 482 q 78 487 85 486 q 68 490 71 488 q 66 503 67 492 q 65 540 65 514 q 65 608 65 565 q 64 717 64 651 q 64 836 64 792 q 65 903 64 881 q 66 933 65 926 q 68 942 67 940 q 78 943 69 943 q 111 943 88 943 q 176 942 135 943 q 285 940 218 942 q 368 940 329 940 q 436 938 407 939 q 500 936 471 938 q 503 918 503 933 q 501 858 504 903 q 494 794 497 797 q 464 791 493 792 q 371 788 435 790 q 284 784 321 785 q 244 783 247 783 q 241 778 242 783 q 242 746 240 774 q 244 713 243 731 q 244 685 244 694 l 246 660 l 257 657 q 272 651 261 656 q 294 643 283 647 q 469 536 399 603 q 565 386 540 469 q 572 359 571 369 q 572 317 572 349 q 571 273 572 283 q 565 247 569 263 z "},"6":{"ha":850,"x_min":56,"x_max":807,"o":"m 432 658 q 465 663 449 661 q 497 664 482 664 q 622 642 564 664 q 721 578 679 619 q 797 419 786 513 q 761 229 807 325 q 624 69 714 135 q 426 -15 533 3 q 376 -21 403 -19 q 326 -19 349 -22 q 167 40 235 -11 q 75 169 100 90 q 63 224 67 193 q 57 290 58 256 q 57 360 56 325 q 64 428 58 396 q 102 566 75 499 q 169 694 129 633 q 263 805 210 754 q 378 890 315 856 q 460 931 431 919 q 517 942 490 942 l 535 942 l 603 860 q 638 817 625 833 q 658 790 651 800 q 668 776 665 781 q 671 768 671 771 q 671 763 671 764 q 667 760 671 761 q 655 756 664 758 q 628 751 646 754 q 582 739 608 747 q 528 719 556 731 q 476 696 501 708 q 431 671 450 683 q 417 660 419 663 q 410 656 413 657 q 417 656 411 656 q 432 658 424 656 m 461 306 q 510 383 497 342 q 507 457 522 425 q 466 499 493 485 q 407 513 439 513 q 337 499 372 513 q 272 460 301 485 q 224 405 243 436 q 201 338 204 374 q 228 263 199 290 q 308 235 258 235 q 392 254 351 235 q 461 306 432 274 z "},"7":{"ha":664,"x_min":49,"x_max":624,"o":"m 65 -3 q 64 1 64 -1 q 70 17 64 3 q 92 65 76 32 q 136 163 107 99 q 247 407 197 296 q 334 599 297 518 q 391 724 371 679 q 411 771 411 769 q 408 775 414 775 q 393 774 407 775 q 356 770 379 772 q 303 766 333 768 q 240 761 274 764 q 140 753 174 756 q 90 750 106 750 q 73 753 74 750 q 69 765 72 757 q 65 792 68 768 q 58 845 61 817 q 51 899 54 874 q 49 928 49 924 q 51 935 49 935 q 72 936 53 935 q 122 938 90 938 q 197 940 154 939 q 288 943 240 942 q 467 947 411 946 q 526 947 524 949 q 544 922 529 946 q 577 869 560 899 q 609 815 594 840 q 624 786 624 790 q 607 740 624 782 q 549 597 590 697 q 512 511 532 560 q 470 410 492 463 q 427 308 449 358 q 389 217 406 258 q 356 138 372 175 q 328 74 340 101 q 310 29 317 46 q 301 11 303 13 q 296 7 299 8 q 283 6 293 6 q 257 4 279 6 q 206 1 235 3 q 144 -2 176 0 q 86 -6 111 -4 q 69 -6 74 -7 q 65 -3 65 -6 z "},"8":{"ha":654,"x_min":56,"x_max":599,"o":"m 586 621 q 543 508 574 561 q 472 419 513 456 l 461 408 l 478 401 q 541 360 514 388 q 579 299 568 332 q 580 183 599 243 q 510 72 561 124 q 385 -8 457 19 q 243 -28 314 -35 q 126 17 175 -21 q 67 114 78 56 q 65 160 64 131 q 72 206 67 189 q 115 288 85 247 q 182 353 146 328 q 195 363 193 360 q 192 368 197 365 q 169 381 185 371 q 142 403 153 392 q 77 503 99 443 q 63 631 56 564 q 92 744 68 689 q 156 844 117 800 q 249 916 196 889 q 363 943 301 943 q 509 888 451 943 q 586 749 567 833 q 590 722 589 739 q 590 685 590 704 q 590 649 590 667 q 586 621 589 632 m 381 517 q 426 538 407 522 q 456 576 446 554 q 468 624 467 599 q 458 674 469 649 q 421 715 446 700 q 368 729 396 729 q 316 717 340 729 q 276 681 292 704 q 258 597 247 639 q 292 538 265 563 q 356 513 319 513 q 381 517 364 513 m 401 225 q 397 285 408 260 q 358 317 385 310 q 311 305 336 321 q 271 260 286 289 q 258 189 251 224 q 290 142 264 154 q 313 138 299 138 q 371 165 347 138 q 401 225 394 193 z "},"9":{"ha":851,"x_min":53,"x_max":793,"o":"m 419 260 q 434 269 428 265 q 439 274 440 274 q 433 274 439 275 q 418 272 426 274 q 385 268 401 269 q 351 267 368 267 q 235 286 289 267 q 140 342 181 306 q 76 429 100 378 q 53 543 53 481 q 53 582 53 568 q 57 608 54 596 q 114 744 72 682 q 214 853 156 807 q 343 924 272 899 q 488 950 414 950 q 660 905 583 950 q 769 776 738 860 q 788 705 782 743 q 793 607 793 667 q 771 439 793 522 q 708 281 749 356 q 607 145 667 207 q 472 40 547 83 q 390 -1 419 10 q 332 -12 360 -12 l 314 -12 l 247 69 q 212 113 225 97 q 191 139 199 129 q 181 153 183 149 q 179 161 179 158 q 179 167 179 165 q 183 171 179 169 q 195 174 186 172 q 222 178 204 175 q 268 190 242 182 q 322 210 294 199 q 374 234 349 221 q 419 260 400 247 m 343 472 q 396 425 360 439 q 479 421 432 411 q 540 444 510 428 q 594 483 569 460 q 633 535 618 506 q 647 599 647 565 q 647 623 649 617 q 642 639 646 629 q 600 681 628 668 q 540 694 572 694 q 461 676 501 694 q 388 625 421 658 q 340 546 351 588 q 343 472 328 504 z "},"\u0000":{"ha":0,"x_min":0,"x_max":0,"o":""},"\r":{"ha":0,"x_min":0,"x_max":0,"o":""}," ":{"ha":439,"x_min":0,"x_max":0,"o":""},"\n":{"ha":0,"x_min":0,"x_max":0,"o":""},"!":{"ha":344,"x_min":67,"x_max":282,"o":"m 282 992 q 281 960 282 992 q 278 876 281 928 q 272 758 275 825 q 266 622 269 692 q 258 482 263 551 q 251 356 254 413 q 246 260 249 299 q 242 210 243 221 q 240 199 242 203 q 232 194 239 196 q 209 191 225 192 q 164 188 193 190 q 118 185 135 186 q 94 183 101 183 q 84 184 86 183 q 81 186 82 185 q 78 222 79 188 q 76 314 78 257 q 74 443 75 371 q 71 590 72 515 q 69 738 69 665 q 67 866 68 810 q 67 957 67 922 q 68 993 67 992 q 103 997 69 996 q 175 997 136 997 q 247 995 214 996 q 282 992 281 994 m 226 150 q 230 135 231 149 q 222 69 229 122 q 216 25 218 40 q 208 3 214 10 q 192 -7 203 -4 q 157 -14 181 -10 q 119 -22 136 -18 q 100 -26 103 -25 q 92 -24 94 -26 q 88 2 90 -22 q 85 55 86 26 q 84 107 85 83 q 85 132 83 131 q 108 136 86 133 q 155 142 129 139 q 203 148 181 146 q 226 150 225 150 z "},"\"":{"ha":522,"x_min":44,"x_max":486,"o":"m 468 971 q 469 860 486 903 q 394 778 453 817 q 365 761 374 765 q 351 760 356 757 q 351 786 342 765 q 361 815 357 797 q 363 835 365 832 l 356 836 q 349 837 353 836 q 339 838 344 838 q 281 915 281 844 q 283 963 281 946 q 297 988 286 979 q 329 1001 307 997 q 390 1008 351 1004 q 449 1008 436 1014 q 468 971 461 1001 m 154 1006 q 213 1005 200 1011 q 232 968 225 999 q 233 857 250 900 q 158 775 217 814 q 119 756 129 756 q 113 760 115 756 q 110 767 110 764 q 114 781 111 771 q 124 810 119 792 q 126 832 129 829 q 119 833 124 833 q 103 835 115 835 q 44 913 44 840 q 47 960 44 943 q 60 985 50 976 q 93 998 71 994 q 154 1006 115 1001 z "},"":{"ha":522,"x_min":44,"x_max":486,"o":"m 468 971 q 469 860 486 903 q 394 778 453 817 q 365 761 374 765 q 351 760 356 757 q 351 786 342 765 q 361 815 357 797 q 363 835 365 832 l 356 836 q 349 837 353 836 q 339 838 344 838 q 281 915 281 844 q 283 963 281 946 q 297 988 286 979 q 329 1001 307 997 q 390 1008 351 1004 q 449 1008 436 1014 q 468 971 461 1001 m 154 1006 q 213 1005 200 1011 q 232 968 225 999 q 233 857 250 900 q 158 775 217 814 q 119 756 129 756 q 113 760 115 756 q 110 767 110 764 q 114 781 111 771 q 124 810 119 792 q 126 832 129 829 q 119 833 124 833 q 103 835 115 835 q 44 913 44 840 q 47 960 44 943 q 60 985 50 976 q 93 998 71 994 q 154 1006 115 1001 z "},"":{"ha":522,"x_min":44,"x_max":486,"o":"m 468 971 q 469 860 486 903 q 394 778 453 817 q 365 761 374 765 q 351 760 356 757 q 351 786 342 765 q 361 815 357 797 q 363 835 365 832 l 356 836 q 349 837 353 836 q 339 838 344 838 q 281 915 281 844 q 283 963 281 946 q 297 988 286 979 q 329 1001 307 997 q 390 1008 351 1004 q 449 1008 436 1014 q 468 971 461 1001 m 154 1006 q 213 1005 200 1011 q 232 968 225 999 q 233 857 250 900 q 158 775 217 814 q 119 756 129 756 q 113 760 115 756 q 110 767 110 764 q 114 781 111 771 q 124 810 119 792 q 126 832 129 829 q 119 833 124 833 q 103 835 115 835 q 44 913 44 840 q 47 960 44 943 q 60 985 50 976 q 93 998 71 994 q 154 1006 115 1001 z "},"#":{"ha":844,"x_min":53,"x_max":794,"o":"m 769 435 q 771 431 771 433 q 769 422 771 429 q 762 403 767 415 q 747 367 757 390 q 728 323 736 342 q 719 303 721 304 q 649 294 718 294 q 610 294 633 294 q 571 293 588 293 l 531 290 l 511 224 q 497 175 503 196 q 489 153 490 154 q 465 149 488 151 q 417 144 443 146 q 368 143 390 143 q 343 144 346 143 q 344 161 342 146 q 351 198 346 176 q 363 243 356 219 q 376 285 369 267 q 365 287 376 286 q 338 288 353 288 q 310 286 324 288 q 296 283 297 285 q 288 264 294 283 q 275 217 282 244 q 260 169 267 189 q 251 146 254 149 q 225 142 249 143 q 174 140 201 140 q 123 140 146 139 q 99 143 100 140 q 100 159 97 144 q 108 194 103 174 q 118 237 113 214 q 129 276 124 260 q 125 280 131 279 q 92 281 119 281 l 53 281 l 54 431 l 169 433 l 182 479 q 190 515 186 499 q 196 533 194 531 q 171 542 199 542 q 144 554 144 544 q 140 576 143 558 q 132 613 138 593 q 121 664 125 647 q 121 688 117 681 q 138 694 125 694 q 179 694 151 694 l 236 694 l 250 747 q 261 785 257 769 q 267 803 265 801 q 294 806 268 804 q 352 808 321 807 q 410 810 383 810 q 440 810 438 811 q 443 797 446 808 q 429 746 440 785 q 419 709 422 725 q 415 692 415 693 q 456 689 415 689 l 497 689 l 522 776 q 541 838 533 813 q 550 865 549 864 q 565 868 551 867 q 597 871 578 869 q 640 873 617 872 q 682 874 663 874 q 694 873 690 874 q 697 863 697 872 q 690 835 696 854 q 674 778 685 815 q 664 742 668 758 q 656 714 660 726 q 649 688 651 700 q 671 686 658 688 q 693 686 681 686 q 721 685 706 686 q 770 683 754 683 q 790 677 786 682 q 788 659 794 672 q 769 619 782 646 q 751 578 758 596 q 743 556 743 560 q 724 549 742 551 q 682 547 706 547 q 637 545 658 546 q 607 544 615 544 q 606 542 607 544 q 602 532 604 540 q 595 508 600 524 q 583 468 590 493 l 574 436 l 669 438 q 739 437 710 438 q 769 436 768 436 l 769 435 m 436 488 q 448 525 443 510 q 453 542 453 540 q 440 545 453 544 q 413 545 428 546 q 384 542 397 544 q 369 538 371 540 q 363 519 368 535 q 353 485 358 503 q 343 451 347 467 q 339 436 339 436 q 351 435 339 435 q 381 435 364 435 l 421 435 l 436 488 z "},"$":{"ha":635,"x_min":50,"x_max":582,"o":"m 457 540 q 547 467 517 507 q 580 383 578 426 q 556 295 582 339 q 472 214 529 251 q 455 203 467 210 q 431 191 443 197 q 408 181 418 185 q 396 176 399 176 q 392 160 393 176 q 393 94 392 144 q 392 28 393 44 q 389 8 392 11 q 364 6 388 7 q 312 4 340 4 q 260 6 283 4 q 233 10 236 7 q 232 24 232 11 q 233 54 232 36 q 235 92 233 72 q 239 129 238 113 l 240 143 l 194 143 q 161 144 178 143 q 130 147 144 146 q 106 151 115 149 q 93 154 96 153 q 93 166 93 156 q 94 192 93 176 q 98 225 96 207 q 101 260 100 243 q 102 272 101 264 q 104 290 103 281 q 108 311 106 308 q 125 308 110 314 q 169 303 142 303 q 244 313 207 303 q 294 342 282 324 q 298 374 308 360 q 250 403 288 388 q 113 493 161 440 q 57 603 64 546 q 86 717 50 661 q 203 814 122 772 l 218 822 l 218 881 q 217 932 218 906 q 215 972 217 958 q 214 998 214 989 q 221 1011 214 1007 q 246 1017 228 1015 q 299 1021 264 1018 q 350 1024 333 1024 q 374 1020 367 1025 q 381 1002 381 1015 q 382 963 382 989 q 385 908 383 928 q 388 881 386 889 q 391 871 389 872 q 397 871 393 869 q 421 873 401 872 q 463 874 440 874 q 507 873 486 874 q 535 871 528 872 q 547 863 546 869 q 546 828 549 856 q 543 800 544 817 q 540 769 542 783 q 538 739 539 749 q 533 725 536 729 q 521 720 529 721 q 497 718 513 719 q 372 658 397 714 q 376 600 357 626 q 457 540 394 574 z "},"%":{"ha":924,"x_min":42,"x_max":881,"o":"m 744 1007 q 736 983 744 1006 q 713 922 728 960 q 680 832 699 883 q 639 724 661 781 q 592 599 618 667 q 540 463 567 531 q 490 334 514 396 q 450 226 467 272 q 417 140 433 181 q 390 69 401 100 q 372 21 379 39 q 364 1 364 3 q 356 -3 363 -3 q 326 1 349 -3 q 253 14 303 4 q 180 27 203 22 q 156 35 157 32 q 160 49 156 36 q 179 96 164 61 q 221 193 194 131 q 292 357 247 256 q 399 603 336 458 q 549 946 463 747 q 555 960 553 956 q 566 969 557 965 q 596 978 575 974 q 660 994 617 983 q 712 1008 694 1004 q 736 1011 729 1011 q 744 1007 743 1011 m 381 676 q 363 602 381 638 q 317 542 346 567 q 251 506 288 518 q 175 501 214 494 q 83 552 115 513 q 46 641 50 592 q 67 739 42 690 q 149 814 93 788 q 225 832 185 832 q 285 821 257 832 q 335 789 314 810 q 368 740 356 768 q 381 676 381 711 m 136 622 q 182 600 150 600 q 217 607 199 600 q 263 637 244 618 q 289 675 282 656 q 290 712 296 694 q 261 735 283 729 q 210 732 238 742 q 163 703 183 722 q 134 663 143 685 q 136 622 125 640 m 649 478 q 725 496 685 496 q 785 485 757 496 q 834 453 813 474 q 868 403 856 432 q 881 339 881 374 q 863 265 881 300 q 815 206 844 231 q 749 170 786 182 q 675 165 713 158 q 583 217 615 176 q 546 306 550 257 q 567 403 542 354 q 649 478 592 451 m 715 271 q 756 294 739 279 q 783 325 774 308 q 793 358 793 342 q 782 386 793 375 q 740 401 764 401 q 661 367 700 401 q 635 330 642 349 q 631 297 628 311 q 647 273 635 282 q 679 264 660 264 q 697 265 688 264 q 715 271 706 267 z "},"&":{"ha":703,"x_min":56,"x_max":671,"o":"m 594 428 q 643 409 626 415 q 665 397 660 403 q 668 383 671 390 q 657 363 665 376 q 590 267 629 315 q 511 182 551 218 l 488 158 l 489 78 q 489 3 490 21 q 469 -14 488 -14 q 429 -10 457 -14 q 406 -7 414 -8 q 393 -1 397 -6 q 388 13 389 3 q 385 42 388 24 q 381 70 382 58 q 378 82 379 82 q 207 31 288 31 q 128 49 163 31 q 75 103 93 67 q 57 194 56 143 q 80 304 58 246 q 141 425 101 363 q 236 547 181 488 q 254 568 247 560 q 258 575 261 576 q 181 563 215 563 q 104 590 129 563 q 85 659 79 617 q 125 753 90 701 q 226 853 160 804 q 242 866 236 860 q 249 874 249 872 q 251 899 249 876 q 257 951 254 921 l 264 1024 l 311 1022 q 361 1018 357 1022 q 364 1007 363 1017 q 367 985 365 997 q 369 959 368 972 q 369 938 369 946 q 371 933 369 933 q 382 935 372 932 q 428 945 404 942 q 469 949 451 949 q 500 943 494 949 q 510 909 507 938 q 515 819 513 881 l 517 790 l 486 788 q 419 775 450 786 q 370 750 388 764 q 352 723 353 736 q 376 703 351 710 q 422 701 393 697 q 488 718 451 706 q 499 711 496 721 q 510 668 503 701 q 517 625 514 639 q 518 604 519 611 q 512 594 517 597 q 497 588 507 592 q 410 533 454 568 q 329 456 367 497 q 263 373 292 415 q 218 297 233 331 q 206 241 203 263 q 233 219 208 219 q 306 245 263 219 q 390 307 349 271 q 466 381 432 343 q 513 442 500 418 q 517 449 515 446 q 522 451 518 451 q 544 446 529 451 q 594 428 560 440 z "},"'":{"ha":286,"x_min":44,"x_max":250,"o":"m 232 965 q 233 854 250 897 q 158 772 217 811 q 121 753 129 753 q 113 758 117 753 q 110 766 110 763 q 115 781 110 769 q 125 809 121 792 q 126 829 129 826 l 119 831 q 113 831 117 831 q 103 832 108 832 q 68 838 81 835 q 51 847 56 840 q 45 869 46 854 q 44 910 44 883 q 47 957 44 940 q 60 983 50 974 q 93 995 71 992 q 154 1003 115 999 q 213 1002 200 1008 q 232 965 225 996 z "},"":{"ha":286,"x_min":44,"x_max":250,"o":"m 232 965 q 233 854 250 897 q 158 772 217 811 q 121 753 129 753 q 113 758 117 753 q 110 766 110 763 q 115 781 110 769 q 125 809 121 792 q 126 829 129 826 l 119 831 q 113 831 117 831 q 103 832 108 832 q 68 838 81 835 q 51 847 56 840 q 45 869 46 854 q 44 910 44 883 q 47 957 44 940 q 60 983 50 974 q 93 995 71 992 q 154 1003 115 999 q 213 1002 200 1008 q 232 965 225 996 z "},"":{"ha":286,"x_min":44,"x_max":250,"o":"m 232 965 q 233 854 250 897 q 158 772 217 811 q 121 753 129 753 q 113 758 117 753 q 110 766 110 763 q 115 781 110 769 q 125 809 121 792 q 126 829 129 826 l 119 831 q 113 831 117 831 q 103 832 108 832 q 68 838 81 835 q 51 847 56 840 q 45 869 46 854 q 44 910 44 883 q 47 957 44 940 q 60 983 50 974 q 93 995 71 992 q 154 1003 115 999 q 213 1002 200 1008 q 232 965 225 996 z "},"(":{"ha":519,"x_min":61,"x_max":451,"o":"m 431 58 q 447 46 442 50 q 447 37 451 42 q 427 24 443 32 q 381 3 411 17 q 329 -21 343 -14 q 310 -28 315 -28 q 304 -26 307 -28 q 297 -22 301 -25 q 169 96 222 18 q 89 277 117 174 q 61 501 61 381 q 92 746 61 621 q 118 829 103 786 q 149 908 133 872 q 178 968 164 944 q 200 992 192 992 q 239 994 207 993 q 308 996 271 994 q 374 997 344 997 q 404 997 403 997 q 388 965 411 993 q 301 824 335 903 q 252 658 267 744 q 242 484 238 572 q 269 315 247 396 q 332 168 292 235 q 431 58 372 101 z "},")":{"ha":519,"x_min":67,"x_max":467,"o":"m 238 981 q 382 817 328 924 q 451 579 436 711 q 442 301 467 447 q 350 19 418 156 q 337 -8 342 1 q 324 -22 332 -18 q 299 -26 315 -26 q 249 -28 282 -26 q 190 -29 219 -28 q 147 -31 160 -31 q 125 -32 135 -32 q 114 -31 115 -32 q 131 3 108 -24 q 217 144 183 65 q 266 310 251 224 q 276 484 281 396 q 249 652 271 572 q 186 799 226 732 q 88 908 146 865 q 72 922 76 917 q 72 931 67 926 q 92 944 76 936 q 139 965 108 951 q 185 987 171 981 q 210 993 200 993 q 222 990 217 993 q 238 981 228 988 z "},"*":{"ha":685,"x_min":50,"x_max":638,"o":"m 635 494 q 636 458 635 472 q 633 437 638 444 q 618 426 629 429 q 583 424 607 424 q 464 428 547 424 q 438 429 449 429 q 426 428 426 429 q 435 414 431 421 q 442 399 438 407 q 453 379 447 390 q 488 317 476 338 q 499 285 499 296 q 490 268 500 275 q 461 249 481 261 q 434 230 444 238 q 417 222 424 222 q 392 242 404 222 q 349 311 379 263 q 329 343 338 331 q 319 356 321 356 q 309 343 318 356 q 289 311 300 331 q 247 242 260 263 q 222 222 233 222 q 205 230 215 222 q 176 249 194 238 q 147 267 157 261 q 139 285 138 274 q 152 317 140 296 q 188 381 164 338 q 206 417 199 401 q 214 433 214 432 q 195 436 214 435 q 150 438 176 438 q 111 440 126 439 q 86 440 96 440 q 71 441 76 440 q 60 443 65 442 q 51 456 53 446 q 53 504 50 467 q 56 538 54 526 q 63 555 57 550 q 81 560 68 560 q 121 560 94 560 q 178 562 167 561 q 192 564 190 563 q 181 584 193 564 q 151 632 169 604 q 120 684 131 667 q 111 711 110 701 q 126 728 113 721 q 167 750 140 736 q 200 767 188 761 q 222 774 213 774 q 246 756 235 774 q 281 694 257 739 q 307 645 296 665 q 319 625 318 625 q 331 646 325 635 q 358 694 344 667 q 383 739 374 722 q 399 764 393 756 q 409 775 406 772 q 417 776 413 778 q 438 767 421 775 q 474 748 456 758 q 509 729 493 738 q 526 718 525 721 q 530 712 529 715 q 526 700 531 708 q 514 677 522 692 q 489 636 506 663 q 462 590 474 610 q 449 569 450 571 q 463 566 447 567 q 532 567 479 565 q 594 569 574 568 q 624 563 615 569 q 633 542 632 557 q 635 494 633 526 z "},"+":{"ha":478,"x_min":47,"x_max":432,"o":"m 356 622 q 400 624 385 624 q 423 622 415 624 q 431 617 431 621 q 431 606 432 613 q 428 588 429 601 q 425 560 428 575 q 423 528 424 539 q 416 514 422 518 q 394 509 410 510 q 350 507 379 508 q 303 506 322 507 q 282 504 283 506 q 278 478 281 504 q 272 408 275 453 q 268 349 269 371 q 265 318 267 328 q 260 308 263 308 q 251 310 257 307 q 235 314 249 311 q 206 319 222 317 q 160 331 164 326 q 156 351 158 332 q 152 395 154 369 q 149 448 150 421 q 147 493 147 475 q 101 503 147 503 q 67 503 79 503 q 51 508 56 503 q 47 526 47 514 q 49 561 47 538 q 51 592 50 582 q 57 607 53 603 q 70 612 61 611 q 97 614 79 613 q 124 614 115 614 q 136 620 133 614 q 138 641 139 626 q 136 685 138 656 q 134 733 135 717 q 140 756 133 749 q 162 765 146 763 q 210 769 178 767 q 249 774 233 772 q 275 776 265 776 q 297 763 297 776 q 293 707 296 749 q 290 659 292 681 q 289 632 289 638 l 289 621 l 356 622 z "},",":{"ha":290,"x_min":46,"x_max":251,"o":"m 233 200 q 235 89 251 132 q 158 7 218 46 q 130 -10 139 -6 q 117 -11 121 -14 q 117 15 107 -6 q 126 44 122 26 q 128 64 131 61 q 121 65 125 65 q 104 68 113 68 q 46 146 46 74 q 49 192 46 175 q 62 217 51 208 q 94 230 72 226 q 156 238 117 233 q 192 240 179 240 q 214 237 206 240 q 226 224 222 233 q 233 200 229 215 z "},"-":{"ha":651,"x_min":43,"x_max":608,"o":"m 607 581 q 608 528 608 539 q 604 514 607 517 q 559 508 601 513 q 455 500 517 504 q 321 492 393 496 q 188 485 249 488 q 85 481 126 482 q 43 481 43 479 q 43 499 43 482 q 46 540 43 517 q 49 583 49 564 q 49 608 50 603 q 49 617 49 613 q 50 624 49 621 q 87 626 50 625 q 179 631 124 628 q 301 636 235 633 q 427 641 368 639 q 531 644 486 643 q 586 644 575 644 l 607 643 l 607 581 z "},".":{"ha":282,"x_min":44,"x_max":238,"o":"m 235 204 q 235 182 238 201 q 225 100 233 163 q 218 40 221 61 q 213 7 215 18 q 207 -6 210 -4 q 200 -7 204 -7 q 176 -6 199 -7 q 124 -1 154 -4 q 75 3 92 1 q 51 7 58 4 q 45 16 44 10 q 47 33 46 22 q 56 88 51 58 q 65 143 61 117 q 73 188 69 169 q 78 208 76 207 q 103 210 79 210 q 155 209 126 210 q 208 207 183 208 q 235 204 233 206 z "},"/":{"ha":797,"x_min":68,"x_max":728,"o":"m 644 1158 q 694 1171 678 1167 q 718 1175 711 1175 q 728 1169 725 1175 q 719 1147 728 1169 q 697 1087 711 1124 q 663 1003 682 1050 q 625 906 644 956 q 587 809 606 857 q 554 724 568 761 q 506 599 532 667 q 455 463 481 531 q 406 334 429 396 q 365 226 382 272 q 333 140 349 181 q 306 69 317 100 q 287 21 294 39 q 279 1 279 3 q 271 -3 278 -3 q 240 1 263 -3 q 167 14 218 4 q 69 35 72 31 q 92 92 68 36 q 170 276 115 149 q 314 608 225 403 q 533 1110 403 813 q 540 1124 538 1119 q 551 1132 542 1128 q 581 1142 560 1136 q 644 1158 601 1147 z "},":":{"ha":285,"x_min":50,"x_max":235,"o":"m 168 865 q 204 874 192 871 q 224 876 217 876 q 232 860 235 876 q 228 827 231 854 q 222 768 225 800 q 217 710 219 735 q 213 685 214 686 q 192 683 211 685 q 151 678 174 681 q 107 674 128 676 q 81 672 86 672 q 75 675 78 672 q 75 681 75 678 q 76 693 75 683 q 79 721 76 703 q 86 772 82 739 q 93 820 90 804 q 103 844 96 836 q 124 855 110 851 q 168 865 139 858 m 153 576 q 211 578 201 579 q 218 565 221 576 q 213 540 217 563 q 203 485 210 517 q 194 433 197 450 q 184 409 190 417 q 166 401 178 401 q 131 399 154 400 q 92 395 110 396 q 69 393 74 394 q 53 396 56 393 q 50 404 50 399 q 56 433 50 407 q 69 489 63 458 q 83 544 76 519 q 90 571 89 569 q 110 574 92 572 q 153 576 128 575 z "},";":{"ha":306,"x_min":51,"x_max":257,"o":"m 114 700 q 94 699 99 699 q 86 703 89 700 q 87 733 83 706 q 97 791 90 760 q 110 849 103 822 q 121 879 117 876 q 138 883 122 881 q 174 886 153 885 q 211 890 193 889 q 233 893 229 892 q 251 890 249 896 q 247 860 253 885 q 240 823 244 849 q 233 771 236 797 q 226 728 229 742 q 219 708 224 714 q 205 701 214 701 q 176 701 196 701 q 143 701 161 701 q 114 700 125 700 m 161 582 q 198 585 185 585 q 219 581 211 585 q 231 568 228 576 q 239 544 235 560 q 240 433 257 476 q 165 351 224 390 q 136 334 146 338 q 122 333 126 331 q 118 342 118 336 q 124 364 118 349 q 134 400 135 392 q 122 410 133 408 q 80 415 94 413 q 59 425 65 418 q 52 447 53 432 q 51 490 51 463 q 54 536 51 519 q 67 562 57 553 q 100 574 78 571 q 161 582 122 578 z "},"<":{"ha":531,"x_min":39,"x_max":479,"o":"m 306 522 q 317 497 306 522 q 347 433 329 471 q 385 351 364 396 q 424 269 406 307 q 454 205 442 231 q 468 176 467 179 q 470 162 475 165 q 438 157 465 158 q 390 154 407 156 q 365 153 374 153 q 356 154 357 153 q 353 157 354 156 q 340 171 349 161 q 314 199 332 181 q 267 249 296 218 q 196 325 239 279 q 145 378 169 353 q 101 424 121 404 q 69 458 82 444 q 54 474 57 471 q 42 488 46 482 q 41 501 39 493 q 51 521 43 508 q 74 556 58 533 q 93 585 81 567 q 120 624 106 603 q 151 671 135 646 q 183 718 168 696 q 268 844 240 801 q 308 903 296 886 q 324 919 321 919 q 331 915 326 918 q 360 892 336 913 q 410 848 383 872 q 458 804 436 824 q 479 782 479 785 q 477 776 479 781 q 465 758 475 772 q 435 713 456 743 q 375 626 414 682 q 326 554 347 585 q 306 522 306 524 z "},"=":{"ha":676,"x_min":38,"x_max":639,"o":"m 424 758 q 397 753 419 756 q 347 751 374 751 q 299 751 321 750 q 275 754 278 751 q 274 783 274 757 q 278 841 275 810 q 284 899 281 872 q 290 929 288 926 q 316 938 293 932 q 366 948 339 943 q 416 956 393 953 q 440 957 439 960 q 440 924 442 956 q 435 857 438 893 q 428 790 432 821 q 424 758 425 760 m 636 672 q 638 648 638 668 q 638 605 639 628 q 636 563 638 582 q 633 543 635 544 q 594 540 631 542 q 503 536 558 538 q 381 534 447 535 q 251 533 314 533 q 170 534 208 533 q 103 535 132 535 q 56 537 74 536 q 39 539 39 538 q 38 563 38 542 q 39 608 38 583 q 43 653 40 632 q 47 676 46 674 q 92 678 49 678 q 201 680 136 679 q 342 680 267 681 q 483 678 418 679 q 592 675 549 676 q 636 672 636 674 m 264 472 q 276 476 267 475 q 301 478 286 478 q 332 480 315 479 q 364 481 349 481 q 397 480 383 481 q 413 476 410 479 q 414 448 415 475 q 410 390 413 421 q 403 332 407 358 q 397 303 400 306 q 372 294 396 300 q 322 284 349 289 q 272 276 294 279 q 247 275 249 274 q 248 307 246 276 q 253 374 250 338 q 259 441 256 411 q 264 472 263 471 z "},">":{"ha":529,"x_min":50,"x_max":490,"o":"m 456 564 q 478 529 471 542 q 488 509 486 517 q 487 496 490 501 q 476 482 483 490 q 428 432 469 475 q 335 333 388 389 q 263 257 292 288 q 217 208 235 226 q 190 178 199 189 q 176 164 181 168 q 168 160 175 160 q 151 160 167 160 q 114 163 135 161 q 60 168 68 165 q 63 185 53 171 q 76 213 64 188 q 107 277 89 239 q 146 360 125 315 q 184 442 167 404 q 213 504 201 479 q 225 531 225 529 q 204 563 225 532 q 154 635 183 593 q 95 719 117 689 q 64 765 74 750 q 52 785 54 781 q 50 790 50 789 q 61 801 50 792 q 92 819 72 810 q 139 833 111 828 q 200 831 167 839 q 271 799 233 824 q 347 726 308 775 q 378 679 363 704 q 410 633 394 654 q 437 593 425 611 q 456 564 449 575 z "},"?":{"ha":672,"x_min":46,"x_max":631,"o":"m 628 819 q 614 722 631 771 q 565 628 597 674 q 485 545 532 583 q 379 479 438 507 q 281 389 306 444 q 275 239 257 333 q 281 203 279 215 q 277 185 282 190 q 259 180 272 179 q 222 183 246 181 q 203 186 215 185 q 182 190 192 188 q 163 195 172 193 q 150 197 154 197 q 132 227 138 200 q 125 322 126 254 q 143 480 122 418 q 215 594 164 542 q 231 609 224 603 q 249 622 239 615 q 272 638 258 629 q 308 661 286 647 q 357 697 344 683 q 369 731 369 711 q 355 767 369 756 q 318 779 340 779 q 264 763 292 779 q 221 714 236 746 l 214 699 l 175 719 q 91 765 119 750 q 54 790 63 781 q 52 808 46 800 q 72 833 58 817 q 148 907 107 875 q 233 960 189 939 q 321 991 276 981 q 407 1001 365 1001 q 559 956 496 1001 q 628 819 622 910 m 257 140 q 274 142 267 142 q 282 142 281 143 q 283 123 283 140 q 283 85 283 106 q 281 45 282 64 q 279 24 281 26 q 262 8 278 17 q 225 -9 246 -1 q 183 -22 204 -17 q 150 -28 163 -28 q 136 -22 138 -28 q 135 7 135 -17 q 135 57 135 31 q 138 106 136 83 q 140 129 139 128 q 150 135 143 135 q 189 136 157 136 q 227 138 208 136 q 257 140 246 139 z "},"@":{"ha":815,"x_min":46,"x_max":775,"o":"m 228 839 q 315 868 271 858 q 403 878 358 878 q 567 844 490 878 q 695 756 644 811 q 760 630 746 700 q 738 485 775 560 q 648 382 704 417 q 539 347 592 347 q 455 375 492 347 q 410 460 418 403 q 403 490 406 488 q 385 488 401 492 q 365 483 376 485 q 347 479 354 481 q 316 473 319 475 q 315 460 313 471 q 293 442 317 442 q 231 451 271 442 q 219 487 222 454 q 219 557 215 519 q 269 688 231 644 q 356 731 308 731 q 447 685 404 731 q 504 549 489 640 q 513 494 511 506 q 519 479 515 482 q 529 474 524 474 q 547 483 538 474 q 563 506 556 492 q 574 540 569 521 q 581 578 579 558 q 566 659 583 624 q 518 719 549 694 q 448 755 488 743 q 367 767 408 767 q 290 756 328 767 q 219 725 251 746 q 163 672 188 704 q 128 599 139 640 q 131 512 117 554 q 178 438 146 469 q 256 388 211 406 q 351 375 301 369 q 362 376 358 376 q 369 372 365 376 q 376 358 372 368 q 388 328 381 347 l 396 304 l 383 306 q 372 306 378 306 q 363 307 365 306 q 216 351 279 317 q 113 433 153 385 q 60 537 74 481 q 58 649 46 593 q 113 756 71 706 q 228 839 156 806 m 353 535 q 381 542 379 540 q 374 551 382 543 q 350 561 363 561 q 324 546 335 561 q 319 528 310 525 q 331 531 322 529 q 353 535 340 532 z "},"A":{"ha":935,"x_min":38,"x_max":903,"o":"m 422 935 q 402 944 414 938 q 388 957 390 951 q 388 961 386 960 q 401 964 390 963 q 421 966 408 965 q 446 967 433 967 q 469 967 458 967 q 482 965 479 967 q 479 956 488 964 q 453 936 468 942 q 422 935 438 931 m 896 83 q 853 68 875 88 q 825 19 832 49 l 821 1 l 622 1 l 624 11 q 626 27 624 14 q 633 54 629 40 q 640 88 636 68 q 647 124 644 108 q 652 158 650 139 q 656 196 654 178 q 658 226 657 214 q 657 240 658 239 q 628 240 657 240 q 558 238 600 239 q 465 236 515 238 q 372 233 415 235 q 299 231 329 232 q 267 229 269 229 l 261 228 l 263 201 q 272 133 265 174 q 285 64 278 92 q 296 20 292 39 q 299 0 300 1 q 292 -2 297 -1 q 285 -3 288 -3 q 259 -1 283 -3 q 205 3 235 1 q 149 8 175 6 q 115 10 122 10 q 117 14 114 13 q 133 18 121 15 q 189 40 171 24 q 193 65 206 57 q 168 64 185 71 q 114 31 151 57 q 121 60 90 14 q 142 96 138 83 q 143 115 147 108 q 118 114 135 131 q 94 61 104 96 q 89 39 92 42 q 81 60 85 35 q 65 101 76 81 q 46 122 53 122 q 42 129 42 122 q 40 156 40 133 q 38 206 39 179 q 38 260 38 233 q 39 297 38 286 l 40 326 l 44 319 q 57 308 49 313 q 69 306 65 303 q 82 321 79 308 q 79 344 85 333 q 79 348 78 347 q 88 346 81 349 q 119 353 111 338 q 104 382 126 368 l 97 386 l 107 392 q 120 408 118 399 q 115 425 122 418 q 99 429 110 431 q 82 426 88 429 q 81 431 78 425 q 81 458 86 446 q 65 467 76 469 q 58 469 58 467 q 63 496 57 472 q 99 628 75 558 q 158 761 122 697 q 242 876 193 825 q 353 951 290 926 l 371 957 l 382 946 q 436 921 406 921 q 496 957 472 921 l 500 963 l 521 956 q 680 846 604 929 q 808 638 756 763 q 819 610 814 625 q 830 583 825 596 q 838 560 835 569 q 842 549 842 550 q 818 546 842 546 l 794 547 l 796 528 q 797 511 796 519 q 797 500 797 503 q 792 492 799 493 q 783 487 789 492 q 772 477 778 482 q 760 467 765 472 q 756 460 756 463 q 760 453 756 458 q 772 443 765 449 q 783 433 778 438 q 792 428 789 428 q 797 421 799 426 q 797 410 797 418 q 796 393 796 401 l 794 374 l 815 374 q 831 375 824 375 q 842 376 839 375 q 850 371 849 376 q 856 360 851 367 q 867 349 861 354 q 878 339 872 343 q 885 335 883 335 q 890 328 889 336 q 896 279 892 321 q 900 231 899 264 q 901 163 901 199 l 903 82 l 896 83 m 622 581 l 633 585 q 671 607 654 592 q 694 638 688 622 q 697 658 697 649 q 679 695 697 682 q 633 708 661 708 q 603 705 619 708 q 572 692 588 701 l 565 688 l 574 703 q 586 765 589 733 q 564 811 583 796 q 553 819 557 818 q 538 819 549 819 q 488 797 508 819 q 460 749 468 775 q 451 758 458 744 q 442 778 447 771 q 429 796 438 785 q 397 817 415 811 q 364 818 379 824 q 347 806 356 815 q 333 786 338 797 q 330 742 326 767 q 344 699 333 717 q 349 692 347 693 q 350 689 349 690 q 336 694 350 688 q 281 708 310 708 q 241 699 258 708 q 219 671 224 690 q 230 624 213 647 q 281 585 247 600 q 291 581 288 582 q 292 579 294 579 q 269 569 285 579 q 243 551 253 560 q 218 503 218 526 q 267 453 218 461 q 284 451 278 450 q 303 454 290 451 q 321 459 311 456 q 336 465 331 463 q 346 471 340 468 q 350 472 349 471 q 344 463 350 471 q 331 415 333 442 q 336 371 328 389 q 378 340 349 340 q 401 346 390 340 q 451 401 435 360 l 458 417 l 461 408 q 489 363 469 386 q 535 340 508 340 q 556 344 546 340 q 585 388 579 356 q 574 456 592 421 q 569 467 571 464 q 568 471 569 469 q 582 464 571 471 q 633 451 607 451 q 668 458 651 451 q 693 481 685 464 q 689 532 706 504 q 636 575 672 560 l 622 581 m 644 665 q 652 639 656 654 q 633 610 649 624 q 610 595 624 600 q 578 586 597 590 q 560 581 560 583 q 576 574 560 578 q 633 551 614 568 q 647 499 663 526 q 613 482 638 482 q 570 490 593 482 q 533 510 547 499 q 528 511 529 514 q 531 501 526 508 q 550 457 542 483 q 556 417 558 431 q 541 391 553 400 q 514 388 529 382 q 481 413 493 392 q 465 453 469 433 q 454 475 458 488 q 446 437 449 447 q 439 419 443 426 q 422 399 432 408 q 403 388 413 390 q 389 385 393 385 q 378 390 385 385 q 364 453 351 404 q 374 481 367 465 q 388 504 382 497 q 390 511 392 510 q 381 508 388 513 q 335 488 363 496 q 293 483 307 481 q 265 519 261 490 q 272 541 265 532 q 290 556 279 550 q 312 567 300 563 q 333 574 324 572 q 356 581 356 576 q 336 586 356 583 q 304 596 315 592 q 283 610 293 600 q 268 627 272 619 q 264 646 264 635 q 277 669 264 661 q 306 678 290 678 q 371 658 329 678 q 388 651 383 651 q 388 657 393 650 q 374 678 382 663 q 364 707 367 694 q 374 767 354 749 q 393 775 382 775 q 415 768 406 775 q 432 751 425 761 q 444 728 439 740 q 450 706 449 715 q 458 683 456 683 q 464 697 460 683 q 474 737 469 725 q 493 761 479 749 q 505 771 500 768 q 517 774 510 774 q 542 768 532 776 q 556 743 553 760 q 553 711 558 732 q 538 672 547 690 q 530 657 533 664 q 528 650 526 650 q 536 653 528 647 q 564 667 547 660 q 594 676 581 674 q 624 677 614 679 q 644 665 635 675 m 471 571 q 471 590 479 582 q 457 597 465 597 q 444 590 449 597 q 443 572 438 581 q 457 564 449 564 q 471 571 465 564 m 818 533 q 838 533 832 535 q 847 525 843 532 q 851 514 851 519 q 847 510 851 511 q 839 513 843 510 q 831 515 836 515 q 826 510 826 515 q 831 503 826 506 q 831 492 835 499 q 826 490 828 489 q 818 494 825 490 q 809 506 811 500 q 808 522 807 511 q 810 531 810 529 q 818 533 811 533 m 838 444 q 838 476 833 460 q 851 499 842 493 q 856 494 854 500 q 865 463 858 489 q 872 433 869 446 q 876 418 875 421 q 876 413 878 413 q 865 415 874 413 q 849 427 857 418 q 838 444 840 436 m 819 468 q 807 460 807 468 q 819 453 807 453 q 824 447 824 453 q 813 440 824 444 q 799 438 801 438 q 792 442 797 439 q 779 453 785 444 l 774 460 l 779 468 q 811 481 792 485 q 824 472 824 476 q 819 468 824 468 m 69 325 q 60 322 67 321 q 50 328 54 322 q 43 340 44 333 q 43 367 42 347 q 44 388 43 375 q 48 414 46 401 q 51 436 50 426 q 54 449 53 446 q 61 453 56 453 q 69 447 67 453 q 68 421 75 439 l 63 410 l 74 415 q 96 419 86 422 q 106 408 106 417 q 98 397 106 403 q 83 390 90 390 q 77 388 76 390 q 88 382 78 385 q 104 360 111 375 q 90 354 101 354 q 71 360 79 354 q 65 363 68 363 q 63 364 64 364 l 68 353 q 69 325 78 333 m 818 386 q 810 389 811 388 q 808 397 808 390 q 810 417 808 413 q 821 428 811 422 q 828 431 828 431 q 832 428 829 431 q 831 418 835 422 q 828 406 824 411 q 839 408 832 401 q 849 410 843 413 l 854 407 l 849 399 q 842 389 844 389 q 832 386 839 386 q 818 386 825 386 m 869 403 q 875 397 875 403 q 879 383 875 390 q 885 365 883 376 q 883 353 886 354 q 872 358 883 353 q 862 373 864 367 q 863 390 860 379 q 869 403 865 403 m 78 36 q 72 41 76 35 q 61 57 68 47 q 48 80 50 74 q 43 99 46 86 q 44 117 43 117 q 56 106 47 117 q 68 85 64 96 q 77 55 74 71 q 78 36 81 39 m 100 36 q 97 36 97 33 q 97 45 96 38 q 100 63 97 53 q 106 82 103 72 q 114 97 110 92 q 138 114 126 125 q 135 92 143 108 q 100 36 128 76 m 835 13 q 857 55 839 36 q 893 71 875 74 l 899 71 l 897 38 q 897 11 897 18 q 893 1 896 4 q 881 -1 890 -1 q 849 0 872 -1 l 833 1 l 835 13 m 71 29 q 58 33 69 24 q 49 54 50 40 q 47 64 47 60 q 49 67 47 68 q 54 59 50 65 q 62 47 58 53 q 68 35 65 40 q 71 29 71 29 m 182 42 q 165 33 176 38 q 143 25 154 28 q 123 21 132 22 q 113 21 114 19 q 119 28 111 22 q 139 41 128 33 q 161 54 150 49 q 176 61 172 60 q 194 58 192 65 q 182 42 196 50 m 88 32 q 101 24 93 32 q 108 13 108 17 q 103 9 108 10 q 79 11 99 8 q 68 15 68 11 q 76 25 68 18 q 88 32 83 32 m 53 28 q 59 27 56 31 q 63 21 63 24 q 58 19 63 18 q 53 22 54 19 l 53 28 z "},"B":{"ha":735,"x_min":69,"x_max":703,"o":"m 696 354 q 703 297 703 331 q 696 240 703 264 q 643 140 679 183 q 559 67 607 97 q 456 19 511 38 q 347 -8 401 0 q 315 -11 338 -10 q 266 -13 292 -12 q 218 -13 240 -14 q 185 -11 196 -12 q 145 -7 150 -8 q 140 1 140 -6 q 140 7 140 4 q 139 13 139 10 q 144 19 138 15 q 154 26 149 21 q 166 36 160 31 q 176 47 172 42 q 181 53 181 51 q 175 60 181 56 q 163 71 169 65 q 151 81 157 76 q 143 85 144 85 q 139 92 138 85 q 140 102 139 94 q 140 118 140 110 l 142 139 l 121 138 q 105 137 113 138 q 94 136 97 136 q 88 140 88 135 q 78 154 88 147 l 69 164 l 69 504 l 79 510 q 104 534 93 517 q 115 565 115 551 q 105 592 115 581 q 79 606 94 603 l 69 607 l 69 976 l 82 979 q 142 988 108 986 q 215 990 175 990 q 288 988 260 990 q 353 979 315 986 q 397 969 389 972 q 406 961 406 967 q 431 917 406 936 q 481 899 456 899 q 497 899 492 899 q 513 907 503 900 l 528 915 l 542 907 q 630 822 599 868 q 664 724 661 776 q 663 685 665 703 q 651 646 660 668 q 632 606 646 629 q 604 568 618 583 q 606 575 589 553 q 613 608 621 599 q 606 614 610 614 q 590 598 599 614 q 578 567 581 582 q 567 563 572 536 q 556 594 564 578 q 543 613 549 610 q 529 600 529 617 q 532 588 529 594 q 550 558 535 582 q 558 542 558 546 q 546 547 553 542 q 521 563 535 556 q 489 567 496 578 q 488 558 486 560 q 507 543 490 551 q 542 532 524 535 q 543 525 563 528 q 504 511 522 521 q 486 494 486 501 q 492 488 486 490 q 507 486 499 483 q 535 501 515 489 q 550 511 546 510 q 557 515 554 514 q 557 510 560 515 q 543 488 554 504 q 529 457 529 464 q 540 443 529 440 q 554 457 547 444 q 565 485 561 469 q 573 507 571 506 q 578 489 575 508 q 588 463 581 478 q 601 444 594 447 q 613 447 607 442 q 614 463 617 451 q 608 474 613 465 q 597 493 604 483 q 588 508 592 501 q 585 515 583 514 q 594 509 586 517 q 613 491 603 501 q 634 469 624 481 q 650 449 644 457 q 677 401 665 428 q 696 354 689 375 m 467 911 q 446 921 457 914 q 431 935 435 928 q 421 951 425 942 q 418 961 417 960 q 435 958 419 963 q 467 945 450 953 q 499 931 485 938 q 514 922 514 924 q 504 915 514 919 q 485 911 494 911 q 467 911 475 908 m 236 697 q 256 686 239 686 q 297 697 272 686 l 314 706 l 308 696 q 295 657 299 676 q 297 632 292 638 q 324 642 307 622 q 335 656 329 647 q 344 671 340 664 l 353 688 l 361 669 q 386 635 372 646 q 407 633 400 625 q 410 656 413 639 q 400 688 407 672 l 390 706 l 407 699 q 449 686 432 686 q 468 697 465 686 q 455 717 469 704 q 425 738 440 731 l 410 744 l 426 753 q 462 779 450 764 q 463 800 474 794 q 435 801 456 806 q 400 788 415 797 q 390 783 394 783 q 392 786 392 785 l 396 794 q 410 841 410 818 q 396 860 410 864 q 378 844 389 857 q 361 819 368 832 q 358 813 360 817 q 356 807 357 810 q 353 803 354 806 q 349 808 351 803 q 343 819 346 813 q 324 847 338 832 q 306 861 311 861 q 294 844 294 861 q 304 803 293 826 l 314 783 l 293 793 q 253 803 269 803 q 236 795 239 803 q 247 775 233 788 q 260 765 251 771 q 276 754 268 758 l 294 744 l 275 735 q 247 715 260 726 q 236 697 235 704 m 344 763 q 338 776 343 763 q 332 790 333 785 q 333 793 331 796 q 337 787 335 792 q 341 776 339 782 q 344 767 343 771 q 344 763 346 763 m 367 775 q 360 765 360 764 q 365 780 360 768 q 371 790 369 792 q 367 775 372 789 m 385 756 q 372 753 372 750 q 383 760 372 754 q 399 765 394 765 q 385 756 407 765 m 335 751 q 317 757 335 749 q 306 765 304 764 q 322 760 308 765 q 335 751 335 754 m 343 732 q 336 745 336 735 q 342 758 336 756 q 355 760 347 761 q 365 757 363 760 q 367 745 368 753 q 364 733 367 738 q 343 732 356 722 m 371 738 q 388 732 375 738 q 400 725 400 726 q 399 723 400 722 q 383 731 397 724 q 373 735 376 733 q 371 738 369 738 m 333 738 q 324 731 336 738 q 308 725 313 725 q 317 732 303 725 q 333 738 331 738 m 332 699 q 338 714 332 703 q 344 725 343 725 q 340 713 347 725 q 332 699 332 692 m 360 724 q 367 714 363 726 q 372 699 372 701 q 365 710 371 697 q 361 719 364 714 q 360 724 360 722 m 553 594 q 562 567 557 585 q 564 547 567 549 q 558 554 561 550 q 553 560 556 557 q 549 568 551 564 q 533 608 525 603 q 553 594 542 613 m 608 608 q 597 569 619 604 q 581 548 583 550 q 579 556 578 546 q 592 593 582 575 q 608 608 601 611 m 103 565 q 95 542 103 554 q 76 522 88 531 l 69 518 l 69 556 q 70 589 69 583 q 75 594 71 594 q 94 585 86 594 q 103 565 103 576 m 490 563 q 495 568 490 567 q 507 567 500 569 q 529 553 511 564 q 553 538 547 543 q 532 538 560 533 q 502 549 514 543 q 490 563 490 556 m 578 514 q 565 515 572 513 q 561 538 549 522 q 572 543 569 543 q 576 542 576 543 q 572 538 576 542 l 567 532 l 574 525 q 578 514 586 518 m 535 518 q 551 521 549 521 q 532 504 554 518 q 492 492 496 481 q 501 506 489 499 q 535 518 514 514 m 610 463 q 609 449 613 453 q 599 451 606 444 q 590 465 594 456 q 583 484 586 475 q 578 501 579 493 q 581 508 578 508 q 586 502 582 508 q 595 488 590 496 q 604 473 600 481 q 610 463 608 465 m 532 460 q 538 471 533 463 q 548 488 543 479 q 558 502 553 496 q 564 508 563 508 q 562 490 567 508 q 551 461 557 472 q 532 450 539 440 l 532 460 m 438 235 l 454 243 q 490 269 478 254 q 490 292 501 285 q 463 292 483 296 q 428 278 443 288 q 422 275 425 276 q 418 274 419 274 q 419 276 419 275 l 424 285 q 438 331 438 308 q 424 350 438 354 q 406 335 417 349 q 389 310 396 322 q 386 304 388 307 q 383 299 385 301 q 381 294 382 296 q 371 310 379 294 q 352 337 365 322 q 333 351 339 351 q 322 334 322 351 q 332 293 321 317 l 342 275 l 321 283 q 289 292 304 290 q 268 290 274 294 q 269 270 258 283 q 304 244 281 257 l 322 235 l 303 225 q 275 206 288 217 q 264 188 263 194 q 272 178 267 182 q 294 178 279 175 q 325 189 308 181 l 342 197 l 336 186 q 323 148 326 167 q 325 122 319 129 q 351 131 333 114 q 371 160 361 143 l 381 178 l 389 160 q 414 126 400 136 q 435 124 428 115 q 438 146 440 129 q 426 178 435 163 l 418 197 l 435 189 q 478 176 460 176 q 496 188 493 176 q 483 208 497 194 q 453 228 468 221 l 438 235 m 372 253 q 365 267 371 253 q 360 281 361 275 q 361 283 358 286 q 365 277 363 282 q 369 267 367 272 q 372 257 371 261 q 372 253 374 253 m 394 265 q 388 256 388 254 q 392 270 388 258 q 399 281 397 282 q 394 265 400 281 m 413 246 q 400 243 400 240 q 411 251 400 246 q 426 256 422 256 q 413 246 435 256 m 363 242 q 344 247 363 240 q 333 256 332 254 q 349 250 336 256 q 363 242 363 244 m 393 247 q 395 235 396 243 q 392 224 394 228 q 371 222 383 213 q 364 236 364 226 q 369 249 364 246 q 383 251 375 251 q 393 247 390 250 m 361 228 q 352 222 364 228 q 336 215 340 215 q 344 222 331 215 q 361 228 358 228 m 399 228 q 415 223 403 228 q 428 215 428 218 q 426 213 428 213 q 411 221 425 214 q 399 228 397 228 m 360 190 q 365 204 360 193 q 372 215 371 215 q 369 204 375 215 q 360 190 360 181 m 388 214 q 391 212 389 215 q 395 204 393 208 q 399 196 397 200 q 400 190 400 192 q 393 200 397 188 q 389 210 392 204 q 388 214 388 213 m 69 108 l 69 128 q 70 142 69 140 q 74 142 71 144 q 76 133 76 138 q 74 118 76 129 l 69 108 m 106 85 q 106 94 103 90 q 108 106 113 101 q 97 103 104 110 q 88 101 93 100 q 86 113 82 104 q 91 118 89 115 q 94 122 93 121 q 111 126 97 125 q 126 124 125 126 q 128 108 129 122 q 125 92 128 94 q 115 83 124 89 q 104 85 107 79 l 106 85 m 71 97 q 83 91 75 97 q 94 78 92 85 q 101 59 100 71 q 100 36 103 47 q 89 18 97 28 q 75 8 81 8 q 70 15 71 8 q 69 53 69 21 q 69 70 69 63 q 71 85 69 78 q 71 97 71 92 m 158 44 q 135 29 146 29 q 122 32 132 29 q 113 39 113 35 q 117 44 113 44 q 131 51 131 44 q 117 60 131 60 q 113 64 113 60 q 125 72 113 68 q 157 60 143 76 l 164 51 l 158 44 m 106 19 q 110 22 108 22 q 121 15 111 22 q 128 4 128 11 q 126 -3 128 -3 q 118 -1 125 -4 q 107 7 115 -1 q 106 19 101 14 z "},"C":{"ha":790,"x_min":19,"x_max":758,"o":"m 133 224 q 117 228 124 226 q 94 229 110 229 q 74 228 83 229 q 63 228 65 228 q 55 229 57 226 q 47 247 53 232 q 22 367 24 303 q 40 494 19 431 q 63 548 47 517 q 89 596 78 579 q 97 606 96 606 q 100 603 97 607 q 110 593 103 596 q 125 593 118 590 q 138 593 133 597 q 149 592 142 590 q 160 599 156 594 q 164 604 163 600 q 167 613 165 608 l 168 622 l 174 617 q 180 612 176 614 q 188 608 183 610 q 202 610 196 606 q 210 626 208 615 q 212 635 210 633 q 221 638 214 636 q 238 660 244 640 q 235 667 236 663 q 231 674 233 671 l 225 679 l 235 681 q 254 700 254 683 q 253 715 253 706 q 253 722 253 718 q 254 729 254 726 q 238 749 254 746 l 229 751 l 236 756 q 399 856 310 814 q 583 922 488 899 q 615 928 597 925 q 649 935 632 932 q 681 940 667 938 q 700 942 694 942 l 708 942 l 711 903 q 712 870 711 886 q 713 847 713 854 l 714 833 l 699 817 q 685 796 685 803 q 678 792 685 790 q 667 792 675 792 q 650 793 658 793 l 631 794 l 631 774 q 632 758 632 765 q 633 747 632 750 q 628 739 633 740 q 619 734 625 739 q 606 724 613 729 q 596 713 600 718 q 592 707 592 708 q 596 701 592 706 q 607 689 600 696 l 624 675 l 603 668 q 466 606 526 643 q 374 529 406 569 q 369 365 300 436 l 386 349 l 367 349 q 324 333 342 349 q 294 294 306 317 q 289 279 289 281 q 285 274 289 278 q 281 274 281 269 q 272 293 281 279 q 242 332 263 315 q 197 349 222 349 q 158 332 174 349 q 145 284 146 315 q 156 226 144 253 q 162 211 163 214 q 153 214 161 208 l 133 224 m 710 810 q 715 811 714 813 q 714 797 715 810 q 704 765 713 765 q 697 778 699 765 q 695 790 694 786 q 699 799 696 793 q 710 810 704 807 m 665 763 q 662 758 663 763 q 665 750 661 753 q 667 740 669 746 q 654 742 664 736 q 644 752 647 747 q 643 769 642 757 q 646 779 644 778 q 656 781 647 781 q 672 781 667 783 q 683 769 678 778 l 689 761 l 685 758 q 675 758 679 754 q 665 763 671 763 m 676 733 q 707 753 689 753 l 715 754 l 717 731 q 718 712 718 719 q 717 703 718 704 q 696 694 715 699 q 674 690 676 690 q 671 696 672 690 q 670 715 668 703 q 676 733 672 726 m 240 696 q 219 693 238 693 q 189 696 201 693 q 178 702 179 699 q 185 707 178 706 q 196 718 199 710 q 204 729 196 724 q 228 738 215 738 q 242 725 246 738 q 238 719 239 719 q 235 715 235 719 q 238 710 235 710 q 242 704 240 710 q 240 696 243 699 m 654 715 q 642 707 642 715 q 654 700 642 700 q 660 694 660 700 q 649 688 660 692 q 635 685 638 685 q 626 689 633 686 q 620 694 624 690 q 614 700 617 697 l 608 707 l 614 715 q 647 728 626 732 q 660 719 660 724 q 654 715 660 715 m 183 625 q 163 663 175 632 q 157 678 157 676 q 164 675 157 681 q 173 671 168 671 q 178 675 178 671 q 172 683 178 678 q 169 690 167 690 q 185 685 171 690 q 228 653 228 668 q 208 650 228 643 q 201 651 204 651 q 196 651 197 651 q 197 639 194 650 q 194 619 203 619 q 183 625 189 619 m 125 608 q 113 607 119 600 q 113 629 106 614 q 132 650 119 644 q 139 658 139 654 q 143 667 139 663 q 150 657 147 671 q 154 626 154 643 q 151 607 154 610 q 143 606 149 604 q 138 610 138 607 q 133 612 138 613 q 125 608 128 611 m 750 122 q 723 105 739 122 q 700 68 707 88 q 692 38 694 56 q 690 13 689 21 q 688 3 690 3 q 667 -1 682 1 q 633 -4 651 -3 q 595 -7 614 -6 q 565 -8 576 -8 l 543 -8 l 543 4 q 527 47 543 26 q 483 82 511 68 l 464 90 l 482 99 q 499 109 489 103 q 514 121 508 115 q 543 178 543 149 q 511 222 543 207 q 496 228 501 226 q 475 229 490 229 q 418 217 443 229 q 404 211 407 211 q 408 224 403 211 q 422 283 422 251 q 421 302 422 296 q 415 318 419 308 l 407 333 l 431 322 q 547 288 481 299 q 700 279 613 278 l 756 279 l 757 217 q 757 141 758 160 q 750 122 756 122 m 411 83 q 456 70 436 81 q 486 43 475 60 q 494 21 493 33 q 488 1 494 8 q 471 -6 482 -7 q 460 -6 465 -6 q 451 -4 454 -6 q 401 3 425 -1 q 372 11 378 8 q 356 14 361 14 q 342 17 353 14 q 316 24 331 19 q 286 35 301 29 q 258 46 271 40 q 165 101 210 68 q 92 171 119 135 q 84 182 85 179 q 89 189 83 185 q 115 196 96 196 q 179 178 144 196 q 206 165 203 168 q 208 169 208 164 q 206 176 208 175 q 194 196 201 179 q 182 228 186 213 q 197 296 169 281 q 214 301 208 301 q 237 294 226 301 q 255 274 247 286 q 267 250 263 263 q 275 228 272 238 q 279 210 278 214 q 282 201 281 206 q 292 226 286 197 q 299 251 294 238 q 312 275 304 264 q 330 294 319 286 q 353 301 340 301 q 381 286 368 301 q 388 242 392 272 q 365 182 383 211 q 371 169 350 156 q 392 181 379 175 q 417 190 404 186 q 441 196 429 194 q 458 196 453 197 q 489 178 482 192 q 492 160 493 171 q 488 140 492 149 q 476 124 485 132 q 456 110 467 117 q 433 101 444 104 q 414 97 422 97 q 401 94 413 97 q 411 83 381 88 m 754 71 q 753 24 756 32 q 736 13 750 15 q 724 9 731 10 q 713 7 717 8 l 701 6 l 703 25 q 716 73 706 51 q 742 104 726 94 l 754 113 l 754 71 m 296 76 q 299 97 304 85 q 283 110 294 110 q 271 103 276 110 q 265 89 265 96 q 271 76 265 82 q 283 71 276 71 q 296 76 290 71 z "},"D":{"ha":808,"x_min":64,"x_max":785,"o":"m 736 638 q 783 450 781 546 q 743 267 785 354 q 732 245 739 258 q 717 219 725 232 q 701 196 708 207 q 688 178 693 185 q 678 175 683 172 q 629 189 658 189 q 569 167 594 189 q 536 110 543 144 q 535 86 533 99 q 542 67 538 74 q 542 58 544 61 q 531 52 540 57 q 507 41 521 47 q 478 28 493 35 q 450 18 463 22 q 390 0 419 7 q 331 -10 361 -7 q 299 -12 318 -11 q 263 -15 281 -14 q 231 -17 244 -17 q 214 -15 217 -17 q 208 -12 211 -14 q 201 -7 204 -10 q 168 12 192 3 q 131 21 144 21 q 124 25 124 21 q 132 31 125 29 q 174 42 160 36 q 199 56 189 47 q 203 81 215 72 q 178 79 194 86 q 124 46 161 72 q 131 75 100 29 q 145 98 139 86 q 153 114 151 110 q 144 136 160 133 q 123 122 133 139 q 106 76 113 104 q 101 62 103 68 q 99 54 100 56 q 90 74 94 50 q 85 90 88 81 q 79 107 82 100 l 72 124 l 69 411 q 69 528 69 471 q 67 631 68 585 q 66 711 67 678 q 65 757 65 744 l 64 814 l 76 814 q 124 822 100 813 q 167 849 147 832 q 200 886 186 865 q 215 929 214 907 q 215 944 215 938 q 214 954 215 951 l 211 963 l 226 961 q 360 937 299 954 q 481 889 422 919 q 508 874 492 883 q 538 856 524 865 q 561 840 551 847 q 571 832 571 833 q 554 822 571 829 q 522 801 531 813 q 524 779 513 789 q 581 796 539 767 l 601 808 l 617 794 l 601 772 q 583 737 586 749 q 588 717 581 725 q 599 710 592 710 q 636 761 617 710 l 640 774 l 650 763 q 699 701 679 731 q 736 638 719 671 m 107 829 q 83 826 96 826 q 67 828 69 825 q 65 849 65 829 q 65 892 65 868 q 65 935 65 915 q 67 954 65 954 q 77 956 68 954 q 99 958 86 957 q 130 962 111 961 q 164 963 149 963 q 198 960 194 963 q 201 935 201 957 q 193 899 201 917 q 171 868 185 882 q 140 844 157 854 q 107 829 124 833 m 526 783 q 528 800 519 790 q 558 818 538 810 q 572 824 565 821 q 579 826 578 826 q 589 819 582 826 l 597 813 l 581 801 q 526 783 538 772 m 607 771 q 622 788 618 786 q 632 782 625 790 q 621 742 638 774 q 605 720 614 726 q 590 719 596 714 q 589 730 589 722 q 592 744 589 738 q 597 755 593 747 q 607 771 601 763 m 504 494 l 533 508 q 604 563 585 533 q 607 592 615 582 q 579 600 601 600 q 537 593 561 600 q 488 572 513 586 l 469 563 l 481 585 q 507 659 503 626 q 497 701 511 692 q 481 703 490 706 q 440 667 463 697 q 404 600 417 636 q 400 601 403 597 q 390 621 397 606 q 350 682 371 660 q 314 704 329 704 q 299 694 304 704 q 296 669 296 686 q 303 628 296 651 q 322 582 311 606 l 333 561 l 314 572 q 267 592 290 585 q 226 600 244 600 q 201 597 207 600 q 203 557 181 585 q 275 506 225 529 q 294 496 290 499 q 296 492 299 493 q 229 456 260 479 q 193 415 199 432 q 197 394 189 401 q 222 388 206 388 q 311 414 256 388 l 333 426 l 322 406 q 297 333 303 368 q 304 288 292 299 q 317 284 311 283 q 333 292 322 285 q 388 363 363 311 l 401 392 l 410 372 q 451 310 426 336 q 490 285 475 283 q 508 322 510 288 q 482 403 506 357 l 471 425 l 493 414 q 582 388 546 388 q 604 393 593 388 q 596 438 621 407 q 564 463 586 447 q 522 486 542 478 l 504 494 m 388 528 q 383 534 386 528 q 375 547 379 540 q 365 573 367 568 q 364 581 363 578 q 369 577 367 582 q 381 554 372 572 q 389 533 388 538 q 388 528 390 528 m 415 528 q 413 531 413 528 q 416 540 413 532 q 424 557 419 547 q 438 579 436 581 q 437 570 439 578 q 431 553 435 563 q 422 535 426 543 q 415 528 418 528 m 367 508 q 363 507 368 506 q 340 515 357 508 q 319 526 324 522 q 317 532 314 529 q 326 529 318 532 q 342 522 333 526 q 359 514 351 518 q 367 508 367 510 m 461 515 q 440 507 444 508 q 436 508 435 506 q 444 514 436 510 q 460 522 451 518 q 477 529 469 526 q 486 532 485 532 q 484 526 489 529 q 461 515 479 522 m 431 494 q 429 481 431 485 q 424 472 428 478 q 415 467 418 468 q 401 465 411 465 q 388 467 392 465 q 379 472 385 468 q 372 492 372 481 q 401 524 372 524 q 413 522 410 524 q 422 515 417 521 q 429 508 428 511 q 431 494 431 504 m 367 479 q 353 471 367 478 q 319 456 339 464 q 315 457 317 456 q 339 472 315 461 q 363 482 358 481 q 367 479 367 483 m 436 482 q 444 479 436 482 q 461 473 451 476 q 478 465 471 469 q 488 460 486 461 q 461 465 490 454 q 438 476 443 474 q 436 482 433 479 m 385 458 q 389 458 390 464 q 381 436 388 451 q 370 412 374 418 q 364 408 367 406 q 366 417 364 410 q 372 433 368 424 q 380 449 376 442 q 385 458 383 457 m 415 460 q 426 440 419 460 q 439 415 438 419 q 438 408 440 410 q 433 414 436 407 q 424 431 429 421 q 414 455 415 450 q 415 460 413 460 m 660 171 q 672 163 672 165 q 656 143 672 158 q 619 110 640 128 q 580 80 599 93 q 556 67 561 67 q 551 74 554 67 q 548 101 547 83 q 554 129 549 118 q 586 165 565 153 q 629 178 607 178 q 660 171 643 178 m 110 51 q 107 51 107 49 q 107 60 106 53 q 111 78 108 68 q 117 97 114 88 q 124 113 121 107 q 147 129 136 140 q 145 108 153 124 q 110 51 138 92 m 88 51 q 81 57 86 50 q 76 68 76 63 q 75 86 75 74 l 75 106 l 79 96 q 87 69 83 85 q 88 51 90 53 m 192 57 q 175 48 186 53 q 153 40 164 43 q 133 36 142 38 q 122 36 124 35 q 129 43 121 38 q 149 56 138 49 q 171 69 160 64 q 186 76 182 75 q 203 73 201 81 q 192 57 206 65 m 76 42 q 75 49 75 42 q 78 50 75 56 q 76 42 86 42 m 97 47 q 110 40 103 47 q 118 25 118 32 q 110 13 118 21 q 97 4 101 4 q 85 14 94 4 q 76 29 75 24 q 85 41 78 35 q 97 47 93 47 m 183 1 q 190 -3 186 -1 q 197 -8 194 -6 l 201 -14 l 192 -14 q 169 -11 183 -14 q 139 3 157 -11 q 121 17 121 13 q 130 17 122 18 q 147 13 138 15 q 167 8 157 11 q 183 1 178 4 m 78 11 q 81 7 81 10 q 79 4 82 4 q 75 8 75 4 q 78 11 75 11 m 114 10 q 129 3 117 11 q 144 -7 142 -4 q 144 -10 146 -10 q 131 -7 142 -10 q 115 1 121 -4 q 114 10 110 7 z "},"E":{"ha":706,"x_min":63,"x_max":681,"o":"m 679 163 q 681 152 681 163 q 679 127 681 142 q 677 97 678 113 q 675 72 676 82 q 673 64 674 65 q 668 64 672 63 q 650 67 663 67 q 606 51 628 67 q 574 13 585 36 l 567 -4 l 547 -4 q 522 -3 543 -4 q 468 1 501 -1 q 392 6 435 3 q 304 11 350 8 q 190 19 233 15 q 120 24 146 22 q 84 28 94 26 q 71 31 74 29 l 63 35 l 64 81 q 65 145 65 100 q 65 236 65 190 q 66 299 65 276 q 67 331 67 321 q 69 342 68 340 q 71 340 69 343 q 78 335 75 335 q 84 339 79 335 q 94 349 89 343 q 105 360 100 354 q 111 369 110 367 q 118 376 113 376 q 128 375 121 375 q 144 374 135 375 l 165 374 l 165 394 q 164 411 164 404 q 163 421 164 418 q 169 428 160 425 q 178 434 172 429 q 190 444 183 439 q 200 454 196 450 q 204 460 204 458 q 200 466 204 461 q 190 476 196 471 q 178 487 183 482 q 169 493 172 492 q 163 500 160 496 q 164 510 164 503 q 165 526 164 517 l 165 547 l 144 546 q 128 545 135 546 q 118 544 121 544 q 111 551 114 542 q 105 560 110 554 q 94 572 100 567 q 84 582 89 578 q 78 586 79 586 q 71 581 76 586 l 65 575 l 67 618 q 68 667 68 636 q 68 724 68 697 l 68 788 l 82 789 q 141 818 114 793 q 172 875 168 843 l 175 890 l 263 904 q 325 914 299 910 q 354 918 351 918 q 356 915 358 919 q 355 897 350 904 q 371 889 360 889 q 391 894 381 889 q 425 915 401 900 q 448 928 438 922 q 461 935 458 935 l 465 935 q 467 933 465 933 q 461 925 464 929 q 455 915 458 921 q 447 903 451 910 q 424 866 429 875 q 418 847 419 857 q 421 831 415 838 q 433 824 426 824 q 460 851 446 824 q 481 915 474 879 q 486 925 483 925 q 490 915 490 925 q 512 851 497 879 q 539 824 526 824 q 551 831 546 824 q 554 847 556 838 q 547 866 551 857 q 525 903 543 875 q 507 938 500 938 q 543 917 513 938 q 581 893 572 897 q 600 889 590 889 q 618 904 618 889 q 568 942 618 925 l 549 949 l 586 954 q 614 959 601 957 q 628 961 626 961 q 636 957 631 964 q 638 953 638 956 q 640 942 639 950 q 640 917 640 933 q 639 872 639 901 q 638 815 639 839 q 638 788 638 790 q 629 779 635 781 q 615 774 628 778 q 583 763 603 769 q 537 747 563 756 q 482 728 511 738 q 427 709 453 718 q 381 693 401 700 q 349 681 361 686 q 335 676 336 676 l 325 672 l 325 563 l 388 556 q 440 550 413 553 q 482 544 468 547 l 517 540 l 519 528 q 529 506 522 515 q 547 490 535 497 q 568 483 560 483 l 575 483 l 574 374 l 568 369 q 538 362 565 367 q 447 346 510 357 l 333 328 l 332 306 q 330 287 332 299 q 326 264 328 275 q 321 244 324 253 q 317 233 318 235 q 308 253 313 229 q 298 285 306 268 q 283 310 290 303 q 261 308 268 324 q 261 290 257 301 q 282 253 265 278 q 294 233 289 242 q 299 222 300 224 q 288 226 297 221 q 268 239 279 232 q 231 260 243 256 q 211 260 218 265 q 207 242 200 253 q 233 224 214 232 q 253 215 244 218 q 282 210 263 213 q 289 203 289 207 q 282 200 289 200 q 259 196 275 200 q 232 186 243 192 q 208 168 214 178 q 210 151 201 158 q 228 149 217 144 q 269 172 240 153 q 299 189 293 189 q 295 178 300 188 q 282 158 290 169 q 259 118 263 131 q 263 99 256 106 q 286 104 272 89 q 308 160 303 125 q 319 171 315 189 q 338 115 326 135 q 360 94 349 94 q 369 100 367 94 q 371 119 375 107 q 350 156 367 132 q 336 178 342 169 q 332 188 331 186 q 341 185 333 189 q 360 174 349 181 q 411 147 399 147 q 422 153 418 147 q 399 186 438 168 q 372 196 388 192 q 349 200 356 200 q 343 203 343 200 q 347 208 343 207 q 374 206 349 208 q 435 198 399 203 q 515 187 472 193 q 593 176 557 181 q 654 167 629 171 q 679 163 679 163 m 585 899 q 569 908 581 901 q 544 924 557 915 l 514 943 l 525 944 q 551 941 536 944 q 581 931 567 938 q 603 917 594 925 q 613 904 613 910 q 604 894 613 896 q 585 899 596 893 m 494 936 q 479 935 485 931 q 482 938 474 938 q 496 940 490 940 q 502 941 503 943 q 494 936 501 939 m 415 915 q 361 897 372 886 q 360 908 358 901 q 367 918 361 914 q 379 922 369 919 q 400 925 389 924 q 422 929 411 928 q 435 931 432 931 q 432 927 438 932 q 415 915 426 922 m 497 928 q 503 924 500 929 q 526 889 507 918 q 544 858 540 869 q 547 839 549 847 q 540 831 546 832 q 526 838 533 831 q 513 862 519 844 q 501 896 506 879 q 496 921 497 915 q 497 928 494 926 m 426 833 q 424 847 424 836 q 429 864 425 857 q 440 881 433 871 q 454 902 447 892 q 467 919 461 913 q 474 926 472 926 q 474 917 475 925 q 471 899 474 910 q 465 876 468 888 q 457 856 461 864 q 440 834 450 840 q 426 833 431 828 m 68 831 q 68 853 68 843 q 67 864 68 863 q 68 871 67 869 q 80 874 68 872 q 107 879 92 876 q 136 884 122 882 q 156 886 150 886 q 162 885 161 886 q 161 876 163 883 q 133 826 157 849 q 82 801 110 804 l 68 800 l 68 831 m 86 564 q 99 531 103 550 q 90 518 94 518 q 86 524 86 518 q 78 536 86 536 q 71 524 71 536 q 68 518 71 518 q 65 538 65 518 q 67 556 65 551 q 72 564 68 560 l 78 569 l 86 564 m 531 535 q 533 538 531 538 q 549 538 536 539 q 573 533 568 535 q 578 522 578 531 q 577 514 578 519 q 576 506 576 508 q 568 496 575 496 q 563 497 565 496 q 557 497 560 497 q 539 514 547 501 q 531 535 531 526 m 142 533 q 150 532 149 533 q 153 522 151 531 q 140 494 154 501 l 132 488 l 129 493 q 131 503 125 499 q 133 514 138 510 q 121 511 128 518 q 111 511 117 507 q 107 515 107 514 q 111 521 107 515 q 122 533 117 531 q 142 533 126 535 m 82 507 q 125 460 125 504 q 106 419 125 432 q 83 414 97 415 q 67 415 69 413 l 67 463 l 67 507 l 82 507 m 182 453 q 158 438 169 438 q 146 440 157 438 q 136 447 136 444 q 142 453 136 453 q 154 460 154 453 q 142 468 154 468 q 136 472 136 468 q 149 481 136 476 q 182 468 169 485 l 188 460 l 182 453 m 121 408 q 133 406 128 401 q 131 418 138 411 q 129 428 125 422 q 133 431 132 431 q 139 428 133 431 q 151 417 149 422 q 151 397 153 413 q 150 389 151 390 q 142 386 149 388 l 126 386 q 108 404 115 389 q 111 410 106 407 q 121 408 117 414 m 71 358 q 67 366 68 361 q 65 383 65 371 q 68 403 65 403 q 71 397 71 403 q 78 385 71 385 q 86 397 86 385 q 90 403 86 403 q 99 390 94 403 q 99 373 101 379 q 86 358 97 367 q 71 358 79 351 m 296 279 q 305 249 301 264 q 306 231 308 233 q 298 238 304 229 q 285 257 292 246 q 271 281 276 269 q 264 296 265 292 q 271 311 261 311 q 284 301 276 311 q 296 279 292 290 m 333 272 l 333 254 q 329 232 333 236 q 325 231 325 228 q 328 253 322 235 l 333 272 m 264 236 q 290 215 289 218 q 269 217 292 211 q 220 235 238 224 q 214 256 203 247 q 264 236 221 263 m 335 222 q 332 222 335 219 q 332 228 331 226 q 335 227 333 229 q 335 222 336 225 m 315 225 q 329 218 322 225 q 336 204 336 211 q 328 192 336 200 q 315 183 319 183 q 303 193 313 183 q 294 207 293 203 q 303 219 296 214 q 315 225 311 225 m 399 156 q 385 163 394 157 q 365 176 375 169 q 347 189 354 183 q 339 196 339 194 q 348 196 340 197 q 365 192 356 194 q 385 187 375 190 q 400 181 394 183 q 415 170 408 176 q 422 160 422 164 q 415 153 422 154 q 399 156 408 151 m 211 164 q 222 175 213 169 q 244 186 231 181 q 273 194 256 190 q 292 196 290 197 q 284 189 292 194 q 266 176 276 183 q 245 163 256 168 q 231 156 235 157 q 213 154 219 149 q 211 164 210 158 m 326 161 q 323 178 324 176 q 325 181 322 181 q 333 173 326 181 q 346 155 339 165 q 358 134 353 144 q 365 119 364 124 q 364 100 371 104 q 347 108 357 96 q 335 130 340 115 q 326 161 331 144 m 281 104 q 271 100 276 100 q 264 104 265 100 q 265 118 263 108 q 272 132 265 122 q 285 153 278 142 q 298 172 292 164 q 306 181 304 181 q 301 149 308 181 q 292 124 299 138 q 281 104 286 110 m 668 53 q 673 47 672 50 q 672 28 674 43 q 669 1 671 6 q 660 -7 667 -4 q 649 -11 654 -11 l 646 -11 q 642 -10 643 -11 q 629 -9 639 -10 q 607 -7 619 -8 l 578 -6 l 585 7 q 613 41 596 28 q 650 56 631 54 q 668 53 663 56 z "},"F":{"ha":631,"x_min":64,"x_max":613,"o":"m 589 963 q 594 933 590 961 q 603 870 599 904 q 610 808 607 836 q 613 776 613 779 q 608 773 613 775 q 588 766 604 771 q 535 751 571 761 q 436 721 500 740 q 353 695 388 706 q 317 685 318 685 q 317 665 317 683 q 315 619 317 646 l 315 557 l 321 556 q 363 550 331 553 q 393 547 382 549 q 410 544 404 544 q 416 542 415 543 q 417 539 417 540 q 417 529 414 536 q 425 517 421 522 l 431 511 l 421 510 q 401 490 401 507 l 401 475 l 401 461 q 421 440 401 444 l 431 439 l 425 433 q 417 421 419 428 q 435 397 410 400 q 443 396 442 397 q 446 386 444 394 q 468 369 446 363 q 482 378 476 372 l 488 382 l 489 372 q 508 354 492 351 l 539 354 q 532 350 558 354 q 426 336 506 346 q 382 332 403 333 q 346 328 361 331 q 313 324 328 325 q 311 276 311 303 q 310 226 310 256 q 308 165 310 197 q 306 53 307 99 q 304 6 306 7 q 283 3 301 3 q 221 7 264 3 q 199 10 210 10 q 181 13 188 11 q 164 14 171 13 q 158 22 163 15 q 149 35 154 28 q 141 49 144 43 q 138 56 138 56 q 145 53 139 57 q 160 44 151 50 q 200 25 190 25 q 208 32 206 25 q 208 42 211 38 q 192 53 206 47 q 165 63 179 60 q 147 69 144 68 q 168 76 150 72 q 203 92 192 83 q 208 108 214 101 q 199 113 204 113 q 165 97 189 113 q 143 83 149 86 q 138 83 138 81 q 151 106 138 88 q 167 134 164 125 q 167 149 169 143 q 158 156 163 156 q 142 140 151 156 q 131 108 133 124 q 119 104 125 76 q 109 135 117 119 q 96 153 101 150 q 82 142 82 160 q 85 128 82 135 q 100 103 89 122 q 111 82 115 82 q 86 96 110 82 l 67 108 l 67 243 q 67 310 67 271 q 66 394 67 350 q 65 482 65 438 q 65 565 65 526 q 65 663 65 626 q 64 718 64 699 q 65 743 64 738 q 67 747 65 749 q 74 743 71 743 q 80 747 75 743 q 90 757 85 751 q 101 769 96 763 q 107 778 106 775 q 114 785 110 788 q 124 784 117 785 q 140 782 131 783 l 161 782 l 160 801 q 160 818 160 810 q 158 829 160 826 q 164 838 157 836 q 172 842 167 838 q 184 852 178 847 q 195 863 190 857 q 200 869 200 868 q 197 874 199 871 l 189 882 q 181 894 175 894 q 215 901 183 896 q 292 915 246 907 q 389 931 338 922 q 485 947 440 940 q 559 959 529 954 q 589 963 589 964 m 138 861 q 150 869 150 861 q 138 876 150 876 q 132 882 132 876 q 144 889 132 885 q 178 876 165 893 l 183 869 l 176 861 q 165 850 172 854 q 154 846 158 846 q 142 849 153 846 q 132 857 132 853 q 138 861 132 861 m 121 864 q 78 822 118 825 l 64 821 l 64 843 q 68 872 64 867 q 94 881 72 876 q 118 882 114 885 q 121 864 122 879 m 117 817 q 128 815 124 810 q 125 826 132 819 q 124 836 122 831 l 128 840 l 136 836 q 142 831 139 833 q 146 828 146 829 q 148 812 147 825 q 147 797 149 799 q 134 795 144 796 q 119 794 124 794 q 103 813 113 797 q 107 818 103 817 q 117 817 113 822 m 82 767 q 74 761 75 761 q 68 765 72 761 q 64 790 64 769 q 65 808 64 807 q 68 800 65 810 q 76 792 71 790 q 82 806 82 794 q 86 811 82 811 q 94 799 90 811 q 82 767 99 778 m 483 521 q 478 516 479 521 q 483 507 478 511 q 485 501 489 500 q 464 508 481 501 q 450 515 457 511 q 440 521 443 518 q 429 531 433 525 q 428 540 425 538 q 438 540 429 540 q 460 539 447 540 l 490 535 l 494 524 q 492 515 500 507 q 483 521 486 521 m 515 508 q 510 519 515 508 q 511 532 503 536 q 515 519 515 532 l 515 508 m 538 529 q 535 517 540 526 l 531 507 l 531 519 q 538 529 531 533 m 551 522 q 558 525 554 529 q 559 521 560 522 q 554 515 558 519 q 549 514 549 510 q 551 522 549 517 m 415 456 q 417 469 410 463 q 415 482 419 472 q 415 494 411 490 q 440 499 419 500 q 476 490 461 497 l 492 483 l 478 483 q 460 480 465 483 q 460 472 456 476 q 478 468 464 468 l 492 468 l 476 461 q 441 453 463 454 q 415 456 419 451 m 471 385 q 456 385 460 375 l 457 385 q 458 400 454 392 q 460 408 460 403 q 460 411 460 410 q 447 410 458 413 q 428 414 428 406 q 471 444 428 429 q 486 450 483 450 q 483 444 489 450 q 478 435 478 439 q 483 431 478 431 q 492 435 488 431 q 498 438 497 440 q 493 422 499 436 q 471 385 482 393 m 503 368 q 501 394 499 374 q 508 428 503 415 q 516 443 515 443 q 515 431 517 443 q 519 413 515 417 q 531 429 531 404 l 531 444 l 538 429 q 546 392 544 414 q 542 367 547 371 q 533 365 539 364 q 528 369 528 367 q 524 372 528 372 q 517 368 519 371 q 503 368 508 363 m 550 431 q 551 439 544 443 q 553 431 553 436 q 550 431 553 425 m 106 135 q 115 108 111 125 q 117 89 119 90 q 113 94 117 88 q 101 110 108 100 q 86 149 78 143 q 106 135 96 153 m 150 110 q 133 88 136 90 q 133 97 131 86 q 145 134 136 117 q 161 149 154 151 q 150 110 172 144 m 204 103 q 194 90 204 96 q 165 78 183 83 q 144 76 147 74 q 149 83 143 78 q 165 93 156 88 q 183 103 174 99 q 196 108 192 108 q 204 103 204 108 m 74 100 q 101 81 96 85 q 104 76 107 78 q 86 79 104 74 l 68 83 l 67 94 l 67 106 l 74 100 m 119 56 q 115 79 101 65 q 122 84 119 83 q 129 83 124 85 q 139 74 136 81 q 139 63 142 68 q 119 56 129 50 m 72 78 q 80 76 75 78 q 92 74 85 75 q 104 69 104 71 q 88 64 104 68 q 68 60 72 60 q 67 69 67 60 q 72 78 67 81 m 107 61 q 74 38 107 60 l 67 33 l 67 43 q 68 52 67 50 q 76 57 69 54 q 96 61 85 60 q 107 61 107 63 m 158 49 q 147 61 140 61 q 162 60 153 63 q 180 54 171 58 q 196 46 189 50 q 204 39 203 42 q 185 33 208 21 q 174 40 182 36 q 158 49 165 44 m 111 56 q 109 49 113 54 q 101 36 106 43 q 93 24 97 29 q 86 19 89 19 q 82 20 85 19 q 76 21 79 21 q 71 28 68 24 q 89 44 74 33 q 105 53 99 50 q 111 56 111 57 m 132 47 q 135 49 133 50 q 143 36 136 47 q 151 24 149 29 q 156 17 154 18 q 149 14 158 14 q 142 15 144 14 q 139 15 140 15 q 134 31 136 19 q 132 47 132 43 m 117 49 q 115 35 119 49 q 113 22 114 24 q 106 19 111 19 q 97 21 97 19 q 106 36 97 24 q 117 49 115 49 m 124 46 q 131 32 126 57 l 133 17 l 125 17 q 117 19 117 17 q 119 31 117 22 q 124 46 121 40 z "},"G":{"ha":1049,"x_min":26,"x_max":1031,"o":"m 900 228 q 907 217 908 221 q 883 189 906 213 q 753 85 831 131 q 596 19 675 39 q 507 5 556 8 q 422 4 458 1 q 326 24 374 10 q 239 60 279 38 l 219 71 l 219 96 q 207 144 219 125 q 168 178 194 163 q 137 188 156 185 q 107 192 118 192 q 97 192 99 190 q 89 200 94 193 q 58 263 74 224 q 33 339 42 303 q 29 369 31 351 q 27 408 28 388 q 27 447 26 428 q 29 481 28 467 q 73 634 39 561 q 160 768 107 707 l 171 779 l 185 774 q 254 758 211 761 q 328 772 290 758 q 399 810 367 786 q 454 868 432 835 q 479 939 476 901 l 481 956 l 497 958 q 540 963 518 961 q 583 965 561 965 q 718 948 656 965 q 843 893 781 931 q 856 883 854 885 q 857 874 858 881 q 856 863 856 871 q 856 847 856 854 q 863 814 856 828 q 893 774 875 786 l 901 769 q 904 767 903 768 q 892 755 904 765 q 865 731 881 744 q 835 704 850 717 q 815 686 821 692 l 803 675 l 793 685 q 728 716 769 706 q 657 726 688 726 q 569 713 614 726 q 483 674 524 699 q 408 613 442 649 q 353 535 374 578 q 342 512 344 515 q 333 508 339 508 q 313 493 324 510 q 296 447 303 476 q 292 434 293 440 q 290 426 290 428 q 282 446 286 422 q 271 478 279 461 q 256 503 263 496 q 233 501 242 517 q 234 482 229 494 q 254 446 239 469 q 267 425 263 433 q 271 415 272 417 q 261 419 269 414 q 240 432 253 424 q 203 453 215 449 q 183 453 190 457 q 179 435 172 446 q 206 417 186 425 q 226 408 217 411 q 256 401 236 406 q 261 397 261 400 q 256 393 261 393 q 233 389 249 393 q 206 379 217 385 q 180 361 186 371 q 182 344 174 351 q 201 342 189 338 q 242 365 213 346 q 263 377 254 372 q 271 381 271 382 q 267 371 272 379 q 256 351 263 363 q 232 311 236 324 q 235 292 228 299 q 260 297 246 282 q 282 353 274 313 q 288 369 285 367 q 293 364 290 372 q 310 308 300 328 q 332 288 321 288 q 343 294 339 288 q 344 308 347 300 q 338 324 344 313 q 324 349 332 336 q 309 370 314 361 q 306 381 304 379 q 321 375 307 382 q 333 364 328 369 q 344 344 338 358 q 376 300 356 321 q 419 268 396 279 q 437 258 433 261 q 443 247 440 254 q 456 225 446 236 q 476 210 465 214 q 515 209 496 203 q 546 233 533 215 q 556 242 553 240 q 578 247 560 244 q 677 281 631 257 q 763 342 724 306 q 780 360 778 357 q 776 363 782 363 q 773 364 772 364 q 782 367 774 364 q 790 369 790 369 q 794 371 793 369 q 792 368 793 369 q 785 360 790 365 q 760 314 767 340 q 764 269 754 288 q 801 249 775 249 q 839 261 821 249 q 868 289 857 274 l 872 296 l 875 279 q 900 228 883 246 m 229 772 q 204 778 218 774 q 185 786 190 783 q 185 793 182 789 q 203 810 189 797 q 286 876 239 846 q 385 925 333 906 q 431 942 404 933 q 464 950 458 950 q 467 929 471 950 q 451 888 463 908 q 388 817 431 847 q 303 776 346 788 q 263 771 285 772 q 229 772 242 769 m 901 783 q 876 813 886 794 q 867 851 867 832 q 869 870 867 869 q 888 858 872 871 q 903 844 894 853 q 921 826 913 835 q 935 810 929 817 q 942 801 942 803 q 938 796 942 800 q 930 788 935 792 q 921 780 925 783 q 915 776 917 776 q 910 778 914 776 q 901 783 906 781 m 1017 488 q 1026 488 1025 490 q 1021 457 1026 485 q 1014 422 1017 429 q 1006 417 1011 415 q 997 414 1000 417 q 1000 411 997 411 q 1007 405 1007 411 q 1000 379 1007 399 q 994 358 997 368 q 988 346 990 349 l 983 338 l 969 350 q 960 359 964 356 q 954 361 956 363 q 957 350 951 361 q 960 336 958 346 q 961 317 961 326 l 963 293 l 950 274 q 938 258 942 261 q 931 254 935 254 q 918 257 924 254 q 894 283 903 267 q 890 299 892 292 q 889 324 889 306 l 889 342 q 888 350 888 346 q 883 344 886 350 q 876 332 879 339 q 818 285 853 285 q 797 294 803 285 q 790 317 790 303 q 822 378 792 346 q 832 389 831 386 q 836 394 835 392 q 814 390 831 394 q 781 386 796 386 q 740 396 756 386 q 728 422 725 406 q 754 453 733 446 q 796 460 775 460 q 815 460 807 460 q 824 461 824 460 q 804 472 824 465 q 763 510 772 490 q 762 545 751 529 q 793 558 772 561 q 822 547 804 557 q 851 525 840 538 q 868 514 867 513 q 867 519 868 518 q 861 540 864 524 q 858 565 858 556 l 858 576 l 878 578 q 897 579 886 579 q 914 579 907 579 l 931 579 l 933 572 q 933 561 933 569 q 932 544 933 553 q 933 525 932 525 q 944 543 938 525 q 953 558 947 550 q 964 572 960 567 l 975 582 l 1000 582 q 1026 579 1025 582 q 1029 563 1029 576 q 1029 547 1031 551 q 1022 531 1028 542 q 1000 499 1015 514 q 986 481 985 482 q 997 483 992 481 q 1006 485 1000 485 q 1017 488 1013 486 m 828 578 q 836 576 835 578 q 840 567 838 575 q 842 558 842 564 l 843 554 q 831 567 840 554 l 818 578 l 828 578 m 757 474 q 706 453 728 471 q 685 414 685 435 q 701 382 685 394 q 735 365 717 369 q 728 364 742 364 q 681 363 715 364 l 576 360 q 547 359 560 358 q 532 361 535 360 l 525 363 l 525 465 q 526 547 525 525 q 529 568 526 568 q 545 569 531 568 q 582 570 560 569 q 629 572 604 571 q 676 573 654 572 q 712 574 697 574 q 726 574 726 574 q 724 564 729 574 q 726 524 717 546 q 758 485 735 503 l 769 475 l 757 474 m 268 472 q 278 441 274 457 q 279 422 282 425 q 258 450 275 422 q 239 500 231 492 q 244 504 242 504 q 256 494 249 504 q 268 472 264 483 m 335 503 q 335 490 339 503 q 333 479 333 485 q 331 471 332 474 q 325 460 329 468 q 315 443 321 453 q 301 422 303 424 q 297 424 300 421 q 297 433 296 425 q 301 450 299 440 q 308 469 304 460 q 314 485 311 479 q 335 503 326 507 m 922 428 q 926 442 929 433 q 914 453 924 450 q 900 447 907 454 q 897 433 894 442 q 907 424 899 426 q 915 423 913 422 q 922 428 917 424 m 236 429 q 260 406 272 406 q 251 407 257 406 q 236 411 246 408 l 238 411 q 191 430 206 419 q 186 449 176 440 q 236 429 194 457 m 326 439 q 326 428 326 432 q 318 421 325 425 q 306 415 308 411 q 307 422 304 417 q 314 433 310 426 l 325 450 l 326 439 m 289 418 q 301 411 294 418 q 308 397 308 404 q 301 384 308 393 q 288 375 293 375 q 283 378 286 375 q 276 385 279 382 q 268 394 269 392 q 268 400 267 397 q 276 412 269 406 q 289 418 283 418 m 319 414 q 326 417 325 417 q 326 414 326 417 q 321 406 326 408 q 313 408 315 404 q 319 414 313 411 m 317 401 q 322 403 321 401 q 326 399 326 406 q 321 393 326 393 q 317 397 317 393 l 317 401 m 319 381 q 317 383 318 382 q 314 385 315 383 q 313 388 314 386 q 322 390 314 390 q 329 386 329 389 q 331 379 329 382 q 319 381 332 374 m 183 357 q 218 379 188 368 q 246 387 229 383 q 264 389 263 390 q 256 382 264 388 q 238 369 249 376 q 218 356 228 361 q 204 349 208 350 q 186 347 193 343 q 183 357 182 350 m 300 353 q 297 371 297 368 q 299 374 296 374 q 305 367 300 374 q 316 350 310 360 q 328 331 322 340 q 338 315 335 321 q 333 292 347 292 q 321 300 329 292 q 300 353 307 318 m 238 311 q 244 325 239 315 q 258 346 250 335 q 272 365 265 357 q 279 374 278 374 q 274 342 283 374 q 256 300 269 318 q 245 292 251 293 q 238 297 239 292 q 238 311 235 301 m 474 249 q 493 245 481 246 q 515 243 506 244 l 539 242 l 532 233 q 497 219 517 219 q 474 225 483 219 q 460 238 467 229 q 456 250 453 247 q 474 249 456 251 m 161 167 q 192 142 179 158 q 208 107 206 125 q 210 90 211 100 q 206 81 208 81 q 189 91 201 81 q 163 114 176 101 q 138 138 150 126 q 122 154 126 150 l 103 178 l 113 179 q 135 176 121 179 q 161 167 150 174 z "}}}
